<?xml version="1.0" standalone="no"?>
<!DOCTYPE svg PUBLIC "-//W3C//DTD SVG 1.1//EN" "http://www.w3.org/Graphics/SVG/1.1/DTD/svg11.dtd" >
<svg xmlns="http://www.w3.org/2000/svg">
<metadata></metadata>
<defs>
<font id="budicon-fontfont" horiz-adv-x="512" >
<font-face units-per-em="512" ascent="480" descent="-32" />
<missing-glyph horiz-adv-x="500" />
<glyph unicode="&#xd;" />
<glyph unicode="!" d="M160 176q0 -60 49 -93q29 -19 63 -19q60 0 93 49q19 29 19 63q0 28 -28 72t-56 74l-28 30l-46 -52q-65 -81 -66 -124zM272 96q-45 0 -69 39q-11 20 -11 41q0 42 78 126l2 2l39 -46q40 -54 41 -82q0 -45 -39 -69q-19 -11 -41 -11zM272 512l-59 -59q-149 -157 -149 -245 q0 -95 72 -158q59 -50 136 -50q95 0 158 72q50 59 50 136q0 94 -166 263zM272 32q-84 0 -137 65q-39 49 -39 111q0 43 44 107t88 107l44 42l55 -54q120 -130 121 -202q0 -84 -65 -137q-49 -39 -111 -39z" />
<glyph unicode="&#x22;" d="M384 512h-256q-61 0 -100 -61q-28 -44 -28 -99v0v-64v-288h288v160h96q60 0 99 64q29 49 29 112q0 90 -54 143q-34 33 -74 33zM256 32h-224v319v1q0 71 45 109q24 19 51 19h1h75h106q-54 -55 -54 -144v-304zM384 192h-32h-64v0l1 160q5 78 52 113q21 15 43 15 q48 0 77 -57q19 -40 19 -87q0 -81 -46 -123q-23 -21 -50 -21zM400 416q-28 0 -42 -40q-5 -18 -6 -37v-6q1 -53 31 -72q9 -5 17 -5q27 0 41 39q7 19 7 41q0 52 -29 73q-9 7 -19 7zM400 288q-14 8 -16 48q2 42 16 48q13 -10 16 -48q-2 -44 -16 -48z" />
<glyph unicode="#" d="M384 480h-96v32h-64v-32h-96q-39 0 -57 -35q-7 -14 -7 -29q0 -40 35 -57q7 -3 13 -5v-34q0 -24 22 -31q6 -1 10 -1h16v-64q-24 0 -31 -22q-1 -6 -1 -10v-192h256v192q0 24 -22 31q-6 1 -10 1v64h16q24 0 31 22q1 6 1 10v34q35 9 45 44q3 9 3 18q0 39 -35 57q-14 7 -29 7z M352 64v-32h-192v144q2 15 16 16h160q15 -2 16 -16v-112zM192 224v64h128v-64h-128zM368 336q-2 -15 -16 -16h-192q-15 2 -16 16v16h224v-16zM384 384h-256q-24 0 -31 22q-1 6 -1 10q0 24 22 31q6 1 10 1h256q24 0 31 -22q1 -6 1 -10q0 -24 -22 -31q-6 -1 -10 -1z" />
<glyph unicode="$" d="M400 448h-112v32h-64v-32h-112q-15 -2 -16 -16q2 -15 16 -16h16v-96q0 -24 22 -31q6 -1 10 -1v-64q-24 0 -31 -22q-1 -6 -1 -10v-192h256v192q0 24 -22 31q-6 1 -10 1v64q24 0 31 22q1 6 1 10v96h16q15 2 16 16q-2 15 -16 16zM352 64v-32h-192v144q2 15 16 16h160 q15 -2 16 -16v-112zM192 224v64h128v-64h-128zM352 336q-2 -15 -16 -16h-160q-15 2 -16 16v16h192v-16zM352 384h-192v16q2 15 16 16h160q15 -2 16 -16v-16z" />
<glyph unicode="%" d="M512 144q0 111 -79 181q-60 53 -144 58v33h47q15 2 16 16q-2 15 -16 16h-128q-15 -2 -16 -16q2 -15 16 -16h47v-33q-114 -7 -177 -95q-46 -63 -46 -144v-16v-32h480v32v16zM477 128h-410q0 2 -1 8v8q0 101 73 162q56 46 133 46q104 0 163 -78q43 -56 43 -130v-8 q-1 -6 -1 -8zM495 64h-446q-14 -3 -17 -16q3 -13 17 -16h446q14 3 17 16q-3 13 -17 16z" />
<glyph unicode="&#x26;" d="M495 64h-478q-14 -3 -17 -16q3 -13 17 -16h478q14 3 17 16q-3 13 -17 16zM320 376v29q0 46 -35 67q-14 8 -29 8q-38 0 -56 -38q-8 -18 -8 -37v-29q-101 -25 -157 -115q-35 -57 -35 -117v0v0v0v-1v-1v-1v-1v-1v-1v-1v-1v-1v-1v-1v-2v-1v-1v-1v-2v-1v-1v-2v-1v-2v-1v-2v-1 v-2v-2v-1v-2v-2v-1v-9h512v0v1v0v1v1v1v1v1v1v1v1v2v1v1v2v1v1v2v1v2v2v1v2v2v1v2v2v2v2v2v8q0 89 -68 160q-53 54 -124 72zM224 408q0 29 22 38q5 2 10 2q22 0 30 -26q2 -7 2 -14v-26q-20 2 -32 2q-13 0 -32 -2v26zM480 128h-448v11q0 81 63 146q67 67 161 67 q107 0 175 -83q49 -61 49 -130v-11z" />
<glyph unicode="'" d="M288 512h-32v-96h32v96zM384 480h-32v-64h32v64zM192 480h-32v-64h32v64zM480 320v64h-448v-64q0 -101 76 -168q24 -20 50 -33l-62 -102l29 -17l64 107q34 -11 67 -11q34 0 67 11l64 -107l29 17l-62 102q83 40 113 127q13 36 13 74zM256 128q-90 0 -147 69 q-45 54 -45 123v32h384v-32q0 -90 -69 -147q-54 -45 -123 -45z" />
<glyph unicode="(" d="M192 224h-32v-64h32v64zM160 320h32v64h-32v-64zM416 512h-288q-24 0 -31 -22q-1 -6 -1 -10v-448q0 -24 22 -31q6 -1 10 -1h288q24 0 31 22q1 6 1 10v448q0 24 -22 31q-6 1 -10 1zM416 48q-2 -15 -16 -16h-256q-15 2 -16 16v208h288v-208zM416 288h-288v176q2 15 16 16 h256q15 -2 16 -16v-176z" />
<glyph unicode=")" d="M432 288h-32q-15 -2 -16 -16q2 -15 16 -16h32q15 2 16 16q-2 15 -16 16zM320 384h-224q-24 0 -31 -22q-1 -6 -1 -10v-192q0 -24 22 -31q6 -1 10 -1h224q24 0 31 22q1 6 1 10v192q0 24 -22 31q-6 1 -10 1zM320 176q-2 -15 -16 -16h-192q-15 2 -16 16v160q2 15 16 16h192 q15 -2 16 -16v-160zM432 352h-32q-15 -2 -16 -16q2 -15 16 -16h32q15 2 16 16q-2 15 -16 16zM480 448h-448q-24 0 -31 -22q-1 -6 -1 -10v-320q0 -24 22 -31q6 -1 10 -1h448q24 0 31 22q1 6 1 10v320q0 24 -22 31q-6 1 -10 1zM480 112q-2 -15 -16 -16h-416q-15 2 -16 16v288 q2 15 16 16h416q15 -2 16 -16v-288z" />
<glyph unicode="*" d="M501 288l-53 160h-32v64h-288v-64h-32l-64 -192h32v-256h416v256h32zM160 480h224v-32h-224v32zM327 416l42 -128h-81v128h39zM256 416v-128h-81l42 128h39zM117 416h11h49l-42 -128h-60zM448 32h-352v64h352v-64zM448 128h-352v128h352v-128zM409 288l-42 128h60 l42 -128h-60z" />
<glyph unicode="+" d="M320 288h64v32h-64v-32zM320 224h64v32h-64v-32zM320 160h64v32h-64v-32zM384 416h-256v-32h256v32zM256 320h-128v-32h128v32zM32 512v-512h32l64 48l64 -48l64 48l64 -48l64 48l64 -48h32v512h-448zM448 32l-64 48l-64 -48l-64 48l-64 -48l-64 48l-64 -48v448h384v-448 zM256 192h-128v-32h128v32zM256 256h-128v-32h128v32z" />
<glyph unicode="," d="M384 288h-256v-32h256v32zM384 416h-256v-32h256v32zM384 224h-256v-32h256v32zM32 512v-512h32l64 48l64 -48l64 48l64 -48l64 48l64 -48h32v512h-448zM448 32l-64 48l-64 -48l-64 48l-64 -48l-64 48l-64 -48v448h384v-448z" />
<glyph unicode="-" d="M445 512l-63 -64l-61 64l-66 -64l-64 64l-66 -64l-59 64h-34v-512h448v512h-35zM448 32h-384v448l65 -64l62 64l63 -64l67 64l63 -64l64 64v-448zM261 224v72q32 -4 52 -25l18 20q-27 26 -70 31v30h-21v-30q-53 -4 -69 -40q-4 -11 -4 -21q0 -38 50 -55q9 -3 23 -7v-80 q-38 5 -63 31l-17 -21q30 -32 80 -35v-30h21v30q63 3 73 50q2 7 2 14q0 41 -53 60q-9 2 -22 6zM240 229q-42 13 -43 33q0 26 33 34q5 1 10 1v-68zM261 118v76q44 -14 45 -38q0 -29 -36 -37q-5 -1 -9 -1z" />
<glyph unicode="." d="M509 332l-70 134q-8 13 -24 14h-160h-1h-158q-16 -1 -23 -14l-70 -131q-6 -14 2 -27l239 -303q6 -5 10 -5q5 1 9 5l19 23l3 1l-1 2l223 274q8 13 2 27zM418 436l44 -84h-77zM389 448l-36 -89l-66 89h102zM254 448l72 -96h-143zM223 448l-69 -92l-37 92h106zM91 433 l32 -81h-75zM36 320h91h9l98 -248zM254 108l-86 212h170zM273 70l99 250h10h96z" />
<glyph unicode="/" d="M336 448h-160v-32h160v32zM293 320l91 112v64l-55 16h-146l-55 -16v-64l91 -112h74zM160 480h192v-48l-77 -80h-38l-77 80v48zM358 354l-6 -34h-1q64 -50 65 -128q0 -77 -61 -125q-43 -35 -99 -35q-77 0 -125 61q-35 44 -35 99q1 80 65 128h-1l-6 34q-75 -47 -88 -133 q-2 -15 -2 -29q0 -90 69 -147q54 -45 123 -45q90 0 147 69q45 54 45 123q0 92 -72 149q-9 7 -18 13z" />
<glyph unicode="0" d="M368 288h-96q-15 -2 -16 -16q2 -15 16 -16h96q15 2 16 16q-2 15 -16 16zM368 384h-96q-15 -2 -16 -16q2 -15 16 -16h96q15 2 16 16q-2 15 -16 16zM448 512h-352q-24 0 -31 -22q-1 -6 -1 -10v-448q0 -24 22 -31q6 -1 10 -1h352q24 0 31 22q1 6 1 10v448q0 24 -22 31 q-6 1 -10 1zM160 32h-48q-15 2 -16 16v416q2 15 16 16h48v-448zM448 48q-2 -15 -16 -16h-240v448h240q15 -2 16 -16v-416z" />
<glyph unicode="1" d="M479 480l-62 -1q-193 -16 -295 -131q-101 -117 -88 -317l62 4q128 16 219 77l3 2q169 117 161 366zM411 449q-68 -34 -134 -97h-1v-1q-32 -29 -59 -59l-35 72q89 77 229 85zM157 340l37 -74q-33 -39 -60 -75l-2 -3q-36 -50 -66 -99q7 160 91 251zM91 63q22 40 56 92 l137 -35q-87 -51 -193 -57zM319 144l-152 39q58 76 118 135l139 -26q-31 -89 -105 -148zM433 323l-119 22q15 14 31 27.5t28.5 23.5t24.5 18.5t20.5 15t15.5 10.5t10 6l4 3h1q0 -67 -16 -126z" />
<glyph unicode="2" d="M416 224q-36 14 -60 38t-30 41l-6 17v192h-128v-192l-12 -26q-29 -47 -84 -70l-23 -87q-9 -39 -9 -60q0 -18 8 -37t16 -30l8 -10h320l18 28q14 26 14 49q0 21 -8 57.5t-16 63.5zM224 480h64v-32h-64v32zM128 210q36 20 60 39.5t30 28.5l6 10v128h64v-128l23 -27 q32 -32 73 -51q1 -2 7 -18h-270zM384 32h-256l-17 21q-4 6 -7 11h304q-9 -18 -24 -32zM96 96q2 21 15 64h290q14 -43 15 -64h-320z" />
<glyph unicode="3" d="M341 485q-35 21 -90 26q-5 0 -14 0.5t-13 0.5t-13 -0.5t-14 -0.5q-56 -5 -90 -26q-67 -34 -74 -90q-1 -6 -1 -11q1 -38 32 -71v-217q0 -56 68 -82q39 -14 92 -14q115 0 149 58q11 18 11 38v217q32 34 32 71q0 58 -66 96q-5 3 -9 5zM224 480q105 0 125 -47q3 -9 3 -17 q0 -41 -61 -57q-29 -7 -67 -7q-105 0 -125 47q-3 9 -3 17q0 41 61 57q29 7 67 7zM224 32q-105 0 -125 47q-3 9 -3 17v193q54 -33 128 -33v-160l58 -2q44 1 70 11v-9q0 -41 -61 -57q-29 -7 -67 -7zM352 135q-18 -7 -42 -9t-39 0l-15 2v130q56 7 96 31v-154zM224 288 q-88 0 -135 45q-24 24 -25 51q0 5 2 14q14 -55 96 -72q29 -6 62 -6q115 0 150 58q5 10 8 20q2 -10 2 -14q0 -47 -62 -76q-44 -20 -98 -20z" />
<glyph unicode="4" d="M256 512q-111 0 -187 -82q-69 -74 -69 -174q0 -111 82 -187q74 -69 174 -69q111 0 187 82q69 74 69 174q0 111 -82 187q-74 69 -174 69zM256 32q-101 0 -168 76q-56 64 -56 148q0 101 76 168q64 56 148 56q101 0 168 -76q56 -64 56 -148q0 -101 -76 -168 q-64 -56 -148 -56zM256 384q-66 0 -104 -54q-24 -34 -24 -74q0 -66 54 -104q34 -24 74 -24q66 0 104 54q24 34 24 74q0 66 -54 104q-34 24 -74 24zM256 160q-53 0 -81 45q-15 24 -15 51q0 53 45 81q24 15 51 15q53 0 81 -45q15 -24 15 -51q0 -53 -45 -81q-24 -15 -51 -15z " />
<glyph unicode="5" d="M426 388q-22 63 -74 122v2h-32v-9v0v-503h32v224h96v8l-2 62q-6 53 -20 94zM352 256v203q32 -48 48 -92q18 -54 18 -111h-66zM224 384h-32v128h-32v-128h-32v128h-32v-192q0 -39 35 -57q14 -7 29 -7v-256h32v256q39 0 57 35q7 14 7 29v192h-32v-128zM224 320 q0 -24 -22 -31q-6 -1 -10 -1h-32q-24 0 -31 22q-1 6 -1 10v32h96v-32z" />
<glyph unicode="6" d="M368 512q-58 0 -91 -54q-21 -33 -21 -74q0 -69 50 -106q22 -16 46 -20v-258h32v258q56 9 83 65q13 29 13 61q0 68 -49 106q-29 22 -63 22zM368 288q-44 0 -68 45q-12 24 -12 51q0 55 40 83q19 13 40 13q44 0 68 -45q12 -24 12 -51q0 -55 -40 -83q-19 -13 -40 -13z M160 384h-32v128h-32v-128h-32v128h-32v-189q0 -41 35 -60q14 -7 29 -7v-256h32v256q38 0 56 35q8 16 8 32v189h-32v-128zM160 322q0 -26 -23 -33q-5 -1 -9 -1h-32q-23 0 -30 23q-2 6 -2 11v29h96v-29z" />
<glyph unicode="7" d="M224 496v-96q0 -50 -27 -60q-3 -1 -5 -2v174h-32v-176q-32 9 -32 64v96v16h-32v-112q0 -79 57 -93q4 0 7 -1v-306h32v306q60 18 64 94v112h-32v-16zM426 388q-20 55 -74 122v2h-32v-9v0v-503h32v224h96v8v1l-2 61q-6 53 -20 94zM352 256v203q32 -48 48 -92 q18 -54 18 -111h-66z" />
<glyph unicode="8" d="M368 512q-56 0 -89 -57q-23 -40 -23 -87q0 -77 50 -120q22 -17 46 -22v-226h32v226q53 10 81 69q15 34 15 73q0 76 -49 119q-29 25 -63 25zM368 256q-42 0 -66 49q-14 29 -14 63q0 65 40 97q19 15 40 15q42 0 66 -49q14 -29 14 -63q0 -65 -40 -97q-19 -15 -40 -15z M160 496v-96q0 -50 -27 -60q-3 -1 -5 -2v174h-32v-174q-31 13 -32 62v112h-32v-112q0 -79 57 -93q4 0 7 -1v-306h32v306q60 18 64 94v112h-32v-16z" />
<glyph unicode="9" d="M451 310q-25 41 -21 74q1 10 -6 15q-8 5 -16 3q-33 -17 -46 -58q-1 -1 -1 -2q-4 -16 -6 -34q-7 11 -12 23q-7 15 -12 32t-7 32.5t-3 30t-0.5 26.5t1.5 21.5t2 14.5l1 5q1 9 -5 15q-6 5 -16 4l-2 -1q-78 -29 -110 -110q-9 -22 -13 -45q-10 -58 4 -119q-15 11 -28 31 q-4 6 -7.5 13.5t-6 15t-5 14.5t-3.5 11l-1 4q-5 10 -13 11q-11 0 -16 -8q-9 -9 -25 -54q-14 -42 -14 -76q0 -101 77 -158q55 -41 130 -41q107 0 167 75q42 53 42 124q0 59 -23 101zM271 32q-95 0 -145 69q-30 43 -30 98q0 30 18 79l14 -28q6 -9 13 -17.5t14.5 -14t14 -10 t13 -7.5t11 -5t7.5 -3l3 -1q10 -1 16 5q5 8 3 17l-11 46q-9 49 -1 90q16 84 80 120q-7 -89 23 -153q2 -6 6 -12.5t7.5 -12.5t7.5 -12.5t7.5 -12t6.5 -9.5t5 -7l2 -3q7 -8 18 -6q10 6 11 16q0 52 7 75q3 10 8 19q6 -29 23 -58q24 -39 25 -85v-10q0 -88 -70 -136 q-46 -31 -107 -31z" />
<glyph unicode=":" d="M384 480h-32v-32h32q24 0 31 -22q1 -6 1 -10v-320q0 -24 -22 -31q-6 -1 -10 -1h-256q-24 0 -31 22q-1 6 -1 10v320q0 24 22 31q6 1 10 1h32v32h-32q-39 0 -57 -35q-7 -14 -7 -29v-320q0 -39 35 -57q14 -7 29 -7h32v-32h32v32h128v-32h32v32h32q39 0 57 35q7 14 7 29v320 q0 39 -35 57q-14 7 -29 7zM160 160h192v32h-192v-32zM352 288h-192v-32h192v32zM352 384h-192v-32h192v32zM320 512h-128v-32h128v32z" />
<glyph unicode=";" d="M320 512h-128v-32h128v32zM384 416h-256v-32h256v32zM384 480h-32v-32h32q24 0 31 -22q1 -6 1 -10v-320q0 -24 -22 -31q-6 -1 -10 -1h-256q-24 0 -31 22q-1 6 -1 10v320q0 24 22 31q6 1 10 1h32v32h-32q-39 0 -57 -35q-7 -14 -7 -29v-320q0 -39 35 -57q14 -7 29 -7h32 v-32h32v32h128v-32h32v32h32q39 0 57 35q7 14 7 29v320q0 39 -35 57q-14 7 -29 7zM128 352v-224q0 -24 22 -31q6 -1 10 -1h192q24 0 31 22q1 6 1 10v224h-256zM336 320h16v-176q-2 -15 -16 -16h-160q-15 2 -16 16v176h176z" />
<glyph unicode="&#x3c;" d="M294 296q47 21 56 70q2 9 2 18q0 53 -45 81q-24 15 -51 15q-53 0 -81 -45q-15 -24 -15 -51q0 -3 1 -9v-7h33q-2 10 -2 16q0 39 35 57q14 7 29 7q39 0 57 -35q7 -14 7 -29q0 -39 -35 -57q-14 -7 -29 -7v-32l208 -224l9 -12q8 -17 -27 -20h-14h-352q-46 0 -42 17q1 3 10 15 l156 144h-50l-154 -144q0 -28 17 -53q8 -10 15 -11h448q18 0 29 44q3 12 3 20z" />
<glyph unicode="=" d="M480 192h-12q12 19 12 39q0 42 -35 61q-14 7 -29 7h-5l-187 85q-23 -25 -51 -34t-52 -4t-44.5 13t-32.5 17l-12 8v-192q-22 0 -30 -21q-2 -6 -2 -11v-32q0 -24 22 -31q6 -1 10 -1h448q24 0 31 22q1 6 1 10v32q0 22 -21 30q-5 2 -11 2zM64 334q46 -23 83.5 -19t60.5 21 l24 16l55 -27l-61 -36q-7 -13 7 -22q14 -6 24 6l61 37l35 -17l-63 -37q-7 -14 7 -22q14 -7 24 5l62 40l33 -14q23 0 30 -23q2 -6 2 -11q0 -8 -8 -17.5t-16 -15.5l-8 -6h-352v142zM464 128h-416q-15 2 -16 16q2 15 16 16h416q15 -2 16 -16q-2 -15 -16 -16z" />
<glyph unicode="&#x3e;" d="M352 288v224l-128 -77v-83h-32v-64h-32v-288h224v288h-32zM256 432l64 16v-96h-64v80zM224 320h96v-32h-96v32zM352 32h-160v224h160v-224z" />
<glyph unicode="?" d="M464 384l-121 -73q-10 9 -23 9h-128q-14 -1 -23 -9l-121 73q-32 0 -44 -30q-4 -9 -4 -18v-192q0 -32 29 -44q10 -4 19 -4l121 72q10 -8 23 -8h128q14 1 23 8l121 -72q32 0 44 29q4 9 4 19v192q0 30 -28 44q-10 4 -20 4zM160 256h-48q-15 -2 -16 -16q2 -15 16 -16h48v-32 l-128 -64v224l128 -75v-21zM320 204q-2 -11 -16 -12h-96q-15 1 -16 12v72q2 11 16 12h96q15 -1 16 -12v-72zM480 128l-128 64v32h48q15 2 16 16q-2 15 -16 16h-48v21l128 75v-224z" />
<glyph unicode="@" d="M261 272v72q32 -4 52 -25l18 20q-27 26 -70 31v30h-21v-30q-53 -4 -69 -40q-4 -11 -4 -21q0 -38 50 -55q9 -3 23 -7v-80q-38 5 -63 31l-17 -21q30 -32 80 -35v-30h21v30q63 3 73 50q2 7 2 14q0 41 -53 60q-9 2 -22 6zM240 277q-42 13 -43 33q0 26 33 34q5 1 10 1v-68z M261 166v76q44 -14 45 -38q0 -29 -36 -37q-5 -1 -9 -1zM256 512q-111 0 -187 -82q-69 -74 -69 -174q0 -111 82 -187q74 -69 174 -69q111 0 187 82q69 74 69 174q0 111 -82 187q-74 69 -174 69zM256 32q-101 0 -168 76q-56 64 -56 148q0 101 76 168q64 56 148 56 q101 0 168 -76q56 -64 56 -148q0 -101 -76 -168q-64 -56 -148 -56z" />
<glyph unicode="A" d="M272 352q15 2 16 16v96q-2 15 -16 16q-15 -2 -16 -16v-96q2 -15 16 -16zM336 352q15 2 16 16v64q-2 15 -16 16q-15 -2 -16 -16v-64q2 -15 16 -16zM208 352q15 2 16 16v64q-2 15 -16 16q-15 -2 -16 -16v-64q2 -15 16 -16zM128 58v-33q66 -25 144 -25q79 0 144 25v33 q-66 -26 -144 -26q-79 0 -144 26zM128 320v-128q0 -78 53 -112q27 -16 59 -16h64q70 0 99 64q13 29 13 64v128h-288zM384 192q0 -68 -46 -89q-16 -7 -34 -7h-64q-57 0 -75 57q-5 19 -5 39v96h224v-96z" />
<glyph unicode="B" d="M208 352q15 2 16 16v64q-2 15 -16 16q-15 -2 -16 -16v-64q2 -15 16 -16zM336 352q15 2 16 16v64q-2 15 -16 16q-15 -2 -16 -16v-64q2 -15 16 -16zM272 352q15 2 16 16v96q-2 15 -16 16q-15 -2 -16 -16v-96q2 -15 16 -16zM128 320v-128q0 -78 53 -112q27 -16 59 -16h64 q70 0 99 64q13 29 13 64v128h-288zM384 192q0 -68 -46 -89q-16 -7 -34 -7h-64q-57 0 -75 57q-5 19 -5 39v32h224v-32zM384 256h-224v32h224v-32zM128 58v-33q66 -25 144 -25q79 0 144 25v33q-66 -26 -144 -26q-79 0 -144 26z" />
<glyph unicode="C" d="M272 352q15 2 16 16v96q-2 15 -16 16q-15 -2 -16 -16v-96q2 -15 16 -16zM336 352q15 2 16 16v64q-2 15 -16 16q-15 -2 -16 -16v-64q2 -15 16 -16zM208 352q15 2 16 16v64q-2 15 -16 16q-15 -2 -16 -16v-64q2 -15 16 -16zM432 32h-320q-15 -2 -16 -16q2 -15 16 -16h320 q15 2 16 16q-2 15 -16 16zM240 64h64q70 0 99 64q13 29 13 64v128h-288v-128q0 -78 53 -112q27 -16 59 -16zM160 288h224v-32h-224v32zM160 224h224v-32q0 -68 -46 -89q-16 -7 -34 -7h-64q-57 0 -75 57q-5 19 -5 39v32z" />
<glyph unicode="D" d="M384 288q0 7 -16 15t-32 13l-16 4v96q21 0 30 29q2 10 2 19q0 35 -22 46q-6 2 -10 2h-128q-21 0 -30 -30q-2 -9 -2 -18q0 -36 22 -46q6 -2 10 -2v-96l-44 -15q-19 -9 -20 -17v-256h2q-2 -7 -2 -8q0 -18 18 -23q3 -1 6 -1h208q18 0 23 18q1 3 1 6t-2 8h2v256zM208 480h96 q15 -2 16 -16q-2 -15 -16 -16h-16h-80q-15 2 -16 16q2 15 16 16zM352 112v-32v-32q-2 -15 -16 -16h-160q-15 2 -16 16v32v32v144q0 14 16 22t32 9l16 1v128h64v-128l33 -4q30 -10 31 -28v-144z" />
<glyph unicode="E" d="M320 320v96q21 0 30 29q2 10 2 19q0 35 -22 46q-6 2 -10 2h-128q-21 0 -30 -30q-2 -9 -2 -18q0 -36 22 -46q6 -2 10 -2v-96l-44 -15q-19 -9 -20 -17v-192v-64h2q-2 -7 -2 -8q0 -18 18 -23q3 -1 6 -1h208q18 0 23 18q1 3 1 6t-2 8h2v64v192q0 7 -16 15t-32 13zM208 480h96 q15 -2 16 -16q-2 -15 -16 -16h-96q-15 2 -16 16q2 15 16 16zM352 80v-32q-2 -15 -16 -16h-160q-15 2 -16 16v32v16h192v-16zM352 128h-192v64h192v-64zM352 224h-192v32q0 14 16 22t32 9l16 1v128h64v-128l33 -4q30 -10 31 -28v-32z" />
<glyph unicode="F" d="M416 480h-320q-24 0 -31 -22q-1 -6 -1 -10l32 -416q0 -24 22 -31q6 -1 10 -1h256q24 0 31 22q1 6 1 10l32 416q0 24 -22 31q-6 1 -10 1zM384 48q-2 -15 -16 -16h-224q-15 2 -16 16l-32 384q2 15 16 16h288q15 -2 16 -16z" />
<glyph unicode="G" d="M480 272q0 58 -48 91q-9 6 -17 10q0 2 1 5v6q0 66 -54 104q-34 24 -74 24q-66 0 -104 -54q-24 -34 -24 -74v-2q-56 -7 -83 -58q-13 -24 -13 -52q0 -7 2 -16h-2l224 -256l192 256h-2q2 10 2 16zM288 480q53 0 81 -45q15 -24 15 -51v-2q-10 2 -16 2q-60 0 -92 -49l-4 -6 q-28 45 -80 53v2q0 53 45 81q24 15 51 15zM96 272q0 45 39 69q20 11 41 11q45 0 69 -39q11 -20 11 -41q0 -7 -2 -16h-156q-2 10 -2 16zM288 48l-160 176h288zM446 256h-156q-2 10 -2 16q0 45 39 69q20 11 41 11q45 0 69 -39q11 -20 11 -41q0 -7 -2 -16z" />
<glyph unicode="H" d="M480 368q0 45 -39 69q-20 11 -41 11q-10 0 -25 -4q-22 51 -76 65q-14 3 -27 3q-59 0 -93 -49q-6 -9 -10 -19q-16 4 -25 4q-45 0 -69 -39q-11 -20 -11 -41q0 -7 2 -16v-32q-2 -10 -2 -16q0 -94 72 -156q52 -45 120 -50v-66h-64v-32h160v32h-64v66q93 7 149 81 q43 56 43 125q0 7 -2 16v32q2 10 2 16zM272 480q47 0 70 -41q3 -6 5 -12q-26 -23 -27 -59q0 -7 2 -16h-100q2 10 2 16q-1 37 -27 59q15 42 57 51q10 2 18 2zM144 416q32 0 44 -30q4 -8 4 -18q0 -9 -3 -16h-90q-3 8 -3 16q0 32 29 44q10 4 19 4zM272 128q-84 0 -137 65 q-39 49 -39 111q0 7 2 16h348q2 -10 2 -16q0 -84 -65 -137q-49 -39 -111 -39zM445 352h-90q-3 8 -3 16q0 30 28 44q10 4 20 4q30 0 44 -28q4 -10 4 -20q0 -9 -3 -16z" />
<glyph unicode="I" d="M288 512h-32q-66 0 -104 -54q-24 -34 -24 -74v-192q0 -39 35 -57q14 -7 29 -7h32v-96q0 -24 22 -31q6 -1 10 -1h32q24 0 31 22q1 6 1 10v96h32q39 0 57 35q7 14 7 29v192q0 66 -54 104q-34 24 -74 24zM288 48q-2 -15 -16 -16q-15 2 -16 16v80h32v-80zM384 320v-128 q0 -24 -22 -31q-6 -1 -10 -1h-160q-24 0 -31 22q-1 6 -1 10v192q0 53 45 81q24 15 51 15h32q53 0 81 -45q15 -24 15 -51v-64z" />
<glyph unicode="J" d="M352 512h-160q-39 0 -57 -35q-7 -14 -7 -29v-256q0 -39 35 -57q14 -7 29 -7h32v-96q0 -24 22 -31q6 -1 10 -1h32q24 0 31 22q1 6 1 10v96h32q39 0 57 35q7 14 7 29v256q0 39 -35 57q-14 7 -29 7zM288 48q-2 -15 -16 -16q-15 2 -16 16v80h32v-80zM384 192q0 -24 -22 -31 q-6 -1 -10 -1h-160q-24 0 -31 22q-1 6 -1 10v256q0 24 22 31q6 1 10 1h160q24 0 31 -22q1 -6 1 -10v-256z" />
<glyph unicode="K" d="M398 255q-47 79 -64 111q-21 40 -39 82h41q15 2 16 16q-2 15 -16 16h-160q-15 -2 -16 -16q2 -15 16 -16h49q-44 -47 -63 -82q-27 -49 -42 -111q-65 -4 -100 -59q-20 -31 -20 -68q0 -66 54 -104q34 -24 74 -24q66 0 104 54q24 34 24 74q0 66 -53 104q-23 16 -50 22 q13 44 39 99q18 37 66 83q32 -55 46 -83q22 -46 55 -99q-61 -13 -89 -68q-14 -28 -14 -58q0 -66 54 -104q34 -24 74 -24q66 0 104 54q24 34 24 74q0 66 -54 104q-28 19 -60 23zM224 128q0 -53 -45 -81q-24 -15 -51 -15q-53 0 -81 45q-15 24 -15 51q0 53 45 81q24 15 51 15 q53 0 81 -45q15 -24 15 -51zM384 32q-53 0 -81 45q-15 24 -15 51q0 53 45 81q24 15 51 15q53 0 81 -45q15 -24 15 -51q0 -53 -45 -81q-24 -15 -51 -15z" />
<glyph unicode="L" d="M388 288q-32 39 -54 78q-18 34 -42 114h44q15 2 16 16q-2 15 -16 16h-160q-15 -2 -16 -16q2 -15 16 -16h54q-43 -69 -68 -114q-27 -49 -42 -111q-65 -4 -100 -59q-20 -31 -20 -68q0 -66 54 -104q34 -24 74 -24q66 0 104 54q24 34 24 74q0 66 -53 104q-23 16 -50 22 q13 44 39 99q19 38 66 102q22 -51 46 -102q23 -47 49 -69q-61 -15 -86 -72q-11 -25 -11 -52q0 -66 54 -104q34 -24 74 -24q66 0 104 54q24 34 24 74q0 66 -54 104q-32 22 -70 24zM224 128q0 -53 -45 -81q-24 -15 -51 -15q-53 0 -81 45q-15 24 -15 51q0 53 45 81q24 15 51 15 q53 0 81 -45q15 -24 15 -51zM384 64q-53 0 -81 45q-15 24 -15 51q0 53 45 81q24 15 51 15q53 0 81 -45q15 -24 15 -51q0 -53 -45 -81q-24 -15 -51 -15z" />
<glyph unicode="M" d="M248 386q14 -5 22 6l5 25q4 13 10 22q8 11 20 23t21 19l8 7q6 13 -6 22q-14 5 -22 -6l-31 -28q-11 -11 -17 -20q-7 -11 -11 -23t-5 -19v-6q-6 -13 6 -22zM355 384q-23 0 -68 -22q-20 -10 -31 -10q-10 0 -48 18q-29 14 -51 14q-65 0 -102 -54q-23 -34 -23 -74 q0 -64 38 -153q43 -102 90 -103q37 0 67 20q17 11 29 11q13 0 35 -15q26 -16 61 -16q48 0 92 105q36 88 36 151q0 66 -53 104q-33 24 -72 24zM352 32q-21 0 -36 11q-5 3 -9 5q-31 15 -51 15q-22 0 -51 -15q-5 -2 -11 -7q-14 -9 -34 -9q-22 0 -56 71q-40 86 -40 153 q0 53 44 81q23 15 49 15q16 -1 47 -16q32 -16 52 -16q21 0 52 16q32 16 47 16q51 0 79 -45q14 -24 14 -51q0 -74 -46 -164q-30 -59 -50 -60z" />
<glyph unicode="N" d="M480 119l-233 233v0l-128 128l-11 -12l-1 1q-75 -76 -75 -181q0 -111 82 -187q74 -69 174 -69q97 1 169 64l6 5l6 6zM288 64q-101 0 -168 76q-56 64 -56 148q1 83 55 146l90 -89l-113 -23l9 -34l134 26l26 -25l-105 -105l24 -24l105 105l15 -16v-153h32v121l98 -98 q-64 -55 -146 -55z" />
<glyph unicode="O" d="M512 352q0 53 -45 81q-24 15 -51 15q-52 -1 -80 -43q-23 34 -64 41v34h32q15 2 16 16q-2 15 -16 16h-96q-15 -2 -16 -16q2 -15 16 -16h32v-34q-42 -7 -64 -41q-29 42 -80 43q-53 0 -81 -45q-15 -24 -15 -51q0 -53 45 -81q24 -15 51 -15q4 0 6 1q-6 -17 -6 -33 q0 -53 45 -81q13 -7 26 -11q-7 -20 -7 -36q0 -53 45 -81q24 -15 51 -15q53 0 81 45q15 24 15 51q0 16 -6 33q3 -1 6 -1q53 0 81 45q15 24 15 51q0 17 -7 36q48 13 65 59q6 17 6 33zM256 416q39 0 57 -35q7 -14 7 -29q0 -39 -35 -57q-14 -7 -29 -7q-39 0 -57 35q-7 14 -7 29 q0 39 35 57q14 7 29 7zM96 288q-39 0 -57 35q-7 14 -7 29q0 39 35 57q14 7 29 7q39 0 57 -35q7 -14 7 -29q0 -39 -35 -57q-14 -7 -29 -7zM128 224q0 39 34 56q12 6 23 7q26 -27 62 -30q9 -18 9 -33q0 -39 -35 -57q-14 -7 -29 -7q-39 0 -57 35q-7 14 -7 29zM256 32 q-39 0 -57 35q-7 14 -7 29q0 16 9 33q37 4 62 30q37 -3 52 -38q5 -12 5 -25q0 -39 -35 -57q-14 -7 -29 -7zM352 160q-39 0 -57 35q-7 14 -7 29q0 39 35 57q14 7 29 7q39 0 57 -35q7 -14 7 -29q0 -39 -35 -57q-14 -7 -29 -7zM422 289q-25 27 -61 30q-9 18 -9 33q0 39 35 57 q14 7 29 7q39 0 57 -35q7 -14 7 -29q0 -39 -35 -56q-11 -6 -23 -7z" />
<glyph unicode="P" d="M115 480q-15 0 -19 -14l-32 -150l-32 150q-5 14 -19 14q-14 -4 -13 -19l48 -221l-48 -222q0 -15 13 -18q15 -2 19 13l32 151l32 -150q5 -14 19 -14q14 4 13 19l-48 221l48 221q0 15 -13 19zM512 381l-32 102q0 21 -22 28q-6 1 -10 1h-224q-24 0 -31 -20q-1 -5 -1 -9 l-32 -102q1 -8 5 -14q-5 -9 -5 -16l32 -318q0 -23 21 -31q6 -2 11 -2h224q23 0 30 22q2 6 2 11l32 318q-1 8 -5 16q5 7 5 14zM448 49q-3 -14 -16 -17h-192q-13 3 -16 17l-5 47h234zM457 128h-242l-7 64h256zM468 224h-264l-12 111q3 14 16 17h256q13 -3 16 -17zM464 384 h-256q-15 1 -16 14l32 68q2 13 16 14h192q15 -1 16 -14l32 -68q-2 -13 -16 -14z" />
<glyph unicode="Q" d="M115 480q-15 0 -19 -14l-32 -150l-32 150q-5 14 -19 14q-14 -4 -13 -19l48 -221l-48 -222q0 -15 13 -18q15 -2 19 13l32 151l32 -150q5 -14 19 -14q14 4 13 19l-48 221l48 221q0 15 -13 19zM336 256q-45 0 -69 -39q-11 -20 -11 -41q0 -45 39 -69q19 -11 41 -11 q45 0 69 39q11 20 11 41q0 45 -39 69q-20 11 -41 11zM336 128q-32 0 -44 29q-4 9 -4 19q0 30 28 44q10 4 20 4q30 0 44 -28q4 -10 4 -20q0 -32 -30 -44q-8 -4 -18 -4zM512 381l-32 102q0 21 -22 28q-6 1 -10 1h-224q-24 0 -31 -20q-1 -5 -1 -9l-32 -102q1 -8 5 -14 q-5 -9 -5 -16l32 -318q0 -23 21 -31q6 -2 11 -2h224q23 0 30 22q2 6 2 11l32 318q-1 8 -5 16q5 7 5 14zM448 49q-3 -14 -16 -17h-192q-13 3 -16 17l-32 286q3 14 16 17h256q13 -3 16 -17zM464 384h-256q-15 1 -16 14l32 68q2 13 16 14h192q15 -1 16 -14l32 -68 q-2 -13 -16 -14z" />
<glyph unicode="R" d="M115 480q-15 0 -19 -14l-32 -150l-32 150q-5 14 -19 14q-14 -4 -13 -19l48 -221l-48 -222q0 -15 13 -18q15 -2 19 13l32 151l32 -150q5 -14 19 -14q14 4 13 19l-48 221l48 221q0 15 -13 19zM512 381l-32 102q0 21 -22 28q-6 1 -10 1h-224q-24 0 -31 -20q-1 -5 -1 -9 l-32 -102q1 -8 5 -14q-5 -9 -5 -16l32 -318q0 -23 21 -31q6 -2 11 -2h224q23 0 30 22q2 6 2 11l32 318q-1 8 -5 16q5 7 5 14zM448 49q-3 -14 -16 -17h-192q-13 3 -16 17l-2 15h228zM453 96h-234l-27 239q3 14 16 17h256q13 -3 16 -17zM464 384h-256q-15 2 -16 16l32 64 q2 15 16 16h192q15 -2 16 -16l32 -64q-2 -15 -16 -16z" />
<glyph unicode="S" d="M512 288q0 42 -83 71q-74 25 -173 25q-142 0 -217 -45q-38 -24 -39 -51q0 -5 2 -10q-2 -16 -2 -22q0 -111 82 -187q74 -69 174 -69q111 0 187 82q69 74 69 174q0 7 -2 22q2 7 2 10zM256 32q-101 0 -167 75q-51 58 -56 134q70 -46 210 -49h13q142 0 218 46q3 2 5 3 q-6 -99 -83 -160q-62 -49 -140 -49zM256 224q-137 0 -200 35q-23 14 -24 29q0 32 89 51q60 13 135 13q137 0 200 -35q23 -14 24 -29q0 -32 -89 -51q-60 -13 -135 -13z" />
<glyph unicode="T" d="M342 320l124 110q12 10 1 23q-7 10 -19 3q-2 -1 -3 -2l-151 -134h48zM0 288q0 -112 83 -188q21 -19 45 -33l5 -3q25 -12 29 -14q-2 -7 -2 -10q0 -28 26 -37q7 -3 14 -3h112q28 0 37 26q3 7 3 14q0 5 -2 10q7 3 29 14l5 3q91 52 119 153q9 34 9 68h-512zM320 32h-128v32 h128v-32zM370 96h-228q-82 49 -103 139q-3 11 -4 21h442q-12 -94 -92 -151q-8 -5 -15 -9zM382 488q5 14 -6 22q-13 6 -22 -6l-108 -184h37z" />
<glyph unicode="U" d="M342 288l124 110q12 10 1 23q-7 10 -19 3q-2 -1 -3 -2l-151 -134h48zM496 256h-496q0 -111 82 -187q74 -69 174 -69q111 0 187 82q69 74 69 174h-16zM256 32q-100 0 -167 75q-9 11 -16 21h366q-55 -79 -150 -94q-17 -2 -33 -2zM458 160h-404q-15 34 -19 64h443 q-6 -32 -20 -64zM382 456q5 14 -6 22q-12 6 -22 -6l-108 -184h37z" />
<glyph unicode="V" d="M447 160q0 195 -116 243q-34 13 -75 13q-149 0 -182 -162q-9 -43 -9 -94l2 -20q18 -65 146 -75h5q1 0 3 -1h3h31h1h1h31h3q2 1 3 1q132 9 151 74q3 12 2 21zM406 133q-26 -25 -86 -33v60q0 24 -22 31q-6 1 -10 1h-64q-24 0 -31 -22q-1 -6 -1 -10v-60q-61 8 -86 33 q-10 11 -10 22v1v4q1 223 160 224q159 -2 160 -224l-1 -1l-4 -18q-3 -5 -5 -8z" />
<glyph unicode="W" d="M512 154q0 234 -138 301q-51 25 -118 25q-192 0 -241 -193q-15 -59 -15 -133l2 -21q16 -69 136 -91q19 -4 39 -6q9 -4 15 -4h64h64q8 0 15 4q54 6 92.5 20.5t54 30.5t23.5 31.5t7 25.5v10zM320 80q-2 -15 -16 -16h-96q-15 2 -16 16v64q2 15 16 16h96q15 -2 16 -16v-64z M468 119q-30 -36 -116 -49v90q0 24 -22 31q-6 1 -10 1h-128q-24 0 -31 -22q-1 -6 -1 -10v-89q-85 12 -115 46q-14 15 -14 32l1 1v4q0 236 147 283q36 11 77 11q185 0 218 -206q6 -41 6 -88v-3l1 -2l-4 -17q-4 -7 -9 -13z" />
<glyph unicode="X" d="M256 512q-111 0 -187 -82q-69 -74 -69 -174v-224q0 -24 22 -31q6 -1 10 -1h448q24 0 31 22q1 6 1 10v224q0 111 -82 187q-74 69 -174 69zM33 277q9 98 88 158q60 45 135 45q101 0 168 -76q48 -55 55 -127l1 -21h-448zM480 48q-2 -15 -16 -16h-416q-15 2 -16 16v80h448 v-80zM32 160v64h448v-64h-448z" />
<glyph unicode="Y" d="M67 224q-3 16 -3 32q0 90 69 147q54 45 123 45q90 0 147 -69q45 -54 45 -123q0 -17 -3 -32h32q0 4 1 11q2 14 2 21q0 101 -76 168q-64 56 -148 56q-101 0 -168 -76q-56 -64 -56 -148q0 -2 3 -32h32zM480 224h-448q-24 0 -31 -22q-1 -6 -1 -10v-64q0 -24 22 -31 q6 -1 10 -1h11l21 -64q0 -24 22 -31q6 -1 10 -1h320q24 0 31 22q1 6 1 10l21 64h11q24 0 31 22q1 6 1 10v64q0 24 -22 31q-6 1 -10 1zM416 48q-2 -15 -16 -16h-288q-15 2 -16 16l-24 48h368zM480 144q-2 -15 -16 -16h-416q-15 2 -16 16v32q2 15 16 16h416q15 -2 16 -16v-32z " />
<glyph unicode="Z" d="M256 480l-54 -67q-105 -144 -106 -221q0 -93 61 -151q44 -41 99 -41q74 0 123 69q37 54 37 123q0 47 -40 119t-80 121zM256 32q-63 0 -101 62q-27 43 -27 98q0 39 32 99t64 101l32 40l48 -64q80 -114 80 -176q0 -82 -53 -130q-34 -30 -75 -30zM176 208v5q-16 -25 -16 -53 q0 -53 45 -81q24 -15 51 -15q29 1 53 16h-5q-66 0 -104 54q-24 34 -24 74z" />
<glyph unicode="[" d="M256 512q-111 0 -187 -82q-69 -74 -69 -174q0 -111 82 -187q74 -69 174 -69q111 0 187 82q69 74 69 174q0 111 -82 187q-74 69 -174 69zM256 32q-101 0 -168 76q-56 64 -56 148q0 101 76 168q64 56 148 56q101 0 168 -76q56 -64 56 -148q0 -101 -76 -168 q-64 -56 -148 -56zM347 320h38q-29 55 -90 63q-8 1 -15 1q-65 0 -101 -56q-3 -4 -5 -8h-30q-15 -2 -16 -16q2 -15 16 -16h18q-2 -16 -2 -24v-4q1 -3 1 -4h-17q-15 -2 -16 -16q2 -15 16 -16h23q20 -55 75 -74q19 -6 38 -6q60 1 95 48h-45q-23 -16 -50 -16q-49 0 -76 44l-2 4 h86q15 2 16 16q-2 15 -16 16h-95q0 2 -1 4v4q0 9 4 24h92q15 2 16 16q-2 15 -16 16h-75q28 31 67 32q40 -1 67 -32z" />
<glyph unicode="\" d="M480 256q0 39 -35 57q-14 7 -29 7h-1q-7 100 -70 156q-41 36 -89 36q-73 0 -121 -73q-33 -52 -38 -119h-1q-39 0 -57 -35q-7 -14 -7 -29v-3v-4l12 -70l1 -1l19 -114q0 -39 35 -57q14 -7 29 -7h256q39 0 57 35q7 14 7 29l19 114l1 1l12 70v4v3zM256 480q62 0 100 -66 q23 -42 27 -94h-254q6 89 61 135q31 25 66 25zM416 64q0 -24 -22 -31q-6 -1 -10 -1h-256q-24 0 -31 22q-1 6 -1 10l-14 87q83 -55 174 -55q92 1 174 55zM437 187q-77 -58 -181 -61q-105 0 -177 58q-2 2 -4 3l-11 69q0 24 22 31q6 1 10 1h320q24 0 31 -22q1 -6 1 -10z M256 256q-24 0 -31 -22q-1 -6 -1 -10q0 -24 22 -31q6 -1 10 -1q24 0 31 22q1 6 1 10q0 24 -22 31q-6 1 -10 1z" />
<glyph unicode="]" d="M293 168q-6 0 -29 9q-10 4 -19 4q-11 0 -17 -3q24 18 24 43q0 7 -2 14h40v18h-49q-2 3 -7 9q-19 24 -19 42q0 31 32 39q7 2 14 2q30 -1 42 -26l22 13q-20 35 -66 36q-45 0 -66 -35q-8 -14 -8 -29q0 -4 1 -8.5t1.5 -7.5t2.5 -7.5t3 -6t4.5 -6t4 -5.5t4.5 -5l4 -5h-34v-18 h47q5 -11 5 -19q-2 -32 -43 -50l9 -20q26 13 39 13q9 0 33 -10q13 -5 26 -5q29 1 44 15l-12 22q-10 -12 -31 -13zM256 512q-111 0 -187 -82q-69 -74 -69 -174q0 -111 82 -187q74 -69 174 -69q111 0 187 82q69 74 69 174q0 111 -82 187q-74 69 -174 69zM256 32 q-101 0 -168 76q-56 64 -56 148q0 101 76 168q64 56 148 56q101 0 168 -76q56 -64 56 -148q0 -101 -76 -168q-64 -56 -148 -56z" />
<glyph unicode="^" d="M256 512q-111 0 -187 -82q-69 -74 -69 -174q0 -111 82 -187q74 -69 174 -69q111 0 187 82q69 74 69 174q0 111 -82 187q-74 69 -174 69zM256 32q-101 0 -168 76q-56 64 -56 148q0 101 76 168q64 56 148 56q101 0 168 -76q56 -64 56 -148q0 -101 -76 -168 q-64 -56 -148 -56zM324 352l-52 -85h-32l-52 85h-28l64 -112h-48v-16h64v-32h-64v-16h64v-64h32v64h64v16h-64v32h64v16h-48l64 112h-28z" />
<glyph unicode="_" d="M496 224h-480h-1q-5 -1 -10 -4v-1h-1q-4 -7 -4 -10v-1q1 -9 8 -13l158 -158q11 -9 22 0q9 11 0 21l-134 134h442q15 2 16 16q-2 15 -16 16zM16 288h480h1q5 1 10 4v1h1q4 7 4 10v1q-1 9 -8 13l-158 159q-11 9 -22 0q-9 -11 0 -22l134 -134h-442q-15 -2 -16 -16 q2 -15 16 -16z" />
<glyph unicode="`" d="M480 53l-117 447q-3 8 -11 11v1h-32h-128h-32v-1q-9 -3 -11 -11l-117 -447q-2 -15 12 -19l124 -33q13 -5 18 8q1 2 1 3l69 263l69 -263q3 -14 16 -12q2 1 3 1l124 33q13 3 12 16v3zM429 56l-62 -16q-14 -3 -20 11l-90 349h-2l-90 -349q-6 -14 -20 -11l-62 16 q-14 3 -12 17q1 2 1 3l88 340h48v32h-40l8 32h160l8 -32h-40v-32h48l88 -340q5 -14 -8 -19q-2 -1 -3 -1z" />
<glyph unicode="a" d="M447 447q-50 50 -115 25q-30 -12 -57 -39q-57 -57 -70 -133q-3 -16 -3 -30l-61 -61q-29 29 -67 15q-14 -6 -24 -15q-29 -29 -15 -67q6 -14 15 -24q22 -19 50 -18q-1 -29 18 -49q31 -30 70 -14q12 5 21 14q29 28 15 66q-5 14 -15 24l62 62q68 -1 136 49q15 11 27 23 q70 70 36 140q-9 18 -23 32zM180 157l-16 -16l21 -22q10 -9 11 -23q0 -24 -22 -31q-6 -1 -10 -1q-22 0 -30 21q-2 6 -2 11q1 12 9 22l-23 23q-10 -9 -22 -9q-23 0 -31 21q-2 6 -2 11q1 24 24 31q5 1 9 1q15 -1 24 -12l21 -21l70 71q7 -12 9 -13q5 -5 14 -10zM408 294 q-53 -53 -114 -62q-35 -5 -51 11q-27 27 1 91q18 41 50 73q62 62 115 29q8 -5 15 -12q40 -39 13 -92q-11 -20 -29 -38z" />
<glyph unicode="b" d="M352 448h-32v-160h32v160zM288 448h-32v-160h32v160zM224 448h-32v-160h32v160zM400 512h-256q-15 -2 -16 -16v-256q2 -15 16 -16h112v-96h-32v-128h96v128h-32v96h112q15 2 16 16v256q-2 15 -16 16zM288 32h-32v64h32v-64zM384 256h-224v224h224v-224z" />
<glyph unicode="c" d="M384 480h-256q-53 0 -81 -49q-15 -27 -15 -59q1 -67 64 -81v-241q0 -34 30 -46q9 -4 18 -4h224q31 0 44 30q4 9 4 20v241q63 15 64 80q0 63 -47 94q-23 15 -49 15zM384 321v-257q0 -24 -22 -31q-6 -1 -10 -1h-192q-24 0 -31 22q-1 6 -1 10v257q-63 7 -64 54q0 44 36 65 q14 8 28 8h32h192h32q35 0 54 -35q10 -18 10 -38q-2 -48 -64 -54z" />
<glyph unicode="d" d="M256 512q-77 0 -135 -90q-57 -88 -57 -198q0 -127 82 -189q49 -35 110 -35q96 0 151 78q41 60 41 146q0 115 -61 205q-58 82 -131 83zM256 32q-85 0 -130 72q-30 50 -30 120q0 106 55 187q47 68 105 69q65 0 114 -84q46 -78 46 -172q0 -118 -76 -168q-37 -24 -84 -24z " />
<glyph unicode="e" d="M480 288h-64h-2h2v32h-416v-32h2q-2 -10 -2 -16q0 -140 107 -188q45 -20 101 -20q146 1 189 103q11 -7 19 -7h64q24 0 31 22q1 6 1 10v64q0 24 -22 31q-6 1 -10 1zM208 96q-127 0 -163 98q-5 15 -8 30h344q-19 -114 -137 -126q-17 -2 -36 -2zM383 256h-350v7q-1 6 -1 9 q0 7 2 16h348q2 -10 2 -16q0 -11 -1 -16zM480 224v-32h-64v48q2 15 16 16h32q15 -2 16 -16v-16zM320 448h-32v-96h32v96zM224 480h-32v-128h32v128zM128 448h-32v-96h32v96zM368 32h-320q-15 -2 -16 -16q2 -15 16 -16h320q15 2 16 16q-2 15 -16 16z" />
<glyph unicode="f" d="M464 448h-275l-34 64l-27 -17l26 -47h-106q-15 -2 -16 -16v-96q2 -15 16 -16h51l29 -320h256l29 320h51q15 2 16 16v96q-2 15 -16 16zM64 352v64h107l21 -38v-26h-128zM352 32h-192l-29 288h61v-224h32v224h157zM448 352h-224v32h-1h1l-17 32h241v-64z" />
<glyph unicode="g" d="M256 512q-115 0 -149 -58q-11 -18 -11 -38v-320q0 -56 68 -82q39 -14 92 -14q115 0 149 58q11 18 11 38v320q0 56 -68 82q-39 14 -92 14zM384 96q0 -41 -61 -57q-29 -7 -67 -7q-105 0 -125 47q-3 9 -3 17v259q44 -35 128 -35q85 0 128 35v-259zM256 352q-105 0 -125 47 q-3 9 -3 17q0 41 61 57q29 7 67 7q105 0 125 -47q3 -9 3 -17q0 -41 -61 -57q-29 -7 -67 -7z" />
<glyph unicode="h" d="M96 512v-32v-48q0 -115 65 -187q42 -45 95 -52v-161h-64q-15 -2 -16 -16q2 -15 16 -16h160q15 2 16 16q-2 15 -16 16h-64v161q75 9 122 91q38 65 38 148v48v32h-352zM416 432q0 -107 -58 -169q-39 -40 -86 -41q-67 0 -110 74q-34 59 -34 136q0 38 2 48h284q2 -11 2 -48z " />
<glyph unicode="i" d="M96 512v-32v-48q0 -115 65 -187q42 -45 95 -52v-161h-64q-15 -2 -16 -16q2 -15 16 -16h160q15 2 16 16q-2 15 -16 16h-64v161q75 9 122 91q38 65 38 148v48v32h-352zM272 222q-68 0 -112 77q-14 27 -23 59q64 42 117 9q10 -7 18 -15q60 -60 125 -3l10 10 q-23 -91 -84 -124q-25 -13 -51 -13zM416 432q0 -13 -2 -34q-46 -46 -79 -46q-32 1 -63 32q-54 54 -131 9q-5 -3 -9 -6q-4 19 -4 45q0 38 2 48h284q2 -11 2 -48z" />
<glyph unicode="j" d="M448 384q0 28 -8 60t-16 50l-8 18h-288l-19 -48q-13 -44 -13 -80q0 -148 123 -184q18 -5 37 -7v-161h-64q-15 -2 -16 -16q2 -15 16 -16h160q15 2 16 16q-2 15 -16 16h-64v161q127 16 154 131q6 28 6 60zM272 222q-107 0 -135 95q-9 30 -9 67q0 46 16 88q1 5 2 8h252 q1 -4 4 -12q14 -37 14 -84q0 -131 -100 -157q-21 -5 -44 -5z" />
<glyph unicode="k" d="M448 384q0 28 -8 60t-16 50l-8 18h-288l-19 -48q-13 -44 -13 -80q0 -148 123 -184q18 -5 37 -7v-161h-64q-15 -2 -16 -16q2 -15 16 -16h160q15 2 16 16q-2 15 -16 16h-64v161q127 16 154 131q6 28 6 60zM146 480h252q1 -4 4 -13q12 -32 14 -67q-45 -45 -76 -47 q-34 -2 -68 31q-28 28 -64 28t-58 -14l-22 -14q0 46 16 88q1 5 2 8zM272 222q-107 0 -135 97q-5 17 -7 35q67 46 121 15q11 -8 21 -17q60 -60 126 -2l17 17q-7 -120 -105 -141q-18 -4 -38 -4z" />
<glyph unicode="l" d="M335 64h-223q-15 -2 -16 -16q2 -15 16 -16h223q15 2 16 16q-2 15 -16 16zM479 384h-72l8 64h-383l15 -111q42 -240 113 -241h127q48 2 84 116q34 7 57.5 27t33 44t14 47t4.5 38zM271 128h-95q-52 1 -88 150q80 47 136 -6q58 -59 122 -4q7 6 13 12q-37 -151 -88 -152z M367 317v3q-45 -45 -76 -47q-34 -2 -67 31q-54 54 -132 8l-10 -6l-18 110h319q0 -2 -16 -99zM380 241q13 49 22 111h45l-5 -38q-16 -64 -62 -73z" />
<glyph unicode="m" d="M400 64h-384q-15 -2 -16 -16q2 -15 16 -16h384q15 2 16 16q-2 15 -16 16zM416 414v34h-416v-192q0 -77 61 -125q43 -35 99 -35h96q79 0 127 63q12 16 20 33q59 2 91 52q18 28 18 60q0 59 -49 92q-22 15 -47 18zM384 256q0 -66 -54 -104q-34 -24 -74 -24h-96 q-66 0 -104 54q-24 34 -24 74v160h352v-160zM413 225q3 16 3 31v126q44 -8 59 -50q5 -14 5 -28q0 -47 -41 -70q-13 -6 -26 -9z" />
<glyph unicode="n" d="M479 352h-72l8 64h-383l15 -111q42 -240 113 -241h127q48 2 84 116q34 7 57.5 27t33 44t14 47t4.5 38zM271 96h-95q-22 0 -42 29.5t-32 72t-21 85t-13 71.5l-4 30h319l-16 -100q-39 -187 -96 -188zM380 209q10 37 23 111h44l-5 -38q-16 -64 -62 -73z" />
<glyph unicode="o" d="M479 384h-72l8 64h-383l15 -111q42 -240 113 -241h127q48 2 84 116q34 7 57.5 27t33 44t14 47t4.5 38zM271 128h-95q-22 0 -42 29.5t-32 72t-21 85t-13 71.5l-4 30h319l-16 -100q-39 -187 -96 -188zM380 241q13 49 22 111h45l-5 -38q-16 -64 -62 -73zM335 64h-223 q-15 -2 -16 -16q2 -15 16 -16h223q15 2 16 16q-2 15 -16 16z" />
<glyph unicode="p" d="M144 480h224q15 2 16 16q-2 15 -16 16h-224q-15 -2 -16 -16q2 -15 16 -16zM416 448h-320q-22 0 -30 -27q-2 -8 -2 -16v-42q0 -32 22 -41q5 -2 10 -2v-287q0 -23 21 -31q6 -2 11 -2h256q23 0 30 22q2 6 2 11v287q22 0 30 27q2 8 2 16v42q0 32 -22 41q-5 2 -10 2zM384 47 q-3 -12 -16 -15h-224q-13 3 -16 15v113h32q0 -53 45 -81q24 -15 51 -15q53 0 81 45q15 24 15 51h32v-113zM192 160q0 39 35 57q14 7 29 7q39 0 57 -35q7 -14 7 -29q0 -39 -35 -57q-14 -7 -29 -7q-39 0 -57 35q-7 14 -7 29zM384 192h-38q-16 46 -63 60q-14 4 -27 4 q-53 0 -81 -45q-6 -10 -9 -19h-38v128h256v-128zM400 352h-288q-14 5 -16 32q2 29 16 32h288q14 -5 16 -32q-2 -29 -16 -32z" />
<glyph unicode="q" d="M457 446l-25 66h-352l-25 -66q-21 -9 -23 -35v-54q0 -28 22 -35q6 -2 10 -2h19l29 -320h288l29 320h19q23 0 30 24q2 7 2 13v54q-1 27 -23 35zM96 480h320l11 -32h-342zM368 32h-224l-7 64h238zM379 128h-246l-10 96h266zM393 256h-274l-7 64h288zM448 352h-384v64h384 v-64z" />
<glyph unicode="r" d="M416 384h-4q-15 73 -80 108q-36 20 -76 20q-78 0 -126 -62q-22 -30 -30 -66h-4q-23 0 -30 -24q-2 -7 -2 -13v-54q0 -28 22 -35q6 -2 10 -2h4l28 -224q0 -24 22 -31q6 -1 10 -1h192q24 0 31 22q1 6 1 10l28 224h4q23 0 30 24q2 7 2 13v54q0 28 -22 35q-6 2 -10 2zM256 480 q67 0 105 -55q12 -20 18 -41h-246q15 60 71 85q25 11 52 11zM352 48q-2 -15 -16 -16h-160q-15 2 -16 16l-30 208h252zM416 309q-3 -18 -16 -21h-288q-13 5 -16 21v22q3 18 16 21h288q13 -5 16 -21v-22zM320 192h-128v-96h128v96zM288 128h-64v32h64v-32z" />
<glyph unicode="s" d="M224 96h-32v-32h32v32zM416 384h-4q-15 73 -80 108q-36 20 -76 20q-78 0 -126 -62q-22 -30 -30 -66h-4q-23 0 -30 -24q-2 -7 -2 -13v-54q0 -28 22 -35q6 -2 10 -2h4l28 -224q0 -24 22 -31q6 -1 10 -1h192q24 0 31 22q1 6 1 10l28 224h4q23 0 30 24q2 7 2 13v54 q0 28 -22 35q-6 2 -10 2zM256 480q67 0 105 -55q12 -20 18 -41h-246q15 60 71 85q25 11 52 11zM352 48q-2 -15 -16 -16h-160q-15 2 -16 16l-30 208h252zM416 309q-3 -18 -16 -21h-288q-13 5 -16 21v22q3 18 16 21h288q13 -5 16 -21v-22zM320 224h-32v-32h32v32zM288 64h32 v32h-32v-32zM224 192h-32v-32h32v32zM288 160h-32v-32h32v32z" />
<glyph unicode="t" d="M480 448v32h-416v-34l192 -254v-128h-48q-15 -2 -16 -16q2 -15 16 -16h128q15 2 16 16q-2 15 -16 16h-48v128zM272 224l-169 224h337z" />
<glyph unicode="u" d="M416 512q-53 0 -81 -45q-6 -10 -9 -19h-192l-43 64l-27 -16l32 -48h-64v-34l192 -254v-128h-48q-15 -2 -16 -16q2 -15 16 -16h128q15 2 16 16q-2 15 -16 16h-48v128l125 167q16 -7 35 -7q53 0 81 45q15 24 15 51q0 53 -45 81q-24 15 -51 15zM240 192l-169 224h47 l104 -156l28 16l-94 140h252zM416 352q-6 0 -15 2l47 62v32h-87q19 31 55 32q39 0 57 -35q7 -14 7 -29q0 -39 -35 -57q-14 -7 -29 -7z" />
<glyph unicode="v" d="M416 368q0 46 -68 68q-27 8 -60 11v33h96v32h-128v-64q-119 0 -151 -51q-9 -14 -9 -29v-2v-270q0 -56 68 -82q39 -14 92 -14q115 0 149 58q11 18 11 38v271v1zM384 96q0 -41 -61 -57q-29 -7 -67 -7q-105 0 -125 47q-3 9 -3 17v221q43 -29 128 -29q86 0 128 29v-221z M256 320q-115 0 -127 41q-1 4 -1 7q0 34 72 44q26 4 56 4v-64h32v63q93 -9 96 -47q0 -38 -85 -46q-20 -2 -43 -2z" />
<glyph unicode="w" d="M464 352h-48v64q0 39 -35 57q-14 7 -29 7h-256q-39 0 -57 -35q-7 -14 -7 -29v-320q0 -39 35 -57q14 -7 29 -7h256q39 0 57 35q7 14 7 29v32h48q32 0 44 29q4 9 4 19v128q0 30 -28 44q-10 4 -20 4zM384 96q0 -24 -22 -31q-6 -1 -10 -1h-256q-24 0 -31 22q-1 6 -1 10v320 q0 24 22 31q6 1 10 1h256q24 0 31 -22q1 -6 1 -10v-320zM480 176q-2 -15 -16 -16h-48v160h48q15 -2 16 -16v-128z" />
<glyph unicode="x" d="M96 128h32v256h-32v-256zM192 128h32v256h-32v-256zM448 384h-32v96q0 24 -22 31q-6 1 -10 1h-352q-24 0 -31 -22q-1 -6 -1 -10v-448q0 -24 22 -31q6 -1 10 -1h352q24 0 31 22q1 6 1 10v128h32q39 0 57 33q7 13 7 27v104q0 37 -35 53q-14 7 -29 7zM384 324v-276 q-2 -15 -16 -16h-320q-15 2 -16 16v416q2 15 16 16h320q15 -2 16 -16v-140zM480 221q0 -21 -22 -28q-6 -1 -10 -1h-32v160h32q24 0 31 -20q1 -5 1 -9v-102zM288 128h32v256h-32v-256z" />
<glyph unicode="y" d="M352 256q0 21 -8 37t-16 21l-8 6v192h-128v-192l-14 -11q-18 -22 -18 -53v-256h192v256zM224 480h64v-32h-64v32zM288 32h-96v224q0 14 8 22t16 9l8 1v128h64v-128l16 -4q15 -9 16 -28v-224h-32z" />
<glyph unicode="z" d="M336 352q15 2 16 16v64q-2 15 -16 16q-15 -2 -16 -16v-64q2 -15 16 -16zM272 352q15 2 16 16v96q-2 15 -16 16q-15 -2 -16 -16v-96q2 -15 16 -16zM432 32h-320q-15 -2 -16 -16q2 -15 16 -16h320q15 2 16 16q-2 15 -16 16zM240 64h64q70 0 99 64q13 29 13 64v128h-288 v-128q0 -78 53 -112q27 -16 59 -16zM160 288h224v-96q0 -68 -46 -89q-16 -7 -34 -7h-64q-57 0 -75 57q-5 19 -5 39v96zM208 352q15 2 16 16v64q-2 15 -16 16q-15 -2 -16 -16v-64q2 -15 16 -16z" />
<glyph unicode="{" d="M480 117l-117 287q-3 8 -11 11v1h-160h-32v-1q-9 -3 -11 -11l-117 -287q-2 -15 12 -19l156 -33q13 -5 18 8q1 2 1 3l37 90l37 -90q3 -14 16 -12q2 1 3 1l156 33q13 3 12 16v3zM429 120l-94 -16q-14 -3 -20 11l-59 134l-59 -134q-6 -14 -20 -11l-94 16q-14 3 -12 17 q1 2 1 3l79 180h57v32h-42l10 32h160l10 -32h-42v-32h57l79 -180q5 -14 -8 -19q-2 -1 -3 -1z" />
<glyph unicode="|" d="M352 448l-10 -28q-29 -51 -86 -52q-66 0 -92 66l-4 14l-160 -80l32 -128l96 16v-224h256v224l96 -16l32 128zM458 276l-106 12v-224h-192v224l-106 -12l-15 76l104 52q37 -67 113 -68q77 1 113 68l104 -52z" />
<glyph unicode="}" d="M448 178q-1 2 -1 3v1l-2 4l-29 84v98q-1 2 -1 3v1l-2 4l-25 59q-4 11 -18 13h-2h-54q-16 46 -63 60q-14 4 -27 4q-53 0 -81 -45q-6 -10 -9 -19h-54h-2q-15 -3 -18 -13l-25 -59l-2 -4v-1q-1 -2 -1 -3v-98l-29 -84q-1 -1 -2 -4v-1q-1 -2 -1 -3v-2v-160q1 -10 10 -15 q3 -1 6 -1h416q15 2 16 16v160v2zM320 416h38l26 -62v-66h-64v128zM224 480q36 -1 55 -32h-110q19 31 55 32zM160 416h128v-128h-128v128zM64 355l26 61h38v-128h-64v67zM128 32v64h192v-64h-192zM416 176v-144h-64v96h-256v-96h-64v144v1l28 79h68v-48q2 -15 16 -16 q15 2 16 16v48h128v-48q2 -15 16 -16q15 2 16 16v48h69l27 -79v-1z" />
<glyph unicode="~" d="M448 178q-1 2 -1 3v1l-2 4l-29 84v98q-1 2 -1 3v1l-2 4l-25 59q-4 11 -18 13h-2h-54q-16 46 -63 60q-14 4 -27 4q-53 0 -81 -45q-6 -10 -9 -19h-54h-2q-15 -3 -18 -13l-25 -59l-2 -4v-1q-1 -2 -1 -3v-98l-29 -84q-1 -1 -2 -4v-1q-1 -2 -1 -3v-2v-160q1 -10 10 -15 q3 -1 6 -1h416q15 2 16 16v160v2zM320 416h38l26 -62v-66h-64v128zM224 480q36 -1 55 -32h-110q19 31 55 32zM160 416h128v-128h-128v128zM64 355l26 61h38v-128h-64v67zM416 176v-144h-384v144v1l28 79h68v-48q2 -15 16 -16q15 2 16 16v48h128v-48q2 -15 16 -16q15 2 16 16 v48h69l27 -79v-1zM96 96h256v32h-256v-32z" />
<glyph unicode="&#xe000;" horiz-adv-x="510" d="M0 510h510v-510h-510v510z" />
<glyph unicode="&#xe001;" d="M480 448h-84q-37 56 -108 63q-8 1 -16 1q-74 0 -118 -55q-3 -5 -6 -9h-84q-23 0 -30 -22q-2 -6 -2 -11v-382q0 -23 21 -31q6 -2 11 -2h416q23 0 30 22q2 6 2 11v382q0 23 -21 31q-6 2 -11 2zM256 32h-176q-15 2 -16 17v350q3 14 16 17h53q-5 -17 -5 -32q0 -65 60 -103 q31 -20 68 -24v-225zM160 384q0 51 49 80q29 16 63 16q63 0 95 -46q17 -23 17 -50q0 -51 -49 -80q-29 -16 -63 -16q-63 0 -95 46q-17 23 -17 50zM480 49q-2 -16 -16 -17h-176v225q73 8 109 64q19 29 19 63q0 16 -5 32h53q15 -2 16 -17v-350zM320 192h128v32h-128v-32z" />
<glyph unicode="&#xe002;" d="M288 64h32v160h-32v-160zM272 512l-176 -144v-336q0 -24 22 -31q6 -1 10 -1h288q24 0 31 22q1 6 1 10v336zM416 48q-2 -15 -16 -16h-256q-15 2 -16 16v304l144 128l144 -128v-304zM224 64h32v160h-32v-160zM208 352q0 -39 35 -57q14 -7 29 -7q39 0 57 35q7 14 7 29 q0 39 -35 57q-14 7 -29 7q-39 0 -57 -35q-7 -14 -7 -29zM304 352q0 -24 -22 -31q-6 -1 -10 -1q-24 0 -31 22q-1 6 -1 10q0 24 22 31q6 1 10 1q24 0 31 -22q1 -6 1 -10z" />
<glyph unicode="&#xe003;" d="M184 145l22 -22l114 113l-23 23zM252 304l-114 -113l23 -23l113 113zM490 490l-224 22l-257 -257q-18 -17 -5 -38q3 -4 5 -7l201 -201q17 -17 39 -4q4 2 6 4l257 257zM244 43q-12 -9 -23 0l-179 178q-9 12 0 23l235 234l190 -11l11 -190zM333 423q-29 -29 -15 -67 q6 -13 15 -23q29 -28 67 -14q13 5 22 14q29 29 15 67q-6 13 -15 23q-28 28 -66 14q-13 -5 -23 -14zM400 356q-17 -18 -38 -5q-4 3 -7 5q-17 17 -5 38q3 4 5 6q18 18 39 5q4 -3 6 -5q17 -17 5 -38q-3 -4 -5 -6z" />
<glyph unicode="&#xe004;" d="M208 352q0 -39 35 -57q14 -7 29 -7q39 0 57 35q7 14 7 29q0 39 -35 57q-14 7 -29 7q-39 0 -57 -35q-7 -14 -7 -29zM304 352q0 -24 -22 -31q-6 -1 -10 -1q-24 0 -31 22q-1 6 -1 10q0 24 22 31q6 1 10 1q24 0 31 -22q1 -6 1 -10zM272 512l-176 -144v-336q0 -24 22 -31 q6 -1 10 -1h288q24 0 31 22q1 6 1 10v336zM416 48q-2 -15 -16 -16h-256q-15 2 -16 16v48h288v-48zM416 128h-288v224l144 128l144 -128v-224z" />
<glyph unicode="&#xe005;" d="M422 333q29 29 15 67q-6 13 -15 23q-28 28 -66 14q-13 -5 -23 -14q-29 -29 -15 -67q6 -13 15 -23q29 -28 67 -14q13 5 22 14zM355 400q18 18 39 5q4 -3 6 -5q17 -17 5 -38q-3 -4 -5 -6q-17 -18 -38 -5q-4 3 -7 5q-17 17 -5 38q3 4 5 6zM266 512l-257 -257q-18 -17 -5 -38 q3 -4 5 -7l201 -201q17 -17 39 -4q4 2 6 4l257 257v246h-246zM244 43q-12 -9 -23 0l-179 178q-9 12 0 23l34 33l201 -201zM478 277l-179 -178l-201 201l179 178l203 2z" />
<glyph unicode="&#xe006;" d="M192 64h160v32h-160v-32zM272 512l-176 -140v-340q0 -24 22 -31q6 -1 10 -1h288q24 0 31 22q1 6 1 10v340zM416 48q-2 -15 -16 -16h-256q-15 2 -16 16v308l144 124l144 -124v-308zM192 304q0 -45 39 -69q20 -11 41 -11q45 0 69 39q11 20 11 41q0 45 -39 69q-20 11 -41 11 q-45 0 -69 -39q-11 -20 -11 -41zM320 304q0 -32 -30 -44q-8 -4 -18 -4q-32 0 -44 29q-4 9 -4 19q0 32 29 44q10 4 19 4q32 0 44 -29q4 -9 4 -19z" />
<glyph unicode="&#xe007;" d="M98 210l112 -111l22 22l-111 112zM429 338q30 31 14 70q-5 12 -14 21q-29 29 -67 15q-14 -6 -24 -15q-30 -30 -14 -69q5 -13 14 -22q29 -29 67 -15q14 6 24 15zM362 407q17 18 38 5q4 -3 7 -5q18 -17 6 -38q-3 -4 -6 -7q-18 -18 -39 -5q-4 3 -6 5q-18 17 -6 38q3 4 6 7z M266 512l-257 -257q-18 -17 -5 -38q3 -4 5 -7l201 -201q17 -17 39 -4q4 2 6 4l257 257v246h-246zM478 277l-234 -234q-12 -9 -23 0l-179 178q-9 12 0 23l235 234l203 2z" />
<glyph unicode="&#xe008;" d="M422 160l-50 -54l-50 54l-25 -24l51 -56l-51 -56l25 -24l50 54l50 -54l25 24l-52 56l52 56zM320 352q0 39 -35 57q-14 7 -29 7q-39 0 -57 -35q-7 -14 -7 -29q0 -39 35 -57q14 -7 29 -7q39 0 57 35q7 14 7 29zM256 320q-24 0 -31 22q-1 6 -1 10q0 24 22 31q6 1 10 1 q24 0 31 -22q1 -6 1 -10q0 -24 -22 -31q-6 -1 -10 -1zM256 512l-192 -144v-336q0 -23 24 -30q5 -2 11 -2h157v32h-142q-15 3 -18 16v304l160 128l160 -128v-128h32v144z" />
<glyph unicode="&#xe009;" d="M96 48v304l160 128l160 -128v-128h32v144l-192 144l-192 -144v-336q0 -23 24 -30q5 -2 11 -2h157v32h-142q-15 3 -18 16zM455 160l-101 -111l-49 47l-25 -24l75 -72v0l2 2l22 23l101 111zM320 352q0 39 -35 57q-14 7 -29 7q-39 0 -57 -35q-7 -14 -7 -29q0 -39 35 -57 q14 -7 29 -7q39 0 57 35q7 14 7 29zM256 320q-24 0 -31 22q-1 6 -1 10q0 24 22 31q6 1 10 1q24 0 31 -22q1 -6 1 -10q0 -24 -22 -31q-6 -1 -10 -1z" />
<glyph unicode="&#xe00a;" d="M256 96h160v32h-160v-32zM320 352q0 39 -35 57q-14 7 -29 7q-39 0 -57 -35q-7 -14 -7 -29q0 -39 35 -57q14 -7 29 -7q39 0 57 35q7 14 7 29zM224 352q0 24 22 31q6 1 10 1q24 0 31 -22q1 -6 1 -10q0 -24 -22 -31q-6 -1 -10 -1q-24 0 -31 22q-1 6 -1 10zM256 512 l-192 -144v-336q0 -23 24 -30q5 -2 11 -2h157v32h-142q-15 3 -18 16v304l160 128l160 -128v-128h32v144z" />
<glyph unicode="&#xe00b;" d="M256 512l-192 -144v-336q0 -23 24 -30q5 -2 11 -2h157v32h-142q-15 3 -18 16v304l160 128l160 -128v-128h32v144zM352 192h-32v-64h-64v-32h64v-64h32v64h64v32h-64v64zM320 352q0 39 -35 57q-14 7 -29 7q-39 0 -57 -35q-7 -14 -7 -29q0 -39 35 -57q14 -7 29 -7 q39 0 57 35q7 14 7 29zM224 352q0 24 22 31q6 1 10 1q24 0 31 -22q1 -6 1 -10q0 -24 -22 -31q-6 -1 -10 -1q-24 0 -31 22q-1 6 -1 10z" />
<glyph unicode="&#xe00c;" d="M272 512l-176 -144v-336q0 -24 22 -31q6 -1 10 -1h288q24 0 31 22q1 6 1 10v336zM416 48q-2 -15 -16 -16h-256q-15 2 -16 16v304l144 128l144 -128v-304zM208 352q0 -39 35 -57q14 -7 29 -7q39 0 57 35q7 14 7 29q0 39 -35 57q-14 7 -29 7q-39 0 -57 -35q-7 -14 -7 -29z M304 352q0 -24 -22 -31q-6 -1 -10 -1q-24 0 -31 22q-1 6 -1 10q0 24 22 31q6 1 10 1q24 0 31 -22q1 -6 1 -10z" />
<glyph unicode="&#xe00d;" d="M480 384v96q0 24 -22 31q-6 1 -10 1l-384 -128q-24 0 -31 -22q-1 -6 -1 -10v-320q0 -24 22 -31q6 -1 10 -1h416q24 0 31 22q1 6 1 10v320q0 24 -22 31q-6 1 -10 1zM432 480q15 -2 16 -16v-80h-280zM480 160h-64v32h64v-32zM480 224h-96v-96h96v-80q-2 -15 -16 -16h-384 q-15 2 -16 16v288q2 15 16 16h384q15 -2 16 -16v-112z" />
<glyph unicode="&#xe00e;" d="M480 384h-64v73q0 35 -31 50q-10 5 -22 5h-311q-33 0 -47 -32q-3 -8 -4 -16h-1v-432q0 -24 22 -31q6 -1 10 -1h448q24 0 31 22q1 6 1 10v320q0 24 -22 31q-6 1 -10 1zM32 416v48q2 15 16 16h320q15 -2 16 -16v-80h-352v32zM480 48q-2 -15 -16 -16h-416q-15 2 -16 16v288 q2 15 16 16h416q15 -2 16 -16v-288zM400 256q-32 0 -44 -29q-4 -10 -4 -19q0 -32 29 -44q9 -4 19 -4q30 0 44 28q4 10 4 20q0 32 -30 44q-8 4 -18 4zM400 192q-15 2 -16 16q2 15 16 16q15 -2 16 -16q-2 -15 -16 -16z" />
<glyph unicode="&#xe00f;" d="M439 304q9 18 9 32q0 52 -69 86q-54 26 -123 26q-103 0 -160 -50q-31 -29 -32 -62q0 -15 9 -32q-9 -18 -9 -32q0 -15 9 -32q-9 -18 -9 -32q0 -15 9 -32q-9 -18 -9 -32q0 -52 69 -86q54 -26 123 -26q103 0 160 50q31 29 32 62q0 15 -9 32q9 18 9 32q0 15 -9 32q9 18 9 32 q0 15 -9 32zM256 64q-92 0 -138 40q-21 19 -22 40v2q59 -50 160 -50q102 1 160 50v-2q0 -38 -61 -63q-43 -17 -99 -17zM256 128q-92 0 -138 40q-21 19 -22 40v2q59 -50 160 -50q102 1 160 50v-2q0 -38 -61 -63q-43 -17 -99 -17zM256 192q-92 0 -138 40q-21 19 -22 40v2 q59 -50 160 -50q102 1 160 50v-2q0 -38 -61 -63q-43 -17 -99 -17zM256 256q-92 0 -138 40q-21 19 -22 40q0 38 61 63q44 17 99 17q92 0 138 -40q21 -19 22 -40q0 -38 -61 -63q-44 -17 -99 -17z" />
<glyph unicode="&#xe010;" d="M448 384q0 45 -69 74q-54 22 -123 22q-107 0 -163 -46q-28 -23 -29 -50v-288v-18q15 -45 100 -67q43 -11 92 -11q108 0 165 44q21 16 27 34v306zM416 96q0 -31 -63 -51q-44 -13 -97 -13q-97 0 -142 35q-18 14 -18 29v43q57 -43 160 -43q104 0 160 43v-43zM416 192 q0 -31 -63 -51q-44 -13 -97 -13q-97 0 -142 35q-18 14 -18 29v43q57 -43 160 -43q104 0 160 43v-43zM416 288q0 -31 -63 -51q-44 -13 -97 -13q-97 0 -142 35q-18 14 -18 29v43q57 -43 160 -43q104 0 160 43v-43zM256 320q-97 0 -142 35q-18 14 -18 29q0 31 63 51 q44 13 97 13q97 0 142 -35q18 -14 18 -29q0 -31 -63 -51q-44 -13 -97 -13z" />
<glyph unicode="&#xe011;" d="M416 192v224q0 24 -22 31q-6 1 -10 1h-352q-24 0 -31 -22q-1 -6 -1 -10v-224q0 -24 22 -31q6 -1 10 -1h352q24 0 31 22q1 6 1 10zM368 192h-320q-15 2 -16 16v192q2 15 16 16h320q15 -2 16 -16v-192q-2 -15 -16 -16zM480 352h-32v-32h16q15 -2 16 -16v-192 q-2 -15 -16 -16h-320q-15 2 -16 16v16h-32v-32q0 -24 22 -31q6 -1 10 -1h352q24 0 31 22q1 6 1 10v224q0 24 -22 31q-6 1 -10 1zM208 384q-45 0 -69 -39q-11 -20 -11 -41q0 -45 39 -69q20 -11 41 -11q45 0 69 39q11 20 11 41q0 45 -39 69q-20 11 -41 11zM208 256 q-32 0 -44 29q-4 10 -4 19q0 32 29 44q10 4 19 4q30 0 44 -28q4 -10 4 -20q0 -32 -30 -44q-8 -4 -18 -4z" />
<glyph unicode="&#xe012;" d="M188 322q3 16 22 18l31 -13l11 22l-15 10q-10 4 -20 5v20h-17v-20q-31 -6 -37 -33q-1 -5 -1 -9q0 -26 35 -43q29 -13 32 -20q1 -3 1 -5q-2 -17 -21 -18q-9 0 -17.5 4t-13.5 8l-4 3l-14 -20l15 -12q12 -6 25 -8v-19h17v19q31 4 38 33q1 5 1 10q0 27 -35 43q-29 13 -32 20 q-1 3 -1 5zM416 160v256q0 24 -22 31q-6 1 -10 1h-352q-24 0 -31 -22q-1 -6 -1 -10v-256q0 -24 22 -31q6 -1 10 -1h352q24 0 31 22q1 6 1 10zM368 160h-320q-15 2 -16 16v224q2 15 16 16h320q15 -2 16 -16v-224q-2 -15 -16 -16zM480 352h-32v-32h16q15 -2 16 -16v-224 q-2 -15 -16 -16h-320q-15 2 -16 16v16h-32v-32q0 -24 22 -31q6 -1 10 -1h352q24 0 31 22q1 6 1 10v256q0 24 -22 31q-6 1 -10 1z" />
<glyph unicode="&#xe013;" d="M32 288h-32v-64h32v64zM448 512h-384q-39 0 -57 -35q-7 -14 -7 -29v-96h32v96q0 24 22 31q6 1 10 1h384q24 0 31 -22q1 -6 1 -10v-384q0 -24 -22 -31q-6 -1 -10 -1h-384q-24 0 -31 22q-1 6 -1 10v96h-32v-96q0 -39 35 -57q14 -7 29 -7h384q39 0 57 35q7 14 7 29v384 q0 39 -35 57q-14 7 -29 7zM256 128q66 0 104 54q24 34 24 74q0 66 -54 104q-34 24 -74 24q-66 0 -104 -54q-24 -34 -24 -74q0 -66 54 -104q34 -24 74 -24zM256 352q53 0 81 -45q15 -24 15 -51q0 -53 -45 -81q-24 -15 -51 -15q-53 0 -81 45q-15 24 -15 51q0 53 45 81 q24 15 51 15zM416 64q24 0 31 22q1 6 1 10v320q0 24 -22 31q-6 1 -10 1h-320q-24 0 -31 -22q-1 -6 -1 -10v-320q0 -24 22 -31q6 -1 10 -1h320zM96 400q2 15 16 16h288q15 -2 16 -16v-288q-2 -15 -16 -16h-288q-15 2 -16 16v288z" />
<glyph unicode="&#xe014;" d="M192 160h-128v-32h128v32zM320 160h-96v-32h96v32zM0 256v-160q0 -39 35 -57q14 -7 29 -7h384q39 0 57 35q7 14 7 29v192h-512v-32zM32 256h448v-160q0 -24 -22 -31q-6 -1 -10 -1h-384q-24 0 -31 22q-1 6 -1 10v160zM448 480h-384q-39 0 -57 -35q-7 -14 -7 -29v-64h512 v64q0 39 -35 57q-14 7 -29 7zM480 384h-448v32q0 24 22 31q6 1 10 1h384q24 0 31 -22q1 -6 1 -10v-32z" />
<glyph unicode="&#xe015;" d="M192 160h-128v-32h128v32zM320 160h-96v-32h96v32zM448 480h-384q-39 0 -57 -35q-7 -14 -7 -29v-320q0 -39 35 -57q14 -7 29 -7h384q39 0 57 35q7 14 7 29v320q0 39 -35 57q-14 7 -29 7zM480 96q0 -24 -22 -31q-6 -1 -10 -1h-384q-24 0 -31 22q-1 6 -1 10v160h448v-160z M480 288h-448v64h448v-64zM480 384h-448v32q0 24 22 31q6 1 10 1h384q24 0 31 -22q1 -6 1 -10v-32z" />
<glyph unicode="&#xe016;" d="M192 160h-128v-32h128v32zM0 256v-160q0 -39 35 -57q14 -7 29 -7h384q39 0 57 35q7 14 7 29v192h-512v-32zM32 256h448v-160q0 -24 -22 -31q-6 -1 -10 -1h-384q-24 0 -31 22q-1 6 -1 10v160zM448 480h-384q-39 0 -57 -35q-7 -14 -7 -29v-64h512v64q0 39 -35 57 q-14 7 -29 7zM480 384h-448v32q0 24 22 31q6 1 10 1h384q24 0 31 -22q1 -6 1 -10v-32z" />
<glyph unicode="&#xe017;" d="M512 448q0 39 -35 57q-14 7 -29 7h-384q-39 0 -57 -35q-7 -14 -7 -29v-32q0 -7 2 -16q-2 -10 -2 -16v-320q0 -39 35 -57q14 -7 29 -7h384q39 0 57 35q7 14 7 29v320q0 7 -2 16q2 10 2 16v32zM480 64q0 -24 -22 -31q-6 -1 -10 -1h-384q-24 0 -31 22q-1 6 -1 10v297 q14 -9 32 -9h384q19 1 32 9v-297zM480 416q0 -24 -22 -31q-6 -1 -10 -1h-384q-24 0 -31 22q-1 6 -1 10v32q0 24 22 31q6 1 10 1h384q24 0 31 -22q1 -6 1 -10v-32zM432 288h-64q-15 -2 -16 -16q2 -15 16 -16h16q0 -66 -54 -104q-34 -24 -74 -24q-66 0 -104 54q-24 34 -24 74 h16q15 2 16 16q-2 15 -16 16h-64q-15 -2 -16 -16q2 -15 16 -16h16q0 -77 61 -125q43 -35 99 -35q77 0 125 61q35 43 35 99h16q15 2 16 16q-2 15 -16 16z" />
<glyph unicode="&#xe018;" d="M284 380q-2 1 -4 1q-3 2 -5 2q-10 2 -16 -3l-95 -95q-8 -11 0 -23q12 -10 24 0l68 67v-249q2 -15 16 -16q15 2 16 16v248l67 -66q12 -10 24 0q8 11 0 23zM400 448h-256q-15 -2 -16 -16q2 -15 16 -16h256q15 2 16 16q-2 15 -16 16zM416 512h-288q-53 0 -81 -45 q-15 -24 -15 -51v-320q0 -53 45 -81q24 -15 51 -15h288q53 0 81 45q15 24 15 51v320q0 53 -45 81q-24 15 -51 15zM480 96q0 -39 -35 -57q-14 -7 -29 -7h-288q-39 0 -57 35q-7 14 -7 29v320q0 39 35 57q14 7 29 7h288q39 0 57 -35q7 -14 7 -29v-320z" />
<glyph unicode="&#xe019;" d="M400 96h-256q-15 -2 -16 -16q2 -15 16 -16h256q15 2 16 16q-2 15 -16 16zM259 133l1 -1h2q6 -4 10 -4q7 1 12 5l95 95q8 11 0 23q-12 10 -24 0l-67 -66v247q-2 15 -16 16q-15 -2 -16 -16v-248l-68 67q-12 10 -24 0q-8 -11 0 -23zM416 512h-288q-53 0 -81 -45 q-15 -24 -15 -51v-320q0 -53 45 -81q24 -15 51 -15h288q53 0 81 45q15 24 15 51v320q0 53 -45 81q-24 15 -51 15zM480 96q0 -39 -35 -57q-14 -7 -29 -7h-288q-39 0 -57 35q-7 14 -7 29v320q0 39 35 57q14 7 29 7h288q39 0 57 -35q7 -14 7 -29v-320z" />
<glyph unicode="&#xe01a;" d="M478 329q3 9 0 15l-78 160q-5 6 -13 7q-2 1 -3 1h-256q-2 -1 -3 -1q-9 -1 -13 -7l-78 -160q-3 -7 0 -15q-2 -6 -2 -9v-288q0 -24 22 -31q6 -1 10 -1h384q24 0 31 22q1 6 1 10v288q0 4 -2 9zM374 480l62 -128h-121l-22 128h81zM256 480l32 -128h-64zM224 320h64v-128h-64 v128zM138 480h81l-22 -128h-121zM448 48q-2 -15 -16 -16h-352q-15 2 -16 16v256q2 15 16 16h112v-160h128v160h112q15 -2 16 -16v-256z" />
<glyph unicode="&#xe01b;" d="M478 329q3 9 0 15l-78 160q-5 6 -13 7q-2 1 -3 1h-256q-2 -1 -3 -1q-9 -1 -13 -7l-78 -160q-3 -7 0 -15q-2 -6 -2 -9v-288q0 -24 22 -31q6 -1 10 -1h384q24 0 31 22q1 6 1 10v288q0 4 -2 9zM374 480l62 -128h-121l-22 128h81zM256 480l32 -128h-64zM224 320h64v-128h-64 v128zM138 480h81l-22 -128h-121zM448 48q-2 -15 -16 -16h-352q-15 2 -16 16v256q2 15 16 16h112v-160h128v160h112q15 -2 16 -16v-256zM192 64h32v32h-32v-32zM96 64h64v32h-64v-32z" />
<glyph unicode="&#xe01c;" d="M375 416q9 14 9 32q0 39 -35 57q-14 7 -29 7q-28 -1 -48 -22q-21 21 -48 22q-39 0 -57 -35q-7 -14 -7 -29q1 -19 9 -32h-137v-96h32v-320h416v320h32v96h-137zM320 480q24 0 31 -22q1 -6 1 -10q0 -24 -22 -31q-6 -1 -10 -1q-24 0 -31 22q-1 6 -1 10q0 24 22 31q6 1 10 1z M224 480q24 0 31 -22q1 -6 1 -10q0 -24 -22 -31q-6 -1 -10 -1q-24 0 -31 22q-1 6 -1 10q0 24 22 31q6 1 10 1zM256 32h-160v128h160v-128zM256 192h-160v128h160v-128zM448 32h-160v128h160v-128zM448 192h-160v128h160v-128zM480 352h-416v32h416v-32z" />
<glyph unicode="&#xe01d;" d="M448 448h-384q-39 0 -57 -35q-7 -14 -7 -29v-288q0 -39 35 -57q14 -7 29 -7h384q39 0 57 35q7 14 7 29v288q0 39 -35 57q-14 7 -29 7zM480 96q0 -24 -22 -31q-6 -1 -10 -1h-384q-24 0 -31 22q-1 6 -1 10v288q0 24 22 31q6 1 10 1h384q24 0 31 -22q1 -6 1 -10v-288z M304 384q-26 0 -48 -9q-22 9 -48 9q-73 0 -116 -59q-28 -38 -28 -85q0 -73 58 -116q39 -28 86 -28q26 0 48 9q22 -9 48 -9q71 0 115 57q29 38 29 87q0 71 -57 115q-40 29 -87 29zM208 128q-60 0 -93 49q-19 29 -19 63q0 60 49 93q29 19 63 19h3q2 -1 3 -1q-53 -43 -54 -111 q1 -68 54 -111q-3 -1 -6 -1zM304 128q-60 0 -93 49q-19 29 -19 63q0 60 49 93q29 19 63 19q60 0 93 -49q19 -29 19 -63q0 -60 -49 -93q-29 -19 -63 -19z" />
<glyph unicode="&#xe01e;" d="M448 448h-384q-39 0 -57 -35q-7 -14 -7 -29v-288q0 -39 35 -57q14 -7 29 -7h384q39 0 57 35q7 14 7 29v288q0 39 -35 57q-14 7 -29 7zM480 96q0 -24 -22 -31q-6 -1 -10 -1h-88l120 120v-88zM480 232l-168 -168h-248q-24 0 -31 22q-1 6 -1 10v288q0 24 22 31q6 1 10 1h384 q24 0 31 -22q1 -6 1 -10v-152zM256 352q-53 0 -81 -45q-15 -24 -15 -51q0 -53 45 -81q24 -15 51 -15q53 0 81 45q15 24 15 51q0 53 -45 81q-24 15 -51 15zM256 192q-39 0 -57 35q-7 14 -7 29q0 39 35 57q14 7 29 7q39 0 57 -35q7 -14 7 -29q0 -39 -35 -57q-14 -7 -29 -7z " />
<glyph unicode="&#xe01f;" d="M416 416h-64v16q0 45 -39 69q-20 11 -41 11h-32q-45 0 -69 -39q-11 -20 -11 -41v-16h-64q-24 0 -31 -22q-1 -6 -1 -10v-352q0 -24 22 -31q6 -1 10 -1h320q24 0 31 22q1 6 1 10v352q0 24 -22 31q-6 1 -10 1zM192 432q0 32 29 44q10 4 19 4h32q32 0 44 -30q4 -8 4 -18v-16 h-128v16zM416 48q-2 -15 -16 -16h-288q-15 2 -16 16v48h320v-48zM416 128h-320v240q2 15 16 16h48v-64h32v64h128v-64h32v64h48q15 -2 16 -16v-240z" />
<glyph unicode="&#xe020;" d="M416 448h-66q-8 42 -48 58q-15 6 -30 6h-32q-46 0 -69 -39q-6 -13 -9 -25h-66q-24 0 -31 -22q-1 -6 -1 -10v-384q0 -24 22 -31q6 -1 10 -1h320q24 0 31 22q1 6 1 10v384q0 24 -22 31q-6 1 -10 1zM240 480h32q33 -1 45 -32h-122q13 31 45 32zM416 48q-2 -15 -16 -16h-288 q-15 2 -16 16v48h320v-48zM416 128h-320v272q2 15 16 16h48v-96h32v96h128v-96h32v96h48q15 -2 16 -16v-272z" />
<glyph unicode="&#xe021;" d="M160 64q-24 0 -31 -22q-1 -6 -1 -10q0 -24 22 -31q6 -1 10 -1q24 0 31 22q1 6 1 10q0 24 -22 31q-6 1 -10 1zM384 64q-24 0 -31 -22q-1 -6 -1 -10q0 -24 22 -31q6 -1 10 -1q24 0 31 22q1 6 1 10q0 24 -22 31q-6 1 -10 1zM480 192q24 0 31 22q1 6 1 10v256q0 24 -22 31 q-6 1 -10 1h-480v-32h64v-384h448v32h-416v64h384zM96 464q2 15 16 16h352q15 -2 16 -16v-224q-2 -15 -16 -16h-352q-15 2 -16 16v224z" />
<glyph unicode="&#xe022;" d="M160 64q-24 0 -31 -22q-1 -6 -1 -10q0 -24 22 -31q6 -1 10 -1q24 0 31 22q1 6 1 10q0 24 -22 31q-6 1 -10 1zM384 64q-24 0 -31 -22q-1 -6 -1 -10q0 -24 22 -31q6 -1 10 -1q24 0 31 22q1 6 1 10q0 24 -22 31q-6 1 -10 1zM448 192q24 0 31 22q1 6 1 10l32 256q0 24 -22 31 q-6 1 -10 1h-480v-32h64v-384h416v32h-384v64h352zM96 464q2 15 16 16h352q15 -2 16 -16l-32 -224q-2 -15 -16 -16h-320q-15 2 -16 16v224z" />
<glyph unicode="&#xe023;" d="M229 379q-8 -11 0 -23l63 -63h1q4 -5 11 -5h2q6 2 8 4l2 1l63 63q10 11 0 23q-11 10 -23 0l-36 -36v153q-2 15 -16 16q-15 -2 -16 -16v-152l-35 35q-12 10 -24 0zM288 64q0 -39 35 -57q14 -7 29 -7q39 0 57 35q7 14 7 29q0 39 -35 57q-14 7 -29 7q-39 0 -57 -35 q-7 -14 -7 -29zM352 96q24 0 31 -22q1 -6 1 -10q0 -24 -22 -31q-6 -1 -10 -1q-24 0 -31 22q-1 6 -1 10q0 24 22 31q6 1 10 1zM512 433l-1 2q0 4 -1 5h-1q-2 3 -3 4l-1 1l-5 2l-1 1h-2h-1h-3h-1h-140v-32h122l-39 -161l-339 -31v192h160v32h-160v32h16q15 2 16 16 q-2 15 -16 16h-96q-15 -2 -16 -16q2 -15 16 -16h48v-336q2 -15 16 -16h400q15 2 16 16q-2 15 -16 16h-384v33l348 32l1 -1q15 -2 21 12l45 191l1 1v2v2v1zM96 64q0 -39 35 -57q14 -7 29 -7q39 0 57 35q7 14 7 29q0 39 -35 57q-14 7 -29 7q-39 0 -57 -35q-7 -14 -7 -29z M160 96q24 0 31 -22q1 -6 1 -10q0 -24 -22 -31q-6 -1 -10 -1q-24 0 -31 22q-1 6 -1 10q0 24 22 31q6 1 10 1z" />
<glyph unicode="&#xe024;" d="M288 64q0 -39 35 -57q14 -7 29 -7q39 0 57 35q7 14 7 29q0 39 -35 57q-14 7 -29 7q-39 0 -57 -35q-7 -14 -7 -29zM352 96q24 0 31 -22q1 -6 1 -10q0 -24 -22 -31q-6 -1 -10 -1q-24 0 -31 22q-1 6 -1 10q0 24 22 31q6 1 10 1zM96 64q0 -39 35 -57q14 -7 29 -7q39 0 57 35 q7 14 7 29q0 39 -35 57q-14 7 -29 7q-39 0 -57 -35q-7 -14 -7 -29zM160 96q24 0 31 -22q1 -6 1 -10q0 -24 -22 -31q-6 -1 -10 -1q-24 0 -31 22q-1 6 -1 10q0 24 22 31q6 1 10 1zM512 433l-1 2q0 4 -1 5h-1q-2 3 -3 4l-1 1l-5 2l-1 1h-2h-1h-3h-1h-91l-92 54q-19 19 -41 4 q-3 -2 -5 -4l-75 -54h-92v32h16q15 2 16 16q-2 15 -16 16h-96q-15 -2 -16 -16q2 -15 16 -16h48v-336q2 -15 16 -16h400q15 2 16 16q-2 15 -16 16h-384v33l348 32l1 -1q15 -2 21 12l45 191l1 1v2v2v1zM286 479l53 -31h-99zM435 255l-339 -31v192h378z" />
<glyph unicode="&#xe025;" d="M288 64q0 -39 35 -57q14 -7 29 -7q39 0 57 35q7 14 7 29q0 39 -35 57q-14 7 -29 7q-39 0 -57 -35q-7 -14 -7 -29zM352 96q24 0 31 -22q1 -6 1 -10q0 -24 -22 -31q-6 -1 -10 -1q-24 0 -31 22q-1 6 -1 10q0 24 22 31q6 1 10 1zM512 433l-1 2q0 4 -1 5h-1q-2 3 -3 4l-1 1 l-5 2l-1 1h-2h-1h-3h-1h-396v32h16q15 2 16 16q-2 15 -16 16h-96q-15 -2 -16 -16q2 -15 16 -16h48v-336q2 -15 16 -16h400q15 2 16 16q-2 15 -16 16h-384v33l349 31q15 -2 21 12l45 191l1 1v2v2v1zM435 255l-339 -31v192h378zM96 64q0 -39 35 -57q14 -7 29 -7q39 0 57 35 q7 14 7 29q0 39 -35 57q-14 7 -29 7q-39 0 -57 -35q-7 -14 -7 -29zM160 96q24 0 31 -22q1 -6 1 -10q0 -24 -22 -31q-6 -1 -10 -1q-24 0 -31 22q-1 6 -1 10q0 24 22 31q6 1 10 1z" />
<glyph unicode="&#xe026;" d="M229 283q-8 -11 0 -23l63 -63h1q4 -5 11 -5h2q6 2 8 4l2 1l63 63q10 11 0 23q-11 10 -23 0l-36 -36v153q-2 15 -16 16q-15 -2 -16 -16v-152l-35 35q-12 10 -24 0zM256 32q0 -24 -22 -31q-6 -1 -10 -1q-24 0 -31 22q-1 6 -1 10q0 24 22 31q6 1 10 1q24 0 31 -22 q1 -6 1 -10zM416 32q0 -24 -22 -31q-6 -1 -10 -1q-24 0 -31 22q-1 6 -1 10q0 24 22 31q6 1 10 1q24 0 31 -22q1 -6 1 -10zM512 334v2q0 3 -2 7q-1 2 -2 3q-3 3 -6 5l-1 1h-5v0h-1h-143v-32h124l-56 -192h-212q-2 -1 -3 -1l-45 193h96v32h-103l-26 109q1 2 1 3q-1 12 -13 15 q-2 1 -3 1h-96q-15 -2 -16 -16q2 -15 16 -16h83l79 -340q4 -11 14 -12h240h2q13 5 14 16v2l64 218v2z" />
<glyph unicode="&#xe027;" d="M256 32q-24 0 -31 -22q-1 -6 -1 -10q0 -24 22 -31q6 -1 10 -1q24 0 31 22q1 6 1 10q0 24 -22 31q-6 1 -10 1zM544 302v2q0 3 -2 7q-1 2 -2 3q-3 3 -6 5l-1 1h-5v0h-1h-57l-98 86q-17 18 -38 5q-4 -3 -7 -5l-87 -86h-55l-26 109q1 2 1 3q-1 12 -13 15q-2 1 -3 1h-96 q-15 -2 -16 -16q2 -15 16 -16h83l79 -340q6 -14 19 -12l3 3q4 -3 8 -3h224h3q12 5 13 16v2l64 218v2zM350 383l71 -63h-133zM452 96h-212q-2 -1 -3 -1l-45 193h316zM416 32q-24 0 -31 -22q-1 -6 -1 -10q0 -24 22 -31q6 -1 10 -1q24 0 31 22q1 6 1 10q0 24 -22 31q-6 1 -10 1 z" />
<glyph unicode="&#xe028;" d="M256 32q0 -24 -22 -31q-6 -1 -10 -1q-24 0 -31 22q-1 6 -1 10q0 24 22 31q6 1 10 1q24 0 31 -22q1 -6 1 -10zM512 336q0 3 -2 7q-1 2 -2 3q-3 3 -6 5l-1 1h-5v0h-1h-342l-26 109q3 3 -6 13q-4 4 -7 5q-1 1 -2 1h-96q-15 -2 -16 -16q2 -15 16 -16h83l79 -340q5 -11 15 -12 h239h3q2 1 4.5 3.5t4.5 6t3 6.5l1 2l64 218v2v2zM420 128l-215 -1l-45 193h316zM416 32q0 -24 -22 -31q-6 -1 -10 -1q-24 0 -31 22q-1 6 -1 10q0 24 22 31q6 1 10 1q24 0 31 -22q1 -6 1 -10z" />
<glyph unicode="&#xe029;" d="M496 352h-96l38 64h42v32l-64 -5l-54 -91h-212l-54 91l-64 5v-32h42l38 -64h-96q-15 -2 -16 -16q2 -15 16 -16h19l29 -288h384l29 288h19q15 2 16 16q-2 15 -16 16zM160 64h-64l-8 64h72v-64zM160 160h-76l-8 64h84v-64zM160 256h-88l-8 64h96v-64zM320 64h-128v64h128 v-64zM320 160h-128v64h128v-64zM320 256h-128v64h128v-64zM416 64h-64v64h72zM428 160h-76v64h84zM440 256h-88v64h96z" />
<glyph unicode="&#xe02a;" d="M512 320l-64 192h-384l-64 -192q1 -47 32 -77v-243h448v238q32 25 32 82zM85 480h342l42 -128h-426zM448 32h-384v64h384v-64zM448 128h-384v98q10 -2 15 -2q41 1 65 32q22 -31 56 -32q32 1 56 32q25 -31 56 -32q35 1 56 32q25 -31 64 -32q7 0 16 2v-98zM433 256 q-22 0 -34 8t-13 16l-2 8h-32l-4 -15q-11 -16 -36 -17q-18 0 -27.5 8t-10.5 16l-1 8h-34l-3 -14q-11 -17 -36 -18q-36 3 -40 32h-32q-10 -31 -49 -32q-25 0 -42 46q-3 10 -5 18h448l-4 -28q-13 -35 -43 -36z" />
<glyph unicode="&#xe02b;" d="M390 480q3 -19 3 -38q0 -128 -94 -219q-96 -92 -229 -92q-30 0 -70 7q52 -92 154 -125q42 -13 86 -13q118 0 199 83q73 76 73 179q0 113 -86 191q-17 15 -36 27zM240 33q-97 1 -167 65q145 2 248 100q90 87 104 208q53 -63 53 -144q0 -102 -79 -170q-68 -59 -159 -59z " />
<glyph unicode="&#xe02c;" d="M256 256q0 100 75 167q51 45 117 54q-61 35 -128 35q-111 0 -187 -82q-69 -74 -69 -174q0 -111 82 -187q74 -69 174 -69q68 1 128 35q-96 13 -152 93q-40 58 -40 128zM320 32q-101 0 -168 76q-56 64 -56 148q0 100 74 167q65 57 150 57q12 0 33 -2q-90 -52 -119 -150 q-10 -36 -10 -72q0 -109 80 -185q23 -22 49 -37q-22 -2 -33 -2z" />
<glyph unicode="&#xe02d;" d="M304 96h-224q-15 -2 -16 -16q2 -15 16 -16h224q15 2 16 16q-2 15 -16 16zM272 32h-160q-15 -2 -16 -16q2 -15 16 -16h160q15 2 16 16q-2 15 -16 16zM266 160q-10 34 -10 64q0 100 75 167q51 45 117 54q-61 35 -128 35q-111 0 -187 -82q-69 -74 -69 -174q0 -32 8 -64h-72 v-32h512v32h-246zM106 160q-10 34 -10 64q0 100 74 167q65 57 150 57q12 0 33 -2q-90 -52 -119 -150q-10 -36 -10 -72q0 -31 8 -64h-126z" />
<glyph unicode="&#xe02e;" d="M381 224h-349v-32h349q41 0 59 -36q7 -14 7 -28q0 -39 -35 -57q-15 -7 -31 -7h-29v-32h29q55 0 84 45q15 24 15 51q0 53 -46 81q-25 15 -53 15zM384 352h-224v-32h224v32zM480 352q0 53 -46 81q-24 14 -50 15v-32q41 -2 57 -38q6 -13 6 -26q0 -40 -37 -57q-13 -6 -26 -7 h-288v-32h285q55 0 84 45q15 24 15 51zM64 128h192v32h-192v-32z" />
<glyph unicode="&#xe02f;" d="M384 224h-320v-32h320q39 0 57 -35q7 -14 7 -29q0 -39 -35 -57q-14 -7 -29 -7h-32v-32h32q53 0 81 45q15 24 15 51q0 53 -45 81q-24 15 -51 15zM480 352q0 53 -45 81q-24 15 -51 15v-32q39 0 57 -35q7 -14 7 -29q0 -39 -35 -57q-14 -7 -29 -7h-288v-32h288q53 0 81 45 q15 24 15 51zM384 352h-224v-32h224v32zM256 160h-128v-32h128q24 0 31 -22q1 -6 1 -10q0 -24 -22 -31q-6 -1 -10 -1v-32q39 0 57 35q7 14 7 29q0 39 -35 57q-14 7 -29 7z" />
<glyph unicode="&#xe030;" d="M333 383q-36 71 -111 91q-23 6 -46 6q-84 0 -137 -65q-39 -49 -39 -111q0 -45 22 -85q-22 -35 -22 -75q0 -73 58 -116q39 -28 86 -28h176q90 0 147 69q45 54 45 123q0 90 -70 148q-48 38 -109 43zM176 448q73 0 117 -60q2 -4 4 -6q-85 -11 -134 -80q-5 -8 -9 -15 q-2 0 -5 0.5t-5 0.5q-58 -1 -100 -41q-12 31 -12 57q0 71 57 115q39 29 87 29zM352 32h-224q-56 8 -83 59q-13 26 -13 53q0 60 49 93q29 19 63 19q11 0 28 -4q27 67 95 91q26 9 53 9q77 0 125 -61q35 -43 35 -99q0 -77 -60 -127q-31 -25 -68 -33z" />
<glyph unicode="&#xe031;" d="M320 448q-90 0 -147 -69q-11 -14 -19 -28q-2 0 -5 0.5t-5 0.5q-73 0 -116 -59q-28 -38 -28 -85q0 -73 58 -116q39 -28 86 -28h176q90 0 147 69q45 54 45 123q0 90 -69 147q-54 45 -123 45zM352 96h-224q-56 8 -83 59q-13 26 -13 53q0 60 49 93q29 19 63 19q11 0 28 -4 q27 67 95 91q26 9 53 9q77 0 125 -61q35 -43 35 -99q0 -77 -60 -127q-31 -25 -68 -33z" />
<glyph unicode="&#xe032;" d="M320 480q-90 0 -147 -69q-11 -14 -19 -28q-2 0 -5 0.5t-5 0.5q-73 0 -116 -59q-28 -38 -28 -85q0 -72 58 -115q32 -23 70 -27v32q-56 7 -83 58q-13 24 -13 52q0 60 49 93q29 19 63 19q11 0 28 -4q27 67 95 91q26 9 53 9q77 0 125 -61q35 -43 35 -99q0 -79 -63 -127 q-16 -12 -33 -20v-33q78 27 111 102q17 37 17 78q0 90 -69 147q-54 45 -123 45zM303 133q-1 2 -2 3l-1 2l-3 3l-1 1h-1q-2 1 -3 1t-3 1h-1h-52l50 88q6 13 -6 22q-14 5 -22 -6l-64 -112v-1l-1 -2q0 -1 -1 -3v-1v-1v-2q1 -2 1 -3q1 -2 2 -3l1 -2l3 -3l1 -1h1q2 -1 3 -1 q2 -1 3 -1h1h52l-50 -88q-6 -13 6 -22q14 -5 22 6l64 112v1l1 2q0 1 1 3v1v1v2q-1 2 -1 3z" />
<glyph unicode="&#xe033;" d="M256 0h32v96h-32v-96zM160 0h32v96h-32v-96zM352 0h32v96h-32v-96zM320 512q-90 0 -147 -69q-11 -14 -19 -28q-2 0 -5 0.5t-5 0.5q-73 0 -116 -59q-28 -38 -28 -85q0 -73 58 -116q39 -28 86 -28h160h16q90 0 147 69q45 54 45 123q0 90 -69 147q-54 45 -123 45zM320 160 h-16h-160q-60 0 -93 49q-19 29 -19 63q0 60 49 93q29 19 63 19q11 0 28 -4q27 67 95 91q26 9 53 9q77 0 125 -61q35 -43 35 -99q0 -77 -61 -125q-43 -35 -99 -35z" />
<glyph unicode="&#xe034;" d="M192 96h-32v-32h32v32zM288 0h32v32h-32v-32zM192 0h32v32h-32v-32zM320 512q-90 0 -147 -69q-11 -14 -19 -28q-2 0 -5 0.5t-5 0.5q-73 0 -116 -59q-28 -38 -28 -85q0 -73 58 -116q39 -28 86 -28h176q90 0 147 69q45 54 45 123q0 90 -69 147q-54 45 -123 45zM352 160 h-224q-56 8 -83 59q-13 26 -13 53q0 60 49 93q29 19 63 19q11 0 28 -4q27 67 95 91q26 9 53 9q77 0 125 -61q35 -43 35 -99q0 -77 -60 -127q-31 -25 -68 -33zM288 96h-32v-32h32v32zM352 64h32v32h-32v-32z" />
<glyph unicode="&#xe035;" d="M128 256h-96v-32h96v32zM288 480h-32v-96h32v96zM91 82l23 -23l45 45l-23 23zM453 398l-23 23l-45 -45l23 -23zM416 256v-32h96v32h-96zM272 352q-60 0 -93 -49q-19 -29 -19 -63q0 -60 49 -93q29 -19 63 -19q60 0 93 49q19 29 19 63q0 60 -49 93q-29 19 -63 19zM272 160 q-45 0 -69 39q-11 20 -11 41q0 45 39 69q20 11 41 11q45 0 69 -39q11 -20 11 -41q0 -45 -39 -69q-20 -11 -41 -11zM385 104l45 -45l23 23l-45 45zM256 0h32v96h-32v-96zM91 398l45 -45l23 23l-45 45z" />
<glyph unicode="&#xe036;" d="M453 398l-23 23l-45 -45l23 -23zM96 256h-64v-32h64v32zM159 376l-45 45l-23 -23l45 -45zM288 480h-32v-64h32v64zM91 82l23 -23l45 45l-23 23zM256 0h32v64h-32v-64zM448 256v-32h64v32h-64zM385 104l45 -45l23 23l-45 45zM272 384q-73 0 -116 -59q-28 -38 -28 -85 q0 -73 58 -116q39 -28 86 -28q73 0 116 58q28 39 28 86q0 71 -57 115q-40 29 -87 29zM272 128q-60 0 -93 49q-19 29 -19 63q0 60 49 93q29 19 63 19q60 0 93 -49q19 -29 19 -63q0 -60 -49 -93q-29 -19 -63 -19z" />
<glyph unicode="&#xe037;" d="M42 192q-10 34 -10 64q0 101 76 168q64 56 148 56q101 0 168 -76q56 -64 56 -148q0 -31 -10 -64h34q8 32 8 64q0 111 -82 187q-74 69 -174 69q-111 0 -187 -82q-69 -74 -69 -174q0 -32 8 -64h34zM256 0q65 0 124 32h-248q60 -32 124 -32zM48 64h416v32h-416v-32zM0 128 h512v32h-512v-32z" />
<glyph unicode="&#xe038;" d="M256 512l-57 -86q-102 -167 -103 -250q0 -145 104 -170q25 -6 56 -6q132 0 155 115q5 28 5 61q0 51 -40 135t-80 143zM256 32q-87 0 -112 48q-16 30 -16 86q0 44 32 118.5t64 127.5l32 52l51 -87q77 -142 77 -211q0 -93 -48 -119q-28 -15 -80 -15z" />
<glyph unicode="&#xe039;" d="M100 355l-46 45l-22 -22l45 -46zM96 192q0 77 61 125q43 35 99 35q77 0 125 -61q35 -43 35 -99h32q0 90 -69 147q-54 45 -123 45q-90 0 -147 -69q-45 -54 -45 -123h32zM272 480h-32v-64h32v64zM480 378l-22 22l-46 -45l23 -23zM80 0h352v32h-352v-32zM0 160v-32h512v32 h-512zM32 64h448v32h-448v-32z" />
<glyph unicode="&#xe03a;" d="M480 314l-22 22l-46 -45l23 -23zM272 416h-32v-64h32v64zM0 128v-32h512v32h-512zM100 291l-46 45l-22 -22l45 -46zM99 160q15 73 80 109q37 19 77 19q79 0 127 -63q22 -30 30 -65h32q-15 85 -88 131q-47 29 -101 29q-91 0 -148 -70q-32 -40 -41 -90h32z" />
<glyph unicode="&#xe03b;" d="M96 0h32v80h-32v-80zM192 0h32v80h-32v-80zM384 0h32v80h-32v-80zM386 429q-29 61 -93 78q-19 5 -37 5q-72 0 -115 -58q-14 -19 -21 -40q-68 -12 -102 -72q-18 -33 -18 -70q0 -73 58 -116q39 -28 86 -28h224v1q74 4 117 64q27 40 27 87q0 74 -59 120q-31 23 -67 29z M368 161v-1h-224q-60 0 -93 49q-19 29 -19 63q0 60 49 93q29 19 63 19h2q7 56 58 83q25 13 52 13q60 0 94 -51q8 -14 13 -29q63 -2 97 -54q20 -31 20 -66q0 -63 -53 -99q-27 -18 -59 -20zM288 0h32v80h-32v-80z" />
<glyph unicode="&#xe03c;" d="M386 429q-29 61 -93 78q-19 5 -37 5q-72 0 -115 -58q-14 -19 -21 -40q-68 -12 -102 -72q-18 -33 -18 -70q0 -72 58 -115q32 -23 70 -27v32q-56 7 -83 58q-13 24 -13 52q0 60 49 93q29 19 63 19h2q7 56 58 83q25 13 52 13q60 0 94 -51q8 -14 13 -29q63 -2 97 -54 q20 -31 20 -66q0 -63 -53 -99q-19 -14 -43 -19v-32q71 12 107 74q21 36 21 76q0 74 -59 120q-31 23 -67 29zM303 133q-1 2 -2 3l-1 2l-3 3l-1 1h-1q-2 1 -3 1t-3 1h-1h-52l50 88q6 13 -6 22q-14 5 -22 -6l-64 -112v-1l-1 -2q0 -1 -1 -3v-1v-1v-2q1 -2 1 -3q1 -2 2 -3l1 -2 l3 -3l1 -1h1q2 -1 4 -1q1 -1 2 -1h1h53l-51 -88q-6 -13 6 -22q15 -6 22 6l64 112v1l1 2q0 1 1 3v1v1v2q-1 2 -1 3z" />
<glyph unicode="&#xe03d;" d="M288 0h32v32h-32v-32zM192 96h-32v-32h32v32zM192 0h32v32h-32v-32zM288 96h-32v-32h32v32zM386 429q-29 61 -93 78q-19 5 -37 5q-72 0 -115 -58q-14 -19 -21 -40q-68 -12 -102 -72q-18 -33 -18 -70q0 -73 58 -116q39 -28 86 -28h224v1q74 4 117 64q27 40 27 87 q0 74 -59 120q-31 23 -67 29zM368 161v-1h-224q-60 0 -93 49q-19 29 -19 63q0 60 49 93q29 19 63 19h2q7 56 58 83q25 13 52 13q60 0 94 -51q8 -14 13 -29q63 -2 97 -54q20 -31 20 -66q0 -63 -53 -99q-27 -18 -59 -20zM352 64h32v32h-32v-32z" />
<glyph unicode="&#xe03e;" d="M386 365q-29 62 -95 79q-17 4 -35 4q-72 0 -115 -58q-14 -19 -21 -40q-68 -12 -102 -72q-18 -33 -18 -70q0 -73 58 -116q39 -28 86 -28h224v1q74 4 117 64q27 40 27 87q0 74 -59 120q-31 23 -67 29zM368 97v-1h-224q-60 0 -93 49q-19 29 -19 63q0 60 49 93q29 19 63 19h2 q7 56 58 83q25 13 52 13q60 0 94 -51q8 -14 13 -29q63 -2 97 -54q20 -31 20 -66q0 -63 -53 -99q-27 -18 -59 -20z" />
<glyph unicode="&#xe03f;" d="M16 480q-15 -2 -16 -16v-448q2 -15 16 -16q15 2 16 16v448q-2 15 -16 16zM464 448l-384 32q-15 -2 -16 -16v-16h32l128 -12v-152l-128 -12v144h-32v-160q2 -15 16 -16l384 32q15 2 16 16v144q-2 15 -16 16zM352 295l-96 -8v146l96 -8v-130zM448 304l-64 -6v124l64 -6 v-112z" />
<glyph unicode="&#xe040;" d="M80 352h288q15 2 16 16q-2 15 -16 16h-288q-15 -2 -16 -16q2 -15 16 -16zM80 256h192q15 2 16 16q-2 15 -16 16h-192q-15 -2 -16 -16q2 -15 16 -16zM80 448h288q15 2 16 16q-2 15 -16 16h-288q-15 -2 -16 -16q2 -15 16 -16zM176 192h-96q-15 -2 -16 -16q2 -15 16 -16h96 q15 2 16 16q-2 15 -16 16zM448 480v-242q-45 32 -113 8q-17 -6 -32 -15q-63 -38 -76 -97q-7 -34 7 -61q26 -45 91 -41q39 3 76 25q61 36 76 94q3 13 3 25v304h-32zM383 86q-57 -34 -99 -17q-16 7 -23 19q-18 34 19 79q17 20 41 35q57 34 99 17q16 -8 23 -20q18 -33 -19 -78 q-17 -20 -41 -35z" />
<glyph unicode="&#xe041;" d="M480 512h-384q-24 0 -31 -22q-1 -6 -1 -10h-32q-24 0 -31 -22q-1 -6 -1 -10v-384q0 -24 22 -31q6 -1 10 -1h32q0 -24 22 -31q6 -1 10 -1h384q24 0 31 22q1 6 1 10v448q0 24 -22 31q-6 1 -10 1zM64 64h-16q-15 2 -16 16v352q2 15 16 16h16v-384zM480 48q-2 -15 -16 -16 h-352q-15 2 -16 16v416q2 15 16 16h352q15 -2 16 -16v-416z" />
<glyph unicode="&#xe042;" d="M384 477v3q0 24 -22 31q-6 1 -10 1h-320q-24 0 -31 -22q-1 -6 -1 -10v-448q0 -24 22 -31q6 -1 10 -1h320q24 0 31 22q1 6 1 10v2q91 54 119 154q9 33 9 68q0 112 -83 188q-21 19 -45 33zM352 48q-2 -15 -16 -16h-288q-15 2 -16 16v416q2 15 16 16h288q15 -2 16 -16v-128 q-53 0 -81 -45q-15 -24 -15 -51q0 -53 45 -81q24 -15 51 -15v-96zM384 73v103h-32q-39 0 -57 35q-7 14 -7 29q0 39 35 57q14 7 29 7h32v135q79 -55 94 -150q2 -17 2 -33q0 -100 -75 -167q-11 -9 -21 -16z" />
<glyph unicode="&#xe043;" d="M32 0h448v32h-448v-32zM480 512h-448q-24 0 -31 -22q-1 -6 -1 -10v-384q0 -24 22 -31q6 -1 10 -1h448q24 0 31 22q1 6 1 10v384q0 24 -22 31q-6 1 -10 1zM480 112q-2 -15 -16 -16h-416q-15 2 -16 16v352q2 15 16 16h416q15 -2 16 -16v-352zM416 448l-224 -39v-159 q-37 12 -72 -4q-45 -19 -55 -56q-3 -17 3 -31q14 -32 60 -31q21 1 40 10q46 19 57 55q5 17 -1 31v164l160 28v-132q-35 10 -70 -4q-44 -17 -56 -54q-4 -17 1 -32q13 -33 58 -35q21 0 41 7q44 18 57 55q6 19 1 35v192zM160 169q-34 -18 -56 -4q-4 3 -6 5q-10 15 14 35 q8 6 16 10q36 17 57 4l5 -5q11 -17 -17 -37q-6 -5 -13 -8zM352 201q-34 -18 -56 -4q-4 3 -6 5q-10 15 14 35q8 6 16 10q36 17 57 4l5 -5q11 -17 -17 -37q-6 -5 -13 -8z" />
<glyph unicode="&#xe044;" d="M32 0h448v32h-448v-32zM480 512h-448q-24 0 -31 -22q-1 -6 -1 -10v-384q0 -24 22 -31q6 -1 10 -1h448q24 0 31 22q1 6 1 10v384q0 24 -22 31q-6 1 -10 1zM480 112q-2 -15 -16 -16h-416q-15 2 -16 16v352q2 15 16 16h416q15 -2 16 -16v-352zM288 252q-37 12 -78 -10 q-44 -23 -49 -61q-2 -16 5 -29q19 -31 67 -23q20 4 37 13q45 24 49 63q1 11 -1 19h2v224h-32v-196zM256 169q-36 -17 -56 -4l-5 5q-11 15 13 35q8 6 16 10q36 17 56 4l5 -5q12 -17 -16 -37q-6 -5 -13 -8z" />
<glyph unicode="&#xe045;" d="M480 512h-384q-24 0 -31 -22q-1 -6 -1 -10h-32q-24 0 -31 -22q-1 -6 -1 -10v-384q0 -24 22 -31q6 -1 10 -1h32q0 -24 22 -31q6 -1 10 -1h384q24 0 31 22q1 6 1 10v448q0 24 -22 31q-6 1 -10 1zM64 64h-16q-15 2 -16 16v352q2 15 16 16h16v-384zM480 48q-2 -15 -16 -16 h-352q-15 2 -16 16v416q2 15 16 16h352q15 -2 16 -16v-416zM352 220q-36 12 -79 -10q-44 -24 -49 -62q-1 -16 6 -28q19 -31 67 -23q19 3 37 13q44 24 52 60q2 12 -1 21l-1 225h-32v-196zM320 137q-36 -17 -56 -4l-5 5q-11 15 13 35q8 6 16 10q36 17 56 4l5 -5 q12 -17 -16 -37q-6 -5 -13 -8z" />
<glyph unicode="&#xe046;" d="M512 480v2l-320 -66v-236q-46 27 -109 -2q-8 -3 -14 -7q-58 -34 -68 -87q-4 -27 7 -48q24 -42 85 -36q32 4 62 21q57 34 67 87q2 11 1 20h1v163l256 55v-102q-46 27 -109 -2q-8 -3 -14 -7q-58 -34 -68 -87q-4 -27 7 -48q24 -42 85 -36q32 4 62 21q57 34 67 87q2 11 1 20 h1v288zM138 50q-51 -30 -86 -13q-11 6 -16 15q-16 28 18 65q14 15 32 25q51 30 86 13q11 -6 16 -15q16 -28 -18 -65q-14 -15 -32 -25zM426 114q-51 -30 -86 -13q-11 6 -16 15q-16 28 18 65q14 15 32 25q48 29 84 13q12 -6 18 -15q16 -28 -18 -65q-14 -15 -32 -25zM224 327 v60l256 55v-63z" />
<glyph unicode="&#xe047;" d="M192 416v-236q-46 27 -109 -2q-8 -3 -14 -7q-58 -34 -68 -87q-4 -27 7 -48q24 -42 85 -36q32 4 62 21q57 34 67 87q2 11 1 20h1v259l256 55v-198q-46 27 -109 -2q-8 -3 -14 -7q-58 -34 -68 -87q-4 -27 7 -48q24 -42 85 -36q32 4 62 21q57 34 67 87q2 11 1 20h1v288z M138 50q-51 -30 -86 -13q-11 6 -16 15q-16 28 18 65q14 15 32 25q48 29 84 13q12 -6 18 -15q16 -28 -18 -65q-14 -15 -32 -25zM426 114q-51 -30 -86 -13q-11 6 -16 15q-16 28 18 65q14 15 32 25q48 29 84 13q12 -6 18 -15q16 -28 -18 -65q-14 -15 -32 -25z" />
<glyph unicode="&#xe048;" d="M352 480v-242q-45 32 -113 8q-17 -6 -32 -15q-63 -38 -76 -96q-8 -34 7 -61q26 -47 92 -42q39 4 75 25q61 36 76 94q3 13 3 25v304h-32zM287 86q-57 -34 -99 -17q-16 7 -23 19q-18 34 19 79q17 20 41 35q57 34 99 17q16 -8 23 -20q18 -33 -19 -78q-17 -20 -41 -35z" />
<glyph unicode="&#xe049;" d="M320 480h-10v0h-22v-22v0v-252q-45 32 -113 8q-17 -6 -32 -15q-63 -38 -76 -96q-7 -35 7 -61q26 -47 92 -42q39 4 75 25q61 36 76 94q3 13 3 25v297l106 -81l22 22zM223 54q-57 -34 -99 -17q-16 7 -23 19q-18 34 19 79q17 20 41 35q57 34 99 17q16 -8 23 -20 q18 -33 -19 -78q-17 -20 -41 -35z" />
<glyph unicode="&#xe04a;" d="M32 256q0 53 45 81q24 15 51 15h128v32l-80 96l-16 -32l53 -64h-85q-66 0 -104 -54q-24 -34 -24 -74q0 -66 54 -104q34 -24 74 -24h32v32h-32q-53 0 -81 45q-15 24 -15 51zM384 384h-64v-32h64q53 0 81 -45q15 -24 15 -51q0 -53 -45 -81q-24 -15 -51 -15h-160v-32l80 -96 l16 32l-53 64h117q66 0 104 54q24 34 24 74q0 66 -54 104q-34 24 -74 24z" />
<glyph unicode="&#xe04b;" d="M349 404l6 9h1v-11v-89h-34v-25h94v25h-33v135h-25l-38 -39l16 -18zM477 344q-5 -19 -15 -32q18 -27 18 -56q0 -53 -45 -81q-24 -15 -51 -15h-160v-32l80 -96l16 32l-53 64h117q66 0 104 54q24 34 24 74q-1 50 -35 88zM32 256q0 53 45 81q24 15 51 15h128v32l-80 96 l-16 -32l53 -64h-85q-66 0 -104 -54q-24 -34 -24 -74q0 -66 54 -104q34 -24 74 -24h32v32h-32q-53 0 -81 45q-15 24 -15 51z" />
<glyph unicode="&#xe04c;" d="M262 320l-38 -39l16 -18l13 13l6 9h1v-11v-89h-34v-25h94v25h-33v135h-25zM256 64q-84 0 -136 65q-23 29 -33 63h41l-64 96l-64 -96h54q21 -88 99 -133q48 -27 103 -27q97 0 159 74q9 11 16 22h-40q-55 -63 -135 -64zM458 288q-21 88 -99 133q-48 27 -103 27 q-97 0 -159 -74q-9 -11 -16 -22h40q55 63 135 64q84 0 137 -66q22 -29 32 -62h-41l64 -96l64 96h-54z" />
<glyph unicode="&#xe04d;" d="M256 64q-84 0 -136 65q-23 29 -33 63h41l-64 96l-64 -96h54q21 -88 99 -133q48 -27 103 -27q97 0 159 74q9 11 16 22h-40q-55 -63 -135 -64zM458 288q-21 88 -99 133q-48 27 -103 27q-97 0 -159 -74q-9 -11 -16 -22h40q55 63 135 64q84 0 137 -66q22 -29 32 -62h-41 l64 -96l64 96h-54z" />
<glyph unicode="&#xe04e;" d="M384 63h-114l-34 62l-16 -28l36 -65h32h96v-32l96 48l-96 48v-33zM148 227l16 28l-36 65h-32h-96v-33h114zM384 287v-31l96 48l-96 48v-32h-128l-142 -257h-114v-31h96h32l142 255h114z" />
<glyph unicode="&#xe04f;" d="M311 320h182h3q15 2 16 16q-1 7 -5 12q-1 3 -1 4l-92 91q-12 11 -26 0q-10 -13 0 -26l65 -65h-149q-3 0 -7 -2q-6 -2 -8 -4l-36 -36l25 -24zM137 192h-120q-14 -3 -17 -16q3 -13 17 -16h125h1q8 -1 15 4l36 37l-24 24zM501 191l-190 1l-153 156q-8 5 -15 4h-1h-125 q-14 -3 -17 -16q3 -13 17 -16h100q1 -1 21 -1l151 -153q4 -3 8 -4q4 -2 7 -2h148l-64 -64q-11 -12 0 -26q14 -11 26 0l92 91q1 2 1 3q5 6 5 12q-1 11 -11 15z" />
<glyph unicode="&#xe050;" d="M252 251v1h-1l-159 143q-11 10 -23 0q-11 -11 0 -23l147 -132l-147 -132q-8 -11 0 -23q12 -9 24 0l159 143q9 12 0 23zM444 251l-1 1l-191 175q-11 10 -23 0q-11 -11 0 -23l179 -164l-179 -164q-8 -11 0 -23q12 -9 24 0l191 175q9 12 0 23z" />
<glyph unicode="&#xe051;" d="M268 251v1h-1l-191 175q-11 10 -23 0q-9 -11 0 -23l179 -164l-179 -164q-8 -11 0 -23q12 -9 24 0l191 175q9 12 0 23zM460 251l-1 1l-159 143q-11 10 -23 0q-11 -11 0 -23l146 -132l-146 -132q-8 -11 0 -23q12 -9 24 0l159 143q9 12 0 23z" />
<glyph unicode="&#xe052;" d="M89 240l179 164q9 12 0 23q-12 10 -24 0l-191 -175v-1q-11 -11 0 -23l191 -175q11 -10 23 0q10 11 0 23zM281 240l147 132q9 12 0 23q-12 10 -24 0l-159 -143v-1q-11 -11 0 -23l159 -143q11 -10 23 0q8 11 0 23z" />
<glyph unicode="&#xe053;" d="M73 240l147 132q9 12 0 23q-12 10 -24 0l-159 -143v-1q-9 -11 0 -23l159 -143q11 -10 23 0q10 11 0 23zM265 240l178 164q11 12 0 23t-23 0l-191 -175v-1q-11 -11 0 -23l191 -175q11 -10 23 0q8 11 0 23z" />
<glyph unicode="&#xe054;" d="M32 224h32v32h-32v-32zM32 96h32v32h-32v-32zM32 352h32v32h-32v-32zM128 384v-32h352v32h-352zM128 224h352v32h-352v-32zM128 96h352v32h-352v-32z" />
<glyph unicode="&#xe055;" d="M480 96l-224 352l-224 -352h448zM256 384l171 -256h-342zM464 64h-416q-15 -2 -16 -16q2 -15 16 -16h416q15 2 16 16q-2 15 -16 16z" />
<glyph unicode="&#xe056;" d="M512 224l-320 224v-122l-192 122v-448l192 122v-122zM32 58v332l192 -123v119l232 -162l-232 -163v119z" />
<glyph unicode="&#xe057;" d="M320 326v122l-320 -224l320 -224v122l192 -122v448zM480 58l-192 122v-119l-232 163l232 162v-119l192 123v-332z" />
<glyph unicode="&#xe058;" d="M64 448v-384h384v384h-384zM416 96h-320v320h320v-320z" />
<glyph unicode="&#xe059;" d="M416 448h-320q-24 0 -31 -22q-1 -6 -1 -10v-320q0 -24 22 -31q6 -1 10 -1h320q24 0 31 22q1 6 1 10v320q0 24 -22 31q-6 1 -10 1zM416 112q-2 -15 -16 -16h-288q-15 2 -16 16v288q2 15 16 16h288q15 -2 16 -16v-288z" />
<glyph unicode="&#xe05a;" d="M96 32h128v448h-128v-448zM128 448h64v-384h-64v384zM288 480v-448h128v448h-128zM384 64h-64v384h64v-384z" />
<glyph unicode="&#xe05b;" d="M176 416q-15 -2 -16 -16v-320q2 -15 16 -16q15 2 16 16v320q-2 15 -16 16zM336 416q-15 -2 -16 -16v-320q2 -15 16 -16q15 2 16 16v320q-2 15 -16 16z" />
<glyph unicode="&#xe05c;" d="M176 480h-32q-32 0 -44 -30q-4 -9 -4 -18v-352q0 -32 29 -44q10 -4 19 -4h32q32 0 44 29q4 10 4 19v352q0 32 -29 44q-9 4 -19 4zM192 80q-2 -15 -16 -16h-32q-15 2 -16 16v352q2 15 16 16h32q15 -2 16 -16v-352zM368 480h-32q-30 0 -44 -28q-4 -10 -4 -20v-352 q0 -32 30 -44q8 -4 18 -4h32q32 0 44 29q4 9 4 19v352q0 30 -28 44q-10 4 -20 4zM384 80q-2 -15 -16 -16h-32q-15 2 -16 16v352q2 15 16 16h32q15 -2 16 -16v-352z" />
<glyph unicode="&#xe05d;" d="M96 480v-448l352 224zM128 427l256 -171l-256 -171v342z" />
<glyph unicode="&#xe05e;" d="M288 446v34h-32v-34q-44 -8 -59 -50q-5 -14 -5 -28q0 -47 40 -69q12 -7 24 -9v-258h32v258q44 8 59 50q5 14 5 28q0 47 -40 69q-12 7 -24 9zM272 320q-32 0 -44 29q-4 9 -4 19q0 32 29 44q10 4 19 4q32 0 44 -30q4 -8 4 -18q0 -32 -30 -44q-8 -4 -18 -4zM448 222v258h-32 v-258q-44 -8 -59 -50q-5 -14 -5 -28q0 -47 40 -69q12 -7 24 -9v-34h32v34q44 8 59 50q5 14 5 28q0 47 -40 69q-12 7 -24 9zM432 96q-32 0 -44 29q-4 9 -4 19q0 30 28 44q10 4 20 4q30 0 44 -28q4 -10 4 -20q0 -32 -30 -44q-8 -4 -18 -4zM128 286v194h-32v-194 q-44 -8 -59 -50q-5 -14 -5 -28q0 -47 40 -69q12 -7 24 -9v-98h32v98q44 8 59 50q5 14 5 28q0 47 -40 69q-12 7 -24 9zM112 160q-32 0 -44 29q-4 10 -4 19q0 32 29 44q10 4 19 4q32 0 44 -30q4 -8 4 -18q0 -32 -29 -44q-10 -4 -19 -4z" />
<glyph unicode="&#xe05f;" d="M352 416q0 24 -22 31q-6 1 -10 1h-32v32h-32v-32h-32q-24 0 -31 -22q-1 -6 -1 -10v-96q0 -24 22 -31q6 -1 10 -1h32v-256h32v256h32q24 0 31 22q1 6 1 10v96zM320 336q-2 -15 -16 -16h-64q-15 2 -16 16v64q2 15 16 16h64q15 -2 16 -16v-64zM160 288h-32v192h-32v-192h-32 q-24 0 -31 -22q-1 -6 -1 -10v-96q0 -24 22 -31q6 -1 10 -1h32v-96h32v96h32q24 0 31 22q1 6 1 10v96q0 24 -22 31q-6 1 -10 1zM160 176q-2 -15 -16 -16h-64q-15 2 -16 16v64q2 15 16 16h64q15 -2 16 -16v-64zM480 224h-32v256h-32v-256h-32q-24 0 -31 -22q-1 -6 -1 -10v-96 q0 -24 22 -31q6 -1 10 -1h32v-32h32v32h32q24 0 31 22q1 6 1 10v96q0 24 -22 31q-6 1 -10 1zM480 112q-2 -15 -16 -16h-64q-15 2 -16 16v64q2 15 16 16h64q15 -2 16 -16v-64z" />
<glyph unicode="&#xe060;" d="M416 256q0 59 -49 92q-22 15 -47 18v-32q44 -8 59 -50q5 -14 5 -28q0 -47 -40 -69q-12 -7 -24 -9v-32q56 7 83 58q13 24 13 52zM320 477v-32q85 -15 131 -88q29 -46 29 -101q0 -89 -68 -147q-41 -33 -92 -42v-32q96 14 152 94q40 57 40 127q0 101 -76 167q-51 44 -116 54 zM64 352q-24 0 -31 -22q-1 -6 -1 -10v-128q0 -24 22 -31q6 -1 10 -1h64l160 -96v384l-160 -96h-64zM256 112l-128 80h-48q-15 2 -16 16v96q2 15 16 16h48l128 80v-288z" />
<glyph unicode="&#xe061;" d="M96 352q-24 0 -31 -22q-1 -6 -1 -10v-128q0 -24 22 -31q6 -1 10 -1h64l160 -96v384l-160 -96h-64zM288 112l-128 80h-48q-15 2 -16 16v96q2 15 16 16h48l128 80v-288zM352 366v-32q44 -8 59 -50q5 -14 5 -28q0 -47 -40 -69q-12 -7 -24 -9v-32q56 7 83 58q13 24 13 52 q0 59 -49 92q-22 15 -47 18z" />
<glyph unicode="&#xe062;" d="M224 352h-64q-24 0 -31 -22q-1 -6 -1 -10v-128q0 -24 22 -31q6 -1 10 -1h64l160 -96v384zM352 112l-128 80h-48q-15 2 -16 16v96q2 15 16 16h48l128 80v-288z" />
<glyph unicode="&#xe063;" d="M64 352q-24 0 -31 -22q-1 -6 -1 -10v-128q0 -24 22 -31q6 -1 10 -1h64l159 -96v384l-159 -96h-64zM256 112l-128 80h-48q-15 2 -16 16v96q2 15 16 16h48l128 80v-288zM506 188l-68 68l68 69q9 11 0 22q-11 10 -23 0l-68 -68l-68 68q-11 11 -23 0q-9 -11 0 -22l68 -69 l-68 -68q-8 -11 0 -23q11 -9 23 0l68 69l69 -69q11 -9 22 0q10 11 0 23z" />
<glyph unicode="&#xe064;" d="M416 256q0 59 -49 92q-22 15 -47 18v-32q44 -8 59 -50q5 -14 5 -28q0 -47 -40 -69q-12 -7 -24 -9v-32q56 7 83 58q13 24 13 52zM64 352q-24 0 -31 -22q-1 -6 -1 -10v-128q0 -24 22 -31q6 -1 10 -1h64l160 -96v384l-160 -96h-64zM128 192h-48q-15 2 -16 16v96q2 15 16 16 h48v-128zM160 340l96 60v-288l-96 60v168zM320 477v-32q85 -15 131 -88q29 -46 29 -101q0 -89 -68 -147q-41 -33 -92 -42v-32q96 14 152 94q40 57 40 127q0 101 -76 167q-51 44 -116 54z" />
<glyph unicode="&#xe065;" d="M96 352q-24 0 -31 -22q-1 -6 -1 -10v-128q0 -24 22 -31q6 -1 10 -1h64l160 -96v384l-160 -96h-64zM160 304v-112h-48q-15 2 -16 16v96q2 15 16 16h48v-16zM192 340l96 60v-288l-96 60v168zM352 366v-32q44 -8 59 -50q5 -14 5 -28q0 -47 -40 -69q-12 -7 -24 -9v-32 q56 7 83 58q13 24 13 52q0 59 -49 92q-22 15 -47 18z" />
<glyph unicode="&#xe066;" d="M224 352h-64q-24 0 -31 -22q-1 -6 -1 -10v-128q0 -24 22 -31q6 -1 10 -1h64l160 -96v384zM224 192h-48q-15 2 -16 16v96q2 15 16 16h48v-128zM352 112l-96 60v168l96 60v-288z" />
<glyph unicode="&#xe067;" d="M64 352q-24 0 -31 -22q-1 -6 -1 -10v-128q0 -24 22 -31q6 -1 10 -1h64l159 -96v384l-159 -96h-64zM160 340l96 60v-288l-96 60v168zM128 192v16v-16h-48q-15 2 -16 16v96q2 15 16 16h48v-16v16v-128zM506 188l-68 68l68 69q9 11 0 22q-11 10 -23 0l-68 -68l-68 68 q-11 11 -23 0q-9 -11 0 -22l68 -69l-68 -68q-8 -11 0 -23q11 -9 23 0l68 69l69 -69q11 -9 22 0q10 11 0 23z" />
<glyph unicode="&#xe068;" d="M256 512q-111 0 -187 -82q-69 -74 -69 -174q0 -111 82 -187q74 -69 174 -69q111 0 187 82q69 74 69 174q0 111 -82 187q-74 69 -174 69zM87 402l91 -91q-9 -13 -14 -28l-125 26q12 50 48 93zM256 32q-101 0 -168 76q-56 64 -56 148q0 8 2 21l127 -26q2 -52 48 -78 q22 -13 47 -13q23 0 47 12l93 -90q-62 -50 -140 -50zM192 256q0 39 35 57q14 7 29 7q39 0 57 -35q7 -14 7 -29q0 -39 -35 -57q-14 -7 -29 -7q-39 0 -57 35q-7 14 -7 29zM420 104l-92 90q13 16 19 32l126 -25q-16 -57 -53 -97zM352 259q-2 52 -47 79q-23 14 -49 14 q-29 -1 -55 -18l-91 91q64 55 146 55q101 0 168 -76q56 -64 56 -148q0 -4 -1 -12q-1 -7 -1 -10z" />
<glyph unicode="&#xe069;" d="M208 208h96v96h-96v-96zM480 512h-448q-24 0 -31 -22q-1 -6 -1 -10v-448q0 -24 22 -31q6 -1 10 -1h448q24 0 31 22q1 6 1 10v448q0 24 -22 31q-6 1 -10 1zM480 48q-2 -15 -16 -16h-416q-15 2 -16 16v416q2 15 16 16h416q15 -2 16 -16v-416z" />
<glyph unicode="&#xe06a;" d="M256 512q-111 0 -187 -82q-69 -74 -69 -174q0 -111 82 -187q74 -69 174 -69q111 0 187 82q69 74 69 174q0 111 -82 187q-74 69 -174 69zM256 32q-101 0 -168 76q-56 64 -56 148q0 101 76 168q64 56 148 56q101 0 168 -76q56 -64 56 -148q0 -101 -76 -168 q-64 -56 -148 -56zM256 304q-32 0 -44 -30q-4 -8 -4 -18q0 -32 29 -44q10 -4 19 -4q32 0 44 29q4 10 4 19q0 32 -29 44q-9 4 -19 4z" />
<glyph unicode="&#xe06b;" d="M384 144q0 60 -49 93q-29 19 -63 19q-60 0 -93 -49q-19 -29 -19 -63q0 -60 49 -93q29 -19 63 -19q60 0 93 49q19 29 19 63zM272 64q-45 0 -69 39q-11 19 -11 41q0 45 39 69q20 11 41 11q45 0 69 -39q11 -20 11 -41q0 -45 -39 -69q-19 -11 -41 -11zM445 512h-346 q-25 0 -33 -22q-2 -5 -2 -10v-448q0 -23 24 -30q5 -2 11 -2h346q27 0 34 23q1 5 1 9v448q0 23 -24 30q-6 2 -11 2zM448 48q-3 -14 -18 -16h-316q-15 3 -18 16v416q3 14 18 16h316q15 -3 18 -16v-416zM272 448q-45 0 -69 -39q-11 -20 -11 -41q0 -45 39 -69q20 -11 41 -11 q45 0 69 39q11 20 11 41q0 45 -39 69q-20 11 -41 11zM272 320q-32 0 -44 29q-4 9 -4 19q0 32 29 44q10 4 19 4q32 0 44 -30q4 -8 4 -18q0 -32 -30 -44q-8 -4 -18 -4z" />
<glyph unicode="&#xe06c;" d="M96 448h-32v-32h32v32zM64 64h32v32h-32v-32zM416 64h32v32h-32v-32zM256 352q-53 0 -81 -45q-15 -24 -15 -51q0 -53 45 -81q24 -15 51 -15q53 0 81 45q15 24 15 51q0 53 -45 81q-24 15 -51 15zM256 192q-39 0 -57 35q-7 14 -7 29q0 39 35 57q14 7 29 7q39 0 57 -35 q7 -14 7 -29q0 -39 -35 -57q-14 -7 -29 -7zM416 416h32v32h-32v-32zM480 512h-448q-24 0 -31 -22q-1 -6 -1 -10v-448q0 -24 22 -31q6 -1 10 -1h448q24 0 31 22q1 6 1 10v448q0 24 -22 31q-6 1 -10 1zM480 48q-2 -15 -16 -16h-416q-15 2 -16 16v416q2 15 16 16h416 q15 -2 16 -16v-416zM256 448q-90 0 -147 -69q-45 -54 -45 -123q0 -90 69 -147q54 -45 123 -45q90 0 147 69q45 54 45 123q0 90 -69 147q-54 45 -123 45zM256 96q-77 0 -125 61q-35 44 -35 99q0 77 61 125q43 35 99 35q77 0 125 -61q35 -43 35 -99q0 -77 -61 -125 q-43 -35 -99 -35z" />
<glyph unicode="&#xe06d;" d="M272 512q-84 0 -137 -65q-39 -49 -39 -111q0 -82 64 -135q13 -10 25 -17l23 -152q0 -24 22 -31q6 -1 10 -1h64q24 0 31 22q1 6 1 10l23 152q69 39 85 116q4 18 4 36q0 84 -65 137q-49 39 -111 39zM272 480q74 0 116 -60q12 -17 19 -36h-270q23 64 85 87q24 9 50 9z M304 48q-2 -15 -16 -16h-32q-15 2 -16 16l-22 121q31 -9 54 -9q24 0 54 9zM272 192q-74 0 -116 60q-12 17 -19 36h270q-23 -64 -85 -87q-24 -9 -50 -9zM130 320q-2 10 -2 16q0 7 2 16h284q2 -10 2 -16q0 -7 -2 -16h-284z" />
<glyph unicode="&#xe06e;" d="M392 414q-22 64 -84 88q-25 10 -52 10q-73 0 -116 -60q-13 -18 -20 -38q-22 -8 -24 -30v-32q1 -23 25 -31q13 -35 40 -61l31 -228q0 -24 22 -31q6 -1 10 -1h64q24 0 31 22q1 6 1 10l31 228q28 27 40 61q24 8 25 31v32q-1 24 -24 30zM256 480q61 0 94 -51q4 -7 7 -13h-202 q25 52 81 62q11 2 20 2zM288 48q-2 -15 -16 -16h-32q-15 2 -16 16l-32 192q31 -16 64 -16q34 0 64 16zM256 256q-61 0 -94 51q-4 7 -7 13h202q-25 -52 -81 -62q-11 -2 -20 -2zM368 352h-224q-15 2 -16 16q2 15 16 16h224q15 -2 16 -16q-2 -15 -16 -16z" />
<glyph unicode="&#xe06f;" d="M478 304q-7 99 -84 160q-61 48 -138 48q-100 0 -167 -75q-49 -58 -55 -133h-34v-192q0 -32 29 -44q10 -4 19 -4h64q32 0 44 29q4 9 4 19v192h-48h-46q7 87 77 139q51 37 113 37q90 0 147 -69q38 -48 43 -107h-46h-48v-48v-144q0 -32 30 -44q8 -4 18 -4h16v-64h32v64h16 q32 0 44 29q4 9 4 19v192h-34zM128 272v-160q-2 -15 -16 -16h-64q-15 2 -16 16v160h96zM480 208v-96q-2 -15 -16 -16h-64q-15 2 -16 16v160h96v-64z" />
<glyph unicode="&#xe070;" d="M479 279q1 4 1 9q0 101 -76 168q-64 56 -148 56q-101 0 -168 -76q-56 -64 -56 -148q0 -6 1 -9q-32 -19 -33 -55v-96q0 -39 35 -57q14 -7 29 -7h32q9 0 18 3q8 -3 14 -3q34 0 53 49q11 29 11 63q0 69 -35 100q-14 12 -29 12q-7 0 -14 -3q-9 3 -18 3h-32q0 90 69 147 q54 45 123 45q90 0 147 -69q45 -54 45 -123h-32q-9 0 -18 -3q-7 3 -14 3q-34 0 -53 -49q-11 -29 -11 -63q0 -69 35 -100q14 -12 29 -12q8 0 14 3q9 -3 18 -3v-64h32v64q39 0 57 35q7 14 7 29v96q-1 37 -33 55zM128 256q21 0 29 -48q3 -16 3 -32q0 -59 -22 -76q-6 -4 -10 -4 q-21 0 -29 48q-3 16 -3 32q0 59 22 76q6 4 10 4zM83 256q-19 -32 -19 -80t19 -80h-19q-24 0 -31 22q-1 6 -1 10v96q0 24 22 31q6 1 10 1h19zM384 96q-21 0 -29 48q-3 16 -3 32q0 59 22 76q6 4 10 4q21 0 29 -48q3 -16 3 -32q0 -59 -22 -76q-6 -4 -10 -4zM480 128 q0 -24 -22 -31q-6 -1 -10 -1h-19q19 32 19 80t-19 80h19q24 0 31 -22q1 -6 1 -10v-96z" />
<glyph unicode="&#xe071;" d="M416 288h32v32h-32v-32zM208 352q-71 0 -115 -57q-29 -40 -29 -87q0 -73 59 -116q38 -28 85 -28q73 0 116 58q28 39 28 86q0 71 -57 115q-39 29 -87 29zM208 320q45 -1 78 -32h-156q34 32 78 32zM208 96q-46 1 -78 32h157q-34 -32 -79 -32zM309 160h-202q-6 16 -9 32h220 q-2 -17 -9 -32zM98 224q3 18 9 32h202q7 -15 9 -32h-220zM448 416h-31l-397 95q-13 5 -18 -8q-1 -2 -1 -3q-5 -13 8 -18q2 -1 3 -1l281 -65h-229q-39 0 -57 -35q-7 -14 -7 -29v-288q0 -39 35 -57q14 -7 29 -7h384q41 0 58 36q6 14 6 28v288q0 39 -35 57q-14 7 -29 7zM480 64 q0 -24 -22 -31q-6 -1 -10 -1h-384q-22 0 -30 21q-2 6 -2 11v288q0 22 21 30q6 2 11 2h384q22 0 30 -21q2 -6 2 -11v-288zM416 224h32v32h-32v-32z" />
<glyph unicode="&#xe072;" d="M368 96h64q15 2 16 16v64q-2 15 -16 16h-64q-15 -2 -16 -16v-64q2 -15 16 -16zM384 160h32v-32h-32v32zM368 224h64q15 2 16 16v64q-2 15 -16 16h-64q-15 -2 -16 -16v-64q2 -15 16 -16zM384 288h32v-32h-32v32zM112 96h64q15 2 16 16v64q-2 15 -16 16h-64q-15 -2 -16 -16 v-64q2 -15 16 -16zM128 160h32v-32h-32v32zM240 224h64q15 2 16 16v64q-2 15 -16 16h-64q-15 -2 -16 -16v-64q2 -15 16 -16zM256 288h32v-32h-32v32zM480 512h-416q-24 0 -31 -22q-1 -6 -1 -10v-448q0 -24 22 -31q6 -1 10 -1h416q24 0 31 22q1 6 1 10v448q0 24 -22 31 q-6 1 -10 1zM480 48q-2 -15 -16 -16h-384q-15 2 -16 16v336h416v-336zM480 416h-416v48q2 15 16 16h384q15 -2 16 -16v-48zM112 224h64q15 2 16 16v64q-2 15 -16 16h-64q-15 -2 -16 -16v-64q2 -15 16 -16zM128 288h32v-32h-32v32zM240 96h64q15 2 16 16v64q-2 15 -16 16h-64 q-15 -2 -16 -16v-64q2 -15 16 -16zM256 160h32v-32h-32v32z" />
<glyph unicode="&#xe073;" d="M448 416v96h-128v-96h-32v-96h-64v96h-32v96h-128v-96h-32v-416h192v160h64v-160h192v416h-32zM96 480h64v-64h-64v64zM192 32h-128v64h128v-64zM192 128h-128v256h128v-256zM288 192h-64v96h64v-96zM352 480h64v-64h-64v64zM448 32h-128v64h128v-64zM448 128h-128v256 h128v-256z" />
<glyph unicode="&#xe074;" d="M432 512h-352q-45 0 -69 -39q-11 -20 -11 -41q0 -45 39 -69q20 -11 41 -11h80v-112q2 -15 16 -16h80v-32q-24 0 -31 -22q-1 -6 -1 -10v-128q0 -24 22 -31q6 -1 10 -1h32q24 0 31 22q1 6 1 10v128q0 24 -22 31q-6 1 -10 1v48q-2 15 -16 16h-80v96h240q45 0 69 39 q11 20 11 41q0 45 -39 69q-20 11 -41 11zM272 160q15 -2 16 -16v-96q-2 -15 -16 -16q-15 2 -16 16v96q2 15 16 16zM432 384h-352q-32 0 -44 29q-4 10 -4 19q0 32 29 44q10 4 19 4h352q30 0 44 -28q4 -10 4 -20q0 -32 -30 -44q-8 -4 -18 -4z" />
<glyph unicode="&#xe075;" d="M368 320q15 2 16 16q-2 15 -16 16h-112v64h112q15 2 16 16q-2 15 -16 16h-112q0 24 -22 31q-6 1 -10 1h-64q-24 0 -31 -22q-1 -6 -1 -10v-416q0 -24 22 -31q6 -1 10 -1h64q24 0 31 22q1 6 1 10h112q15 2 16 16q-2 15 -16 16h-112v64h112q15 2 16 16q-2 15 -16 16h-112v64 h112q15 2 16 16q-2 15 -16 16h-112v64h112zM224 48q-2 -15 -16 -16h-32q-15 2 -16 16v384q2 15 16 16h32q15 -2 16 -16v-384z" />
<glyph unicode="&#xe076;" d="M491 316l-79 80q18 19 3 42q-2 2 -3 4l-46 45q-17 18 -38 6q-4 -3 -7 -6l-296 -296q-18 -17 -6 -38q3 -4 6 -7l45 -46q19 -18 42 -3q2 2 4 3l80 -79q11 -11 22 0t0 22l-79 80l45 46l80 -80q11 -9 23 0q9 11 0 23l-80 79l45 46l80 -80q11 -8 23 0q8 11 0 23l-80 80l46 45 l79 -80q12 -9 23 0q9 12 0 23l-80 80l46 45l79 -79q12 -11 23 0t0 22zM378 407l-205 -204l-68 -69q-12 -9 -23 0l-23 23q-8 11 0 23l273 273q11 8 23 0l23 -23q9 -11 0 -23z" />
<glyph unicode="&#xe077;" d="M368 320h-128q-15 -2 -16 -16q2 -15 16 -16h128q15 2 16 16q-2 15 -16 16zM176 512q-15 -2 -16 -16v-480q2 -15 16 -16q15 2 16 16v480q-2 15 -16 16zM240 480h128q15 2 16 16q-2 15 -16 16h-128q-15 -2 -16 -16q2 -15 16 -16zM368 448h-128q-15 -2 -16 -16q2 -15 16 -16 h128q15 2 16 16q-2 15 -16 16zM368 384h-128q-15 -2 -16 -16q2 -15 16 -16h128q15 2 16 16q-2 15 -16 16z" />
<glyph unicode="&#xe078;" d="M472 94l-221 162l221 162q13 10 6 22q-10 13 -23 6l-231 -170l-72 53q42 28 46 71q0 45 -41 69q-20 11 -42 11q-48 0 -72 -41q-11 -18 -11 -39q0 -45 41 -68q17 -9 36 -11l88 -65l-89 -65q-46 -3 -67 -44q-9 -17 -9 -35q0 -45 41 -69q20 -11 42 -11q48 0 72 41 q11 18 11 39q0 45 -40 68l-6 3l72 53l231 -170q14 -6 23 6q7 13 -6 22zM116 352h-1q-33 0 -46 29q-4 10 -4 19q0 31 30 44q10 4 20 4q32 0 46 -29q4 -9 4 -19q0 -31 -30 -44q-10 -3 -19 -4zM165 112q0 -31 -30 -44q-10 -4 -20 -4q-34 0 -46 30q-4 9 -4 18q0 31 30 44 q10 4 20 4q32 0 46 -29q4 -9 4 -19z" />
<glyph unicode="&#xe079;" d="M448 512h-384q-24 0 -31 -22q-1 -6 -1 -10v-224q0 -24 22 -31q6 -1 10 -1h128v-192q0 -24 22 -31q6 -1 10 -1h64q24 0 31 22q1 6 1 10v192h128q24 0 31 22q1 6 1 10v224q0 24 -22 31q-6 1 -10 1zM96 256h-16q-15 2 -16 16v192q2 15 16 16h16v-224zM288 208v-160 q-2 -15 -16 -16h-32q-15 2 -16 16v176h64v-16zM384 256h-256v224h256v-224zM448 272q-2 -15 -16 -16h-16v224h16q15 -2 16 -16v-192z" />
<glyph unicode="&#xe07a;" d="M322 274q29 24 30 62q0 46 -39 69q-13 6 -25 9v66h-32v-66q-42 -8 -58 -48q-6 -15 -6 -30q1 -39 30 -62l-66 -108q-69 47 -91 122h-33q26 -96 108 -149l-76 -123l27 -16l76 123q55 -27 113 -27q51 0 101 21l72 -117l27 16zM272 384q30 0 44 -28q4 -10 4 -20 q0 -32 -30 -44q-8 -4 -18 -4q-32 0 -44 29q-4 9 -4 19q0 30 28 44q10 4 20 4zM280 128q-51 0 -96 22l67 109q10 -3 21 -3q12 0 21 3l71 -115q-42 -16 -84 -16z" />
<glyph unicode="&#xe07b;" d="M160 512v-512h224v512h-224zM352 416h-96v-32h96v-64h-64v-32h64v-64h-96v-32h96v-64h-64v-32h64v-64h-160v448h160v-64z" />
<glyph unicode="&#xe07c;" d="M313 382l-23 -22l23 -23l23 23zM359 382l23 -22l23 22l-23 23zM451 428l-23 23q-39 39 -93 26q-26 -8 -45 -26l-230 -229q-39 -39 -26 -93q8 -26 26 -45l23 -23q39 -39 93 -26q26 8 45 26l230 230q39 39 25 93q-7 25 -25 44zM198 84q-31 -29 -70 -14q-13 5 -22 14l-23 23 q-30 29 -15 68q5 14 15 24l115 115l115 -115zM428 314l-92 -92l-115 115l92 91q29 30 68 15q14 -5 24 -15l23 -23q29 -29 15 -67q-6 -14 -15 -24zM336 314l23 -23l23 23l-23 23z" />
<glyph unicode="&#xe07d;" d="M512 224q0 111 -82 187q-74 69 -174 69q-111 0 -187 -82q-69 -74 -69 -174v-48v-128q0 -32 29 -44q10 -4 19 -4h64q32 0 44 29q4 10 4 19v128q0 32 -29 44q-10 4 -19 4h-64q-9 0 -16 -3v3q0 101 76 168q64 56 148 56q101 0 168 -76q56 -64 56 -148v-3q-8 3 -16 3h-64 q-30 0 -44 -28q-4 -10 -4 -20v-128q0 -32 30 -44q9 -4 18 -4h64q32 0 44 29q4 9 4 19v128v48zM48 192h64q15 -2 16 -16v-128q-2 -15 -16 -16h-64q-15 2 -16 16v128q2 15 16 16zM480 48q-2 -15 -16 -16h-64q-15 2 -16 16v128q2 15 16 16h64q15 -2 16 -16v-128z" />
<glyph unicode="&#xe07e;" d="M512 224q0 111 -82 187q-74 69 -174 69q-111 0 -187 -82q-69 -74 -69 -174v-48v-96q0 -32 29 -44q10 -4 19 -4h32q32 0 44 29q4 10 4 19v96q0 30 -28 44q-10 4 -20 4h-32q-9 0 -16 -3v3q0 101 76 168q64 56 148 56q101 0 168 -76q56 -64 56 -148v-3q-8 3 -16 3h-32 q-30 0 -44 -28q-4 -10 -4 -20v-96q0 -32 30 -44q8 -4 18 -4h32q32 0 44 29q4 9 4 19v96v48zM48 192h32q15 -2 16 -16v-96q-2 -15 -16 -16h-32q-15 2 -16 16v96q2 15 16 16zM480 80q-2 -15 -16 -16h-32q-15 2 -16 16v96q2 15 16 16h32q15 -2 16 -16v-96z" />
<glyph unicode="&#xe07f;" d="M480 480h-416q-24 0 -31 -22q-1 -6 -1 -10v-416q0 -24 22 -31q6 -1 10 -1h416q24 0 31 22q1 6 1 10v416q0 24 -22 31q-6 1 -10 1zM128 32h-48q-15 2 -16 16v48h64v-64zM128 128h-64v96h64v-96zM128 256h-64v96h64v-96zM128 384h-64v48q2 15 16 16h48v-64zM256 32h-96v64 h96v-64zM256 128h-96v96h96v-96zM256 256h-96v96h96v-96zM256 384h-96v64h96v-64zM384 32h-96v64h96v-64zM384 128h-96v96h96v-96zM384 256h-96v96h96v-96zM384 384h-96v64h96v-64zM480 48q-2 -15 -16 -16h-48v64h64v-48zM480 128h-64v96h64v-96zM480 256h-64v96h64v-96z M480 384h-64v64h48q15 -2 16 -16v-48z" />
<glyph unicode="&#xe080;" d="M448 352h-64q-36 -1 -55 -32h-73v64h-128v-64h-96q-24 0 -31 -22q-1 -6 -1 -10v-96q0 -24 22 -31q6 -1 10 -1h297q19 -31 55 -32h128v224h-64zM160 352h64v-32h-64v32zM320 192h-272q-15 2 -16 16v64q2 15 16 16h272v-96zM416 160h-32q-24 0 -31 22q-1 6 -1 10v96 q0 24 22 31q6 1 10 1h32v-160zM480 160h-32v160h32v-160z" />
<glyph unicode="&#xe081;" d="M320 256v73q31 19 32 55v128h-224v-128q1 -36 32 -55v-297q0 -24 22 -31q6 -1 10 -1h96q24 0 31 22q1 6 1 10v96h64v128h-64zM160 480h160v-32h-160v32zM288 256v-208q-2 -15 -16 -16h-64q-15 2 -16 16v272h96v-64zM288 352h-96q-24 0 -31 22q-1 6 -1 10v32h160v-32 q0 -24 -22 -31q-6 -1 -10 -1zM352 160h-32v64h32v-64z" />
<glyph unicode="&#xe082;" d="M448 352h-64q-36 -1 -55 -32h-73v32h-128v-32h-96q-24 0 -31 -22q-1 -6 -1 -10v-96q0 -24 22 -31q6 -1 10 -1h297q19 -31 55 -32h128v224h-64zM160 320h64v-32h-64v32zM320 192h-272q-15 2 -16 16v64q2 15 16 16h80v-32h128v32h64v-96zM416 160h-32q-24 0 -31 22 q-1 6 -1 10v96q0 24 22 31q6 1 10 1h32v-160zM480 160h-32v160h32v-160z" />
<glyph unicode="&#xe083;" d="M320 512h-160v-128q1 -36 32 -55v-297q0 -24 22 -31q6 -1 10 -1h96q24 0 31 22q1 6 1 10v96h32v128h-32v73q31 19 32 55v128h-64zM320 48q-2 -15 -16 -16h-64q-15 2 -16 16v272h96v-64h-32v-128h32v-80zM352 160h-32v64h32v-64zM352 384q0 -24 -22 -31q-6 -1 -10 -1h-96 q-24 0 -31 22q-1 6 -1 10v32h160v-32zM352 448h-160v32h160v-32z" />
<glyph unicode="&#xe084;" d="M256 512q-111 0 -187 -82q-69 -74 -69 -174v-32h224v-128q0 -53 45 -81q24 -15 51 -15q53 0 81 45q15 24 15 51h-32q0 -39 -35 -57q-14 -7 -29 -7q-39 0 -57 35q-7 14 -7 29v128h256v32q0 111 -82 187q-74 69 -174 69zM32 256q0 101 76 168q64 56 148 56q101 0 168 -76 q56 -64 56 -148h-448z" />
<glyph unicode="&#xe085;" d="M288 320h-192q-24 0 -31 -22q-1 -6 -1 -10v-192q0 -24 22 -31q6 -1 10 -1h192q24 0 31 22q1 6 1 10v192q0 24 -22 31q-6 1 -10 1zM288 112q-2 -15 -16 -16h-160q-15 2 -16 16v160q2 15 16 16h160q15 -2 16 -16v-160zM432 320h-64q-15 -2 -16 -16q2 -15 16 -16h64 q15 2 16 16q-2 15 -16 16zM448 384h-153l68 67q11 13 0 24t-24 0l-83 -83l-83 84q-12 9 -24 0q-10 -13 0 -24l68 -68h-153q-39 0 -57 -35q-7 -14 -7 -29v-256q0 -39 35 -57q14 -7 29 -7h384q39 0 57 35q7 14 7 29v256q0 39 -35 57q-14 7 -29 7zM480 64q0 -24 -22 -31 q-6 -1 -10 -1h-384q-24 0 -31 22q-1 6 -1 10v256q0 24 22 31q6 1 10 1h384q24 0 31 -22q1 -6 1 -10v-256zM432 256h-64q-15 -2 -16 -16q2 -15 16 -16h64q15 2 16 16q-2 15 -16 16zM416 160h-32q-24 0 -31 -22q-1 -6 -1 -10v-32q0 -24 22 -31q6 -1 10 -1h32q24 0 31 22 q1 6 1 10v32q0 24 -22 31q-6 1 -10 1zM416 96h-32v32h32v-32z" />
<glyph unicode="&#xe086;" d="M176 224h-96q-15 -2 -16 -16q2 -15 16 -16h96q15 2 16 16q-2 15 -16 16zM176 160h-96q-15 -2 -16 -16q2 -15 16 -16h96q15 2 16 16q-2 15 -16 16zM176 288h-96q-15 -2 -16 -16q2 -15 16 -16h96q15 2 16 16q-2 15 -16 16zM336 320q-60 0 -93 -49q-19 -29 -19 -63 q0 -60 49 -93q29 -19 63 -19q60 0 93 49q19 29 19 63q0 60 -49 93q-29 19 -63 19zM336 128q-45 0 -69 39q-11 20 -11 41q0 45 39 69q20 11 41 11q45 0 69 -39q11 -20 11 -41q0 -45 -39 -69q-20 -11 -41 -11zM480 384h-32l-364 111q-14 3 -20 -11q-2 -13 12 -19l265 -81h-309 q-24 0 -31 -22q-1 -6 -1 -10v-288q0 -24 22 -31q6 -1 10 -1h448q24 0 31 22q1 6 1 10v288q0 24 -22 31q-6 1 -10 1zM480 80q-2 -15 -16 -16h-416q-15 2 -16 16v256q2 15 16 16h416q15 -2 16 -16v-256z" />
<glyph unicode="&#xe087;" d="M496 288l-112 -70v6q-1 29 -22 48q52 36 54 96q0 60 -49 93q-29 19 -63 19q-60 0 -93 -49q-19 -29 -19 -63q1 -48 34 -80h-59q25 29 25 64q0 53 -45 81q-24 15 -51 15q-53 0 -81 -45q-15 -24 -15 -51q1 -44 33 -72q-32 -20 -33 -56v-128q0 -39 35 -57q14 -7 29 -7h256 q39 0 57 35q7 14 7 29v6l112 -70q15 2 16 16v224q-2 15 -16 16zM32 352q0 39 35 57q14 7 29 7q39 0 57 -35q7 -14 7 -29q0 -39 -35 -57q-14 -7 -29 -7q-39 0 -57 35q-7 14 -7 29zM352 192v-96q0 -24 -22 -31q-6 -1 -10 -1h-256q-24 0 -31 22q-1 6 -1 10v128q0 24 22 31 q6 1 10 1h256q24 0 31 -22q1 -6 1 -10v-32zM304 288q-45 0 -69 39q-11 19 -11 41q0 45 39 69q20 11 41 11q45 0 69 -39q11 -20 11 -41q0 -45 -39 -69q-20 -11 -41 -11zM480 80l-96 48v64l96 48v-160z" />
<glyph unicode="&#xe088;" d="M320 79l29 -15l67 80l-29 16zM224 79l29 -15l67 80l-29 16zM160 160h-32v-32h-32v-32h32v-32h32v32h32v32h-32v32zM384 448h-256q-24 0 -31 -22q-1 -6 -1 -10v-192q0 -24 22 -31q6 -1 10 -1h256q24 0 31 22q1 6 1 10v192q0 24 -22 31q-6 1 -10 1zM384 240q-2 -15 -16 -16 h-224q-15 2 -16 16v160q2 15 16 16h224q15 -2 16 -16v-160zM448 512h-384q-24 0 -31 -22q-1 -6 -1 -10v-448q0 -24 22 -31q6 -1 10 -1h384q24 0 31 22q1 6 1 10v448q0 24 -22 31q-6 1 -10 1zM448 48q-2 -15 -16 -16h-352q-15 2 -16 16v416q2 15 16 16h352q15 -2 16 -16v-416 z" />
<glyph unicode="&#xe089;" d="M480 48q0 30 -28 44q-10 4 -20 4h-144v130q70 8 107 67q21 35 21 75q0 71 -57 115q-40 29 -87 29q-71 0 -115 -57q-29 -40 -29 -87q0 -72 58 -115q32 -23 70 -27v-130h-144q-32 0 -44 -30q-4 -9 -4 -18v-16v-32h416v32v16zM160 368q0 60 49 93q29 19 63 19q60 0 93 -49 q19 -29 19 -63q0 -60 -49 -93q-29 -19 -63 -19q-60 0 -93 49q-19 29 -19 63zM448 32h-352v16q2 15 16 16h320q15 -2 16 -16v-16z" />
<glyph unicode="&#xe08a;" d="M160 320h-32v-64h-64v-32h64v-64h32v64h64v32h-64v64zM394 320l-106 -74l22 -22l106 74zM368 384h-224q-73 0 -116 -59q-28 -38 -28 -85q0 -73 58 -116q39 -28 86 -28h224q71 0 115 57q29 38 29 87q0 71 -57 115q-40 29 -87 29zM368 128h-224q-60 0 -93 49q-19 29 -19 63 q0 60 49 93q29 19 63 19h224q60 0 93 -49q19 -29 19 -63q0 -60 -49 -93q-29 -19 -63 -19zM426 256l-106 -74l22 -22l106 74z" />
<glyph unicode="&#xe08b;" d="M144 352q-45 0 -69 -39q-11 -20 -11 -41q0 -45 39 -69q20 -11 41 -11q45 0 69 39q11 20 11 41q0 45 -39 69q-20 11 -41 11zM144 224q-32 0 -44 29q-4 10 -4 19q0 32 29 44q10 4 19 4q30 0 44 -28q4 -10 4 -20q0 -32 -30 -44q-8 -4 -18 -4zM288 224h32v96h-32v-96z M416 224h32v96h-32v-96zM480 416h-448q-24 0 -31 -22q-1 -6 -1 -10v-320h32v64h448v-64h32v320q0 24 -22 31q-6 1 -10 1zM480 192v-16q-2 -15 -16 -16h-416q-15 2 -16 16v192q2 15 16 16h416q15 -2 16 -16v-176zM352 224h32v96h-32v-96z" />
<glyph unicode="&#xe08c;" d="M64 192v240q2 15 16 16h352q15 -2 16 -16v-304h32v320q0 24 -22 31q-6 1 -10 1h-384q-24 0 -31 -22q-1 -6 -1 -10v-320h32v64zM384 128h32v288h-320v-288h32v256h256v-256zM496 96h-480q-15 -2 -16 -16v-64q2 -15 16 -16h480q15 2 16 16v64q-2 15 -16 16zM480 32h-448v32 h448v-32z" />
<glyph unicode="&#xe08d;" d="M272 384q-15 -2 -16 -16v-64q2 -15 16 -16q15 2 16 16v64q-2 15 -16 16zM352 448h-64v48q-2 15 -16 16h-1h-1h-92q-15 -3 -18 -16q3 -14 18 -16h78v-32h-64q-53 0 -81 -45q-15 -24 -15 -51v-256q0 -53 45 -81q24 -15 51 -15h160q53 0 81 45q15 24 15 51v256q0 53 -45 81 q-24 15 -51 15zM416 96q0 -39 -35 -57q-14 -7 -29 -7h-160q-39 0 -57 35q-7 14 -7 29v256q0 39 35 57q14 7 29 7h160q39 0 57 -35q7 -14 7 -29v-256z" />
<glyph unicode="&#xe08e;" d="M480 480h-416q-24 0 -31 -22q-1 -6 -1 -10v-320q0 -24 22 -31q6 -1 10 -1h192v-64h-48q-15 -2 -16 -16q2 -15 16 -16h128q15 2 16 16q-2 15 -16 16h-48v64h192q24 0 31 22q1 6 1 10v320q0 24 -22 31q-6 1 -10 1zM480 144q-2 -15 -16 -16h-384q-15 2 -16 16v288 q2 15 16 16h384q15 -2 16 -16v-288z" />
<glyph unicode="&#xe08f;" d="M480 512h-448q-24 0 -31 -22q-1 -6 -1 -10v-352q0 -24 22 -31q6 -1 10 -1h128v-64h-32v-32h256v32h-32v64h128q24 0 31 22q1 6 1 10v352q0 24 -22 31q-6 1 -10 1zM320 32h-128v64h128v-64zM480 144q-2 -15 -16 -16h-416q-15 2 -16 16v48h448v-48zM480 224h-448v240 q2 15 16 16h416q15 -2 16 -16v-240z" />
<glyph unicode="&#xe090;" d="M432 320q-15 -2 -16 -16v-96q2 -15 16 -16q15 2 16 16v96q-2 15 -16 16zM96 288q-24 0 -31 -22q-1 -6 -1 -10q0 -24 22 -31q6 -1 10 -1q24 0 31 22q1 6 1 10q0 24 -22 31q-6 1 -10 1zM416 448h-320q-53 0 -81 -45q-15 -24 -15 -51v-192q0 -53 45 -81q24 -15 51 -15h320 q53 0 81 45q15 24 15 51v192q0 53 -45 81q-24 15 -51 15zM480 144q0 -32 -30 -44q-8 -4 -18 -4h-352q-32 0 -44 29q-4 10 -4 19v224q0 32 29 44q10 4 19 4h352q30 0 44 -28q4 -10 4 -20v-224z" />
<glyph unicode="&#xe091;" d="M256 128q-24 0 -31 -22q-1 -6 -1 -10q0 -24 22 -31q6 -1 10 -1q24 0 31 22q1 6 1 10q0 24 -22 31q-6 1 -10 1zM304 448h-96q-15 -2 -16 -16q2 -15 16 -16h96q15 2 16 16q-2 15 -16 16zM352 512h-192q-53 0 -81 -45q-15 -24 -15 -51v-320q0 -53 45 -81q24 -15 51 -15h192 q53 0 81 45q15 24 15 51v320q0 53 -45 81q-24 15 -51 15zM416 80q0 -32 -30 -44q-8 -4 -18 -4h-224q-32 0 -44 29q-4 10 -4 19v352q0 32 29 44q10 4 19 4h224q30 0 44 -28q4 -10 4 -20v-352z" />
<glyph unicode="&#xe092;" d="M96 224q24 0 31 22q1 6 1 10q0 24 -22 31q-6 1 -10 1q-24 0 -31 -22q-1 -6 -1 -10q0 -24 22 -31q6 -1 10 -1zM448 480h-384q-39 0 -57 -35q-7 -14 -7 -29v-320q0 -39 35 -57q14 -7 29 -7h384q39 0 57 35q7 14 7 29v320q0 39 -35 57q-14 7 -29 7zM160 64h-96q-24 0 -31 22 q-1 6 -1 10v320q0 24 22 31q6 1 10 1h96v-384zM480 96q0 -24 -22 -31q-6 -1 -10 -1h-256v384h256q24 0 31 -22q1 -6 1 -10v-320z" />
<glyph unicode="&#xe093;" d="M256 64q24 0 31 22q1 6 1 10q0 24 -22 31q-6 1 -10 1q-24 0 -31 -22q-1 -6 -1 -10q0 -24 22 -31q6 -1 10 -1zM416 512h-320q-39 0 -57 -35q-7 -14 -7 -29v-384q0 -39 35 -57q14 -7 29 -7h320q39 0 57 35q7 14 7 29v384q0 39 -35 57q-14 7 -29 7zM448 64q0 -24 -22 -31 q-6 -1 -10 -1h-320q-24 0 -31 22q-1 6 -1 10v96h384v-96zM448 192h-384v256q0 24 22 31q6 1 10 1h320q24 0 31 -22q1 -6 1 -10v-256z" />
<glyph unicode="&#xe094;" d="M96 224q24 0 31 22q1 6 1 10q0 24 -22 31q-6 1 -10 1q-24 0 -31 -22q-1 -6 -1 -10q0 -24 22 -31q6 -1 10 -1zM448 416h-384q-39 0 -57 -35q-7 -14 -7 -29v-192q0 -39 35 -57q14 -7 29 -7h384q39 0 57 35q7 14 7 29v192q0 39 -35 57q-14 7 -29 7zM160 128h-96 q-24 0 -31 22q-1 6 -1 10v192q0 24 22 31q6 1 10 1h96v-256zM384 128h-192v256h192v-256zM480 160q0 -24 -22 -31q-6 -1 -10 -1h-32v256h32q24 0 31 -22q1 -6 1 -10v-192z" />
<glyph unicode="&#xe095;" d="M256 64q24 0 31 22q1 6 1 10q0 24 -22 31q-6 1 -10 1q-24 0 -31 -22q-1 -6 -1 -10q0 -24 22 -31q6 -1 10 -1zM352 512h-192q-39 0 -57 -35q-7 -14 -7 -29v-384q0 -39 35 -57q14 -7 29 -7h192q39 0 57 35q7 14 7 29v384q0 39 -35 57q-14 7 -29 7zM384 64q0 -24 -22 -31 q-6 -1 -10 -1h-192q-24 0 -31 22q-1 6 -1 10v96h256v-96zM384 192h-256v192h256v-192zM384 416h-256v32q0 24 22 31q6 1 10 1h192q24 0 31 -22q1 -6 1 -10v-32z" />
<glyph unicode="&#xe096;" d="M416 512h-416v-512h512v512h-96zM128 480h256v-160h-256v160zM480 32h-448v448h64v-192h320v192h64v-448zM224 352h128v96h-128v-96zM256 416h64v-32h-64v32z" />
<glyph unicode="&#xe097;" d="M416 512h-416v-512h512v512h-96zM128 480h256v-160h-256v160zM480 32h-448v448h64v-192h320v192h64v-448zM288 352h32v96h-32v-96z" />
<glyph unicode="&#xe098;" d="M64 288h32v32h-32v-32zM64 224h32v32h-32v-32zM416 416h-320q-53 0 -81 -45q-15 -24 -15 -51v-160q0 -53 45 -81q24 -15 51 -15h320q53 0 81 45q15 24 15 51v160q0 53 -45 81q-24 15 -51 15zM480 160q0 -39 -35 -57q-14 -7 -29 -7h-320q-39 0 -57 35q-7 14 -7 29v160 q0 39 35 57q14 7 29 7h320q39 0 57 -35q7 -14 7 -29v-160zM160 352h-32v-224h256v224h-224zM352 160h-192v160h192v-160zM416 288h32v32h-32v-32zM416 224h32v32h-32v-32z" />
<glyph unicode="&#xe099;" d="M224 512q-101 0 -168 -76q-56 -64 -56 -148q0 -101 76 -168q64 -56 148 -56q101 0 168 76q56 64 56 148q0 101 -76 168q-64 56 -148 56zM224 96q-90 0 -147 69q-45 54 -45 123q0 90 69 147q54 45 123 45q90 0 147 -69q45 -54 45 -123q0 -90 -69 -147q-54 -45 -123 -45z M507 28l-91 91q-11 -13 -23 -23l91 -91q11 -8 23 0q8 11 0 23z" />
<glyph unicode="&#xe09a;" d="M480 448h-243q-13 31 -45 32h-80q-33 -1 -45 -32h-35q-24 0 -31 -22q-1 -6 -1 -10v-352q0 -24 22 -31q6 -1 10 -1h448q24 0 31 22q1 6 1 10v352q0 24 -22 31q-6 1 -10 1zM112 448h80q15 -2 16 -16q-2 -15 -16 -16h-80q-15 2 -16 16q2 15 16 16zM480 80q-2 -15 -16 -16 h-416q-15 2 -16 16v320q2 15 16 16h19q13 -31 45 -32h80q33 1 45 32h227q15 -2 16 -16v-320zM256 352q-66 0 -104 -54q-24 -34 -24 -74q0 -66 54 -104q34 -24 74 -24q66 0 104 54q24 34 24 74q0 66 -54 104q-34 24 -74 24zM256 128q-53 0 -81 45q-15 24 -15 51q0 53 45 81 q24 15 51 15q53 0 81 -45q15 -24 15 -51q0 -53 -45 -81q-24 -15 -51 -15z" />
<glyph unicode="&#xe09b;" d="M192 416v64h-192v-480h512v416h-320zM32 448h128v-32h-128v32zM480 32h-448v352h448v-352zM96 192q0 -66 54 -104q34 -24 74 -24q66 0 104 54q24 34 24 74q0 66 -54 104q-34 24 -74 24q-66 0 -104 -54q-24 -34 -24 -74zM224 288q53 0 81 -45q15 -24 15 -51q0 -53 -45 -81 q-24 -15 -51 -15q-53 0 -81 45q-15 24 -15 51q0 53 45 81q24 15 51 15zM448 352h-96v-32h96v32z" />
<glyph unicode="&#xe09c;" d="M480 416h-80l-16 32l-13 20q-10 12 -19 12h-192q-8 0 -16 -8t-12 -16l-4 -8l-16 -32h-80q-24 0 -31 -22q-1 -6 -1 -10v-320q0 -24 22 -31q6 -1 10 -1h448q24 0 31 22q1 6 1 10v320q0 24 -22 31q-6 1 -10 1zM480 80q-2 -15 -16 -16h-416q-15 2 -16 16v288q2 15 16 16h81 l25 44l11 14q8 6 14 6h154q14 0 25 -20l25 -44h81q15 -2 16 -16v-288zM256 352q-66 0 -104 -54q-24 -34 -24 -74q0 -66 54 -104q34 -24 74 -24q66 0 104 54q24 34 24 74q0 66 -54 104q-34 24 -74 24zM256 128q-53 0 -81 45q-15 24 -15 51q0 53 45 81q24 15 51 15 q53 0 81 -45q15 -24 15 -51q0 -53 -45 -81q-24 -15 -51 -15z" />
<glyph unicode="&#xe09d;" d="M448 416h-64q0 39 -35 57q-14 7 -29 7h-128q-39 0 -57 -35q-7 -14 -7 -29h-64q-39 0 -57 -35q-7 -14 -7 -29v-288q0 -39 35 -57q14 -7 29 -7h384q39 0 57 35q7 14 7 29v288q0 39 -35 57q-14 7 -29 7zM192 448h128q24 0 31 -22q1 -6 1 -10h-192q0 24 22 31q6 1 10 1z M480 64q0 -24 -22 -31q-6 -1 -10 -1h-384q-24 0 -31 22q-1 6 -1 10v192h64v32h-64v32h64v32h-64q0 24 22 31q6 1 10 1h384q24 0 31 -22q1 -6 1 -10v-288zM256 320q-66 0 -104 -54q-24 -34 -24 -74q0 -66 54 -104q34 -24 74 -24q66 0 104 54q24 34 24 74q0 66 -54 104 q-34 24 -74 24zM256 96q-53 0 -81 45q-15 24 -15 51q0 53 45 81q24 15 51 15q53 0 81 -45q15 -24 15 -51q0 -53 -45 -81q-24 -15 -51 -15z" />
<glyph unicode="&#xe09e;" d="M448 416h-48l-27 48q-31 47 -53 48h-128q-32 0 -77 -90l-3 -6h-48q-39 0 -57 -35q-7 -14 -7 -29v-288q0 -39 35 -57q14 -7 29 -7h384q39 0 57 35q7 14 7 29v288q0 39 -35 57q-14 7 -29 7zM192 480h128q18 0 48 -64h-224l23 41q16 22 25 23zM32 288h104q-9 -15 -15 -32 h-89v32zM480 64q0 -24 -22 -31q-6 -1 -10 -1h-384q-24 0 -31 22q-1 6 -1 10v160h82q-2 -10 -2 -16q0 -73 58 -116q39 -28 86 -28q71 0 115 57q29 38 29 87q0 7 -2 16h82v-160zM144 208q0 60 49 93q29 19 63 19q60 0 93 -49q19 -29 19 -63q0 -60 -49 -93q-29 -19 -63 -19 q-60 0 -93 49q-19 29 -19 63zM480 256h-89q-7 18 -15 32h104v-32zM480 320h-134q-41 32 -90 32q-51 -1 -89 -32h-135v32q0 24 22 31q6 1 10 1h384q24 0 31 -22q1 -6 1 -10v-32z" />
<glyph unicode="&#xe09f;" d="M320 448v-224q0 -39 -35 -57q-14 -7 -29 -7q-39 0 -57 35q-7 14 -7 29v224h-128v-224q0 -90 69 -147q54 -45 123 -45q90 0 147 69q45 54 45 123v224h-128zM96 416h64v-64h-64v64zM416 224q0 -77 -61 -125q-43 -35 -99 -35q-77 0 -125 61q-35 44 -35 99v96h64v-96 q0 -53 45 -81q24 -15 51 -15q53 0 81 45q15 24 15 51v96h64v-96zM416 352h-64v64h64v-64z" />
<glyph unicode="&#xe0a0;" d="M288 194v-98h32v98q-16 -3 -32 0zM215 237l-215 -214l23 -23l214 214l-6 6q-4 3 -6 5q-5 5 -10 12zM194 320h-98v-32h98q-3 17 0 32zM225 383q1 2 3 3.5t6 3.5l3 3l-88 87l-21 -21l87 -88q6 8 10 12zM383 225q-5 -5 -12 -10l88 -87l21 21l-87 88q-8 -11 -10 -12zM288 414 q17 3 32 0v98h-32v-98zM414 320q3 -16 0 -32h98v32h-98zM393 371l87 88l-21 21l-88 -87q8 -6 12 -10q5 -5 10 -12z" />
<glyph unicode="&#xe0a1;" d="M183 205l-183 -182l23 -23l183 182q-10 8 -13 11q-5 5 -10 12zM256 162v-130h32v130q-16 -3 -32 0zM162 288h-130v-32h130q-3 17 0 32zM193 351q1 2 3 3.5t6 3.5l3 3l-88 87l-21 -21l87 -88q6 8 10 12zM382 288q3 -16 0 -32h130v32h-130zM256 382q17 3 32 0v130h-32v-130 zM351 193q-5 -5 -12 -10l88 -87l21 21l-87 88q-6 -8 -10 -12zM361 339l87 88l-21 21l-88 -87q8 -6 12 -10q5 -5 10 -12z" />
<glyph unicode="&#xe0a2;" d="M512 320h-80q-32 78 -111 111q-39 17 -81 17q-95 0 -158 -72q-50 -59 -50 -136q0 -95 72 -158q59 -50 136 -50q88 1 150 64h-49q-47 -32 -101 -32q-84 0 -137 65q-39 49 -39 111q0 84 65 137q49 39 111 39q83 0 136 -65q12 -15 20 -31h-44l64 -76l16 -20l16 19z" />
<glyph unicode="&#xe0a3;" d="M304 448q-95 0 -157 -73q-21 -25 -33 -55h-82l80 -96l80 96h-44q36 70 111 90q22 6 45 6q84 0 137 -65q39 -49 39 -111q0 -84 -65 -137q-49 -39 -111 -39q-55 1 -101 32h-49q63 -64 150 -64q95 0 158 72q50 59 50 136q0 95 -72 158q-59 50 -136 50z" />
<glyph unicode="&#xe0a4;" d="M502 403q18 18 5 39q-3 4 -5 6l-22 23q-19 17 -40 4q-3 -2 -5 -4l-242 -241q-1 -1 -1.5 -2l-1.5 -3l-1 -2q-51 9 -93 -30q-23 -22 -18 -66q5 -42 -5 -60q-12 -19 -41 -34h66q130 7 158 64q12 28 0 62q4 2 5 3zM446 437q11 9 23 0q9 -11 0 -23l-163 -162l-23 23zM224 97 q-11 -16 -43 -24t-59 -8h-26q15 15 13 50q-3 39 17 60l2 2q28 28 57 26q2 -12 8 -18l23 -23q6 -5 15 -8q9 -33 -7 -57zM250 196q-12 -9 -23 0q-9 11 0 22l34 34l22 -22z" />
<glyph unicode="&#xe0a5;" d="M384 480v-438l-112 96l-112 -96v438h224zM384 512h-224q-24 0 -31 -22q-1 -6 -1 -10v-448q0 -24 22 -31q6 -1 10 -1l112 96l112 -96q24 0 31 22q1 6 1 10v448q0 24 -22 31q-6 1 -10 1z" />
<glyph unicode="&#xe0a6;" d="M96 512v-512l160 128l160 -128v512h-320zM384 64l-128 112l-128 -112v416h256v-416z" />
<glyph unicode="&#xe0a7;" d="M160 112h32v192h-32v-192zM496 448h-144v48q-2 15 -16 16h-128q-15 -2 -16 -16v-48h-144q-15 -2 -16 -16q2 -15 16 -16h16v-384q0 -24 22 -31q6 -1 10 -1h352q24 0 31 22q1 6 1 10v384h16q15 2 16 16q-2 15 -16 16zM224 480h96v-32h-96v32zM448 400v-352q-2 -15 -16 -16 h-320q-15 2 -16 16v368h352v-16zM352 112h32v192h-32v-192zM256 112h32v224h-32v-224z" />
<glyph unicode="&#xe0a8;" d="M496 448h-144v48q-2 15 -16 16h-128q-15 -2 -16 -16v-48h-144q-15 -2 -16 -16q2 -15 16 -16h16v-384q0 -24 22 -31q6 -1 10 -1h352q24 0 31 22q1 6 1 10v384h16q15 2 16 16q-2 15 -16 16zM224 480h96v-32h-96v32zM448 400v-352q-2 -15 -16 -16h-320q-15 2 -16 16v368h352 v-16z" />
<glyph unicode="&#xe0a9;" d="M448 448h-96v48q-2 15 -16 16h-128q-15 -2 -16 -16v-48h-96q-24 0 -31 -22q-1 -6 -1 -10v-32q0 -24 22 -31q6 -1 10 -1v-320q0 -24 22 -31q6 -1 10 -1h288q24 0 31 22q1 6 1 10v320q24 0 31 22q1 6 1 10v32q0 24 -22 31q-6 1 -10 1zM224 480h96v-32h-96v32zM416 336v-288 q-2 -15 -16 -16h-256q-15 2 -16 16v304h288v-16zM432 384h-320q-15 2 -16 16q2 15 16 16h320q15 -2 16 -16q-2 -15 -16 -16zM192 64h32v224h-32v-224zM320 64h32v224h-32v-224zM256 64h32v224h-32v-224z" />
<glyph unicode="&#xe0aa;" d="M448 448h-96v48q-2 15 -16 16h-128q-15 -2 -16 -16v-48h-96q-24 0 -31 -22q-1 -6 -1 -10v-32q0 -24 22 -31q6 -1 10 -1v-320q0 -24 22 -31q6 -1 10 -1h288q24 0 31 22q1 6 1 10v320q24 0 31 22q1 6 1 10v32q0 24 -22 31q-6 1 -10 1zM224 480h96v-32h-96v32zM416 336v-288 q-2 -15 -16 -16h-256q-15 2 -16 16v304h288v-16zM432 384h-320q-15 2 -16 16q2 15 16 16h320q15 -2 16 -16q-2 -15 -16 -16z" />
<glyph unicode="&#xe0ab;" d="M160 512v-416l96 -96l96 96v416h-192zM320 112l-64 -64l-64 64v16h128v-16zM320 160h-128v224h128v-224zM320 416h-128v64h128v-64z" />
<glyph unicode="&#xe0ac;" d="M332 326l52 91l-164 95l-220 -383l34 -129l130 35zM58 41l-23 86l109 -63zM160 91l-109 63l134 233l109 -63zM200 414l32 55l109 -63l-31 -55zM224 32v-32h288v32h-288z" />
<glyph unicode="&#xe0ad;" d="M496 64h-224q-15 -2 -16 -16q2 -15 16 -16h224q15 2 16 16q-2 15 -16 16zM304 416h192q15 2 16 16q-2 15 -16 16h-192q-15 -2 -16 -16q2 -15 16 -16zM315 325q9 11 0 23l-128 127q-6 5 -11 5q-7 -1 -12 -5l-127 -127q-11 -12 0 -23t23 0l100 99v-376q2 -15 16 -16 q15 2 16 16v376l100 -99q11 -11 23 0zM496 160h-224q-15 -2 -16 -16q2 -15 16 -16h224q15 2 16 16q-2 15 -16 16zM496 352h-128q-15 -2 -16 -16q2 -15 16 -16h128q15 2 16 16q-2 15 -16 16zM496 256h-224q-15 -2 -16 -16q2 -15 16 -16h224q15 2 16 16q-2 15 -16 16z" />
<glyph unicode="&#xe0ae;" d="M314 187q-11 11 -23 0l-100 -99v376q-2 15 -16 16q-15 -2 -16 -16v-376l-100 99q-11 10 -23 0q-9 -11 0 -23l128 -127q6 -5 11 -5q7 1 12 5l127 127q11 12 0 23zM496 96h-192q-15 -2 -16 -16q2 -15 16 -16h192q15 2 16 16q-2 15 -16 16zM271 448h225q15 2 16 16 q-2 15 -16 16h-225q-13 -3 -16 -16q3 -13 16 -16zM496 288h-225q-13 -3 -16 -16q3 -13 16 -16h225q15 2 16 16q-2 15 -16 16zM496 192h-128q-15 -2 -16 -16q2 -15 16 -16h128q15 2 16 16q-2 15 -16 16zM496 384h-225q-13 -3 -16 -16q3 -13 16 -16h225q15 2 16 16 q-2 15 -16 16z" />
<glyph unicode="&#xe0af;" d="M192 512v-32h-64v-192h32v160h32v-352h40l24 -96h64l24 96h40v416h-192zM295 32h-14l-25 64h64zM352 128h-128v288h128v-288zM352 448h-128v32h128v-32z" />
<glyph unicode="&#xe0b0;" d="M224 32v-32h288v32h-288zM351 356l33 56l-171 96l-16 -28l-57 32l-98 -166l28 -16l82 138l29 -16l-181 -305l36 -20l-28 -95l57 -32l70 71l36 -20zM67 35l-29 17l24 60l47 -26zM159 95l-114 64l148 249l113 -64zM323 372l-114 64l16 28l114 -64z" />
<glyph unicode="&#xe0b1;" d="M256 512q-59 0 -64 -78v-18v-304q0 -50 62 -110l2 -2l28 31q35 46 36 81v304q0 86 -50 95q-7 1 -14 1zM288 112q0 -16 -8 -32t-16 -24l-8 -8l-17 21q-15 23 -15 43v208h64v-208zM288 352h-64v32h64v-32zM288 416h-64q0 45 8 55q8 9 24 9q28 0 31 -30q1 -8 1 -34z" />
<glyph unicode="&#xe0b2;" d="M415 502q-57 31 -105 -42q-3 -5 -5 -9l-17 -28l-17 -28l-8 -13l-154 -252q-26 -43 -2 -128l1 -2l47 15q54 22 72 51l196 320q45 75 6 107q-7 5 -14 9zM197 82q-18 -31 -63 -40l-5 29q-1 26 9 43l145 237l59 -32zM359 347l-59 32l17 28l59 -32zM393 402l-59 33 q22 36 32 42q14 6 32 -3q28 -14 10 -47q-2 -4 -15 -25z" />
<glyph unicode="&#xe0b3;" d="M272 512q-47 0 -70 -40q-11 -18 -11 -40v-304l64 -128h33l64 128v304q0 45 -39 69q-20 11 -41 11zM272 32l-49 96h97zM320 224v-64h-97v224h97v-160zM320 416h-97v16q0 31 29 44q10 4 20 4q30 0 44 -28q4 -10 4 -20v-16z" />
<glyph unicode="&#xe0b4;" d="M406 501q-42 24 -84 -1q-18 -11 -28 -27l-13 -22l-12 -20l-140 -233q-2 -4 -4 -9l-20 -32h-1v-2l-8 -13l7 -3l-7 -123l28 -16l107 68l8 -4l49 81v1l148 247q25 41 -1 81q-11 17 -29 27zM126 35l6 88l71 -39zM235 121l-86 48l149 247l85 -48zM408 409l-8 -14l-86 48l8 14 q18 28 51 23q10 -2 17 -6q28 -16 24 -48q-2 -10 -6 -17z" />
<glyph unicode="&#xe0b5;" d="M263 208l249 249l-23 23l-249 -249zM416 48q-2 -15 -16 -16h-320q-15 2 -16 16v320q2 15 16 16h240v32h-256q-24 0 -31 -22q-1 -6 -1 -10v-352q0 -24 22 -31q6 -1 10 -1h352q24 0 31 22q1 6 1 10v256h-32v-240z" />
<glyph unicode="&#xe0b6;" d="M436 32h-242q-15 -2 -16 -16q2 -15 16 -16h242q15 2 16 16q-2 15 -16 16zM16 384h420q15 2 16 16q-2 15 -16 16h-420q-15 -2 -16 -16q2 -15 16 -16zM436 288h-291q-15 -2 -16 -16q2 -15 16 -16h291q15 2 16 16q-2 15 -16 16zM436 160h-420q-15 -2 -16 -16q2 -15 16 -16 h420q15 2 16 16q-2 15 -16 16z" />
<glyph unicode="&#xe0b7;" d="M81 288q-15 -2 -16 -16q2 -15 16 -16h290q15 2 16 16q-2 15 -16 16h-290zM16 384h420q15 2 16 16q-2 15 -16 16h-420q-15 -2 -16 -16q2 -15 16 -16zM436 160h-420q-15 -2 -16 -16q2 -15 16 -16h420q15 2 16 16q-2 15 -16 16zM355 32h-242q-15 -2 -16 -16q2 -15 16 -16 h242q15 2 16 16q-2 15 -16 16z" />
<glyph unicode="&#xe0b8;" d="M16 384h416q15 2 16 16q-2 15 -16 16h-416q-15 -2 -16 -16q2 -15 16 -16zM16 256h288q15 2 16 16q-2 15 -16 16h-288q-15 -2 -16 -16q2 -15 16 -16zM256 32h-240q-15 -2 -16 -16q2 -15 16 -16h240q15 2 16 16q-2 15 -16 16zM432 160h-416q-15 -2 -16 -16q2 -15 16 -16 h416q15 2 16 16q-2 15 -16 16z" />
<glyph unicode="&#xe0b9;" d="M448 512h-352q-24 0 -31 -22q-1 -6 -1 -10v-64h-16q-15 -2 -16 -16q2 -15 16 -16h16v-64h-16q-15 -2 -16 -16q2 -15 16 -16h16v-64h-16q-15 -2 -16 -16q2 -15 16 -16h16v-64h-16q-15 -2 -16 -16q2 -15 16 -16h16v-64q0 -24 22 -31q6 -1 10 -1h352q24 0 31 22q1 6 1 10 v448q0 24 -22 31q-6 1 -10 1zM352 32h-240q-15 2 -16 16v48h16q15 2 16 16q-2 15 -16 16h-16v64h16q15 2 16 16q-2 15 -16 16h-16v64h16q15 2 16 16q-2 15 -16 16h-16v64h16q15 2 16 16q-2 15 -16 16h-16v48q2 15 16 16h240v-448zM448 48q-2 -15 -16 -16h-48v448h48 q15 -2 16 -16v-416z" />
<glyph unicode="&#xe0ba;" d="M435 436q-54 54 -130 42q-50 -8 -85 -42q-55 -56 -42 -133q7 -38 31 -69l-140 -128q-7 -7 -4 -15l-1 -1l90 -90l22 22l-72 73l43 39l71 -70l22 22l-69 70l61 55q58 -48 131 -31q42 11 72 40q55 55 43 132q-8 49 -43 84zM413 243q-46 -46 -109 -33q-35 8 -61 33 q-46 46 -33 109q8 35 33 61q46 46 109 33q35 -8 61 -33q46 -46 33 -109q-8 -35 -33 -61z" />
<glyph unicode="&#xe0bb;" d="M328 287q40 39 40 97q0 68 -49 106q-29 22 -63 22q-58 0 -91 -54q-21 -33 -21 -74q1 -59 40 -97l-88 -223q0 -39 35 -57q14 -7 29 -7h192q39 0 57 35q7 14 7 29zM176 384q0 55 40 83q19 13 40 13q44 0 68 -45q12 -24 12 -51q0 -55 -40 -83q-19 -13 -40 -13q-44 0 -68 45 q-12 24 -12 51zM352 32h-192q-24 0 -31 22q-1 6 -1 10l82 203q23 -11 46 -11q24 0 46 11l82 -203q0 -24 -22 -31q-6 -1 -10 -1z" />
<glyph unicode="&#xe0bc;" d="M349 313q19 32 19 71q0 68 -49 106q-29 22 -63 22q-58 0 -91 -54q-21 -33 -21 -74q1 -40 19 -71q-34 -19 -35 -57l48 -192l19 -32q23 -32 45 -32h32q16 0 32 16t24 32l8 16l48 192q-1 38 -35 57zM256 480q44 0 68 -45q12 -24 12 -51q0 -55 -40 -83q-19 -13 -40 -13 q-44 0 -68 45q-12 24 -12 51q0 55 40 83q19 13 40 13zM304 64q-13 -25 -20 -29q-6 -3 -12 -3h-32q-18 0 -27 21q-2 5 -5 11l-48 192q1 24 24 30q34 -30 72 -30q39 1 72 30q22 -8 24 -30z" />
<glyph unicode="&#xe0bd;" d="M144 128h96q15 2 16 16q-2 15 -16 16h-96q-15 -2 -16 -16q2 -15 16 -16zM384 512q-66 0 -104 -54q-24 -34 -24 -74v-64h-192q-38 0 -56 -35q-8 -16 -8 -32v-186v-3v-64h384v64v3v186q0 41 -35 60q-14 7 -29 7h-32v64q0 53 45 81q24 15 51 15q53 0 81 -45q15 -24 15 -51 v-32h32v32q0 66 -54 104q-34 24 -74 24zM320 288q23 0 30 -23q2 -6 2 -11v-188v-2v-32h-320v32v2v188q0 26 23 33q5 1 9 1h256z" />
<glyph unicode="&#xe0be;" d="M336 160h-96q-15 -2 -16 -16q2 -15 16 -16h96q15 2 16 16q-2 15 -16 16zM416 320h-256v48q0 60 49 93q29 19 63 19q59 0 92 -49q15 -22 18 -47h32q-8 70 -67 107q-35 21 -75 21q-73 0 -116 -59q-28 -38 -28 -85v-48q-39 0 -57 -35q-7 -14 -7 -29v-256h416v256 q0 39 -35 57q-14 7 -29 7zM448 64q0 -24 -22 -31q-6 -1 -10 -1h-288q-24 0 -31 22q-1 6 -1 10v192q0 24 22 31q6 1 10 1h288q24 0 31 -22q1 -6 1 -10v-192z" />
<glyph unicode="&#xe0bf;" d="M416 320v48q0 71 -57 115q-40 29 -87 29q-71 0 -115 -57q-29 -40 -29 -87v-48q-39 0 -57 -35q-7 -14 -7 -29v-256h416v256q0 39 -35 57q-14 7 -29 7zM160 368q0 60 49 93q29 19 63 19q60 0 93 -49q19 -29 19 -63v-48h-224v48zM448 64q0 -24 -22 -31q-6 -1 -10 -1h-288 q-24 0 -31 22q-1 6 -1 10v192q0 24 22 31q6 1 10 1h288q24 0 31 -22q1 -6 1 -10v-192zM272 224q-15 -2 -16 -16v-96q2 -15 16 -16q15 2 16 16v96q-2 15 -16 16z" />
<glyph unicode="&#xe0c0;" d="M192 176q2 -15 16 -16h64q15 2 16 16q-2 15 -16 16h-64q-15 -2 -16 -16zM352 512q-66 0 -104 -54q-24 -34 -24 -74v-34q-83 -7 -129 -75q-31 -45 -31 -99q0 -84 65 -137q49 -39 111 -39q84 0 137 65q39 49 39 111q0 84 -65 136q-42 33 -95 38v34q0 53 45 81q24 15 51 15 q53 0 81 -45q15 -24 15 -51h32q0 66 -54 104q-34 24 -74 24zM384 176q0 -73 -59 -116q-38 -28 -85 -28q-73 0 -116 58q-28 39 -28 86q0 71 57 115q39 29 87 29q71 0 115 -57q29 -40 29 -87z" />
<glyph unicode="&#xe0c1;" d="M304 192h-64q-15 -2 -16 -16q2 -15 16 -16h64q15 2 16 16q-2 15 -16 16zM272 352q-61 -1 -112 -41v69q0 53 49 83q29 17 63 17q61 0 94 -47q16 -23 18 -49h32q-3 66 -61 104q-38 24 -83 24q-74 0 -117 -55q-27 -35 -27 -78v-102q-32 -47 -32 -101q0 -84 65 -137 q49 -39 111 -39q84 0 137 65q39 49 39 111q0 84 -65 137q-49 39 -111 39zM272 32q-73 0 -116 58q-28 39 -28 86q0 71 57 115q39 29 87 29q73 0 116 -59q28 -38 28 -85q0 -73 -59 -116q-38 -28 -85 -28z" />
<glyph unicode="&#xe0c2;" d="M416 277v102q0 67 -59 107q-38 26 -85 26q-73 0 -117 -55q-27 -35 -27 -78v-102q-32 -47 -32 -101q0 -84 65 -137q49 -39 111 -39q84 0 137 65q39 49 39 111q-1 55 -32 101zM160 380q0 53 49 83q29 17 63 17q62 0 95 -46q17 -26 17 -54v-69q-50 41 -112 41 q-61 -1 -112 -41v69zM272 32q-73 0 -116 58q-28 39 -28 86q0 71 57 115q39 29 87 29q73 0 116 -59q28 -38 28 -85q0 -73 -59 -116q-38 -28 -85 -28zM272 224q-15 -2 -16 -16v-64q2 -15 16 -16q15 2 16 16v64q-2 15 -16 16z" />
<glyph unicode="&#xe0c3;" d="M256 512q-111 0 -187 -82q-69 -74 -69 -174q0 -111 82 -187q74 -69 174 -69q111 0 187 82q69 74 69 174q0 111 -82 187q-74 69 -174 69zM260 32h-8q-74 2 -134 49q5 14 18 21q5 3 18.5 9.5t24.5 11.5t27 13l16 7l2 17v32q-47 26 -48 96q0 70 25 86q17 10 55 10 q55 0 69 -25q11 -21 11 -71q-1 -71 -48 -96v-32l2 -17q4 -2 21 -9q59 -25 70 -32q9 -7 13 -21q-61 -47 -134 -49zM418 103l-5 8q-2 4 -3 5l-1 2h-1q-1 2 -2 3q-13 13 -99 38q-2 1 -3 1q58 41 64 115v13q-2 127 -112 128q-101 0 -111 -107q-1 -10 -1 -21q0 -75 57 -122 q5 -3 8 -6q-1 0 -11 -3q-81 -27 -92 -36q-1 -1 -2 -3l-3 -3l-7 -12q-62 65 -62 153q0 101 76 168q64 56 148 56q101 0 168 -76q56 -64 56 -148q-1 -88 -62 -153z" />
<glyph unicode="&#xe0c4;" d="M416 256h-25q13 -16 19 -32h6q39 0 57 -35q7 -14 7 -29q0 -39 -35 -57q-14 -7 -29 -7v-32q53 0 81 45q15 24 15 51q0 53 -45 81q-24 15 -51 15zM480 384q0 68 -49 106q-29 22 -63 22q-23 0 -47 -12q12 -12 22 -25q14 5 25 5q44 0 68 -45q12 -24 12 -51q0 -56 -40 -83 q-17 -10 -34 -12q-1 -3 -2 -7q-2 -6 -3 -8q13 -8 20 -16q54 12 79 68q12 28 12 58zM318 251q34 44 34 101q0 80 -58 128q-39 32 -86 32q-71 0 -114 -62q-30 -44 -30 -98q1 -57 33 -101q-45 -16 -60 -62q-5 -15 -5 -29v-64q0 -53 45 -81q24 -15 51 -15h160q53 0 81 45 q15 24 15 51v64q0 53 -45 81q-11 6 -21 10zM96 352q0 68 49 106q29 22 63 22q58 0 91 -54q21 -33 21 -74q0 -68 -49 -106q-29 -22 -63 -22q-58 0 -91 54q-21 33 -21 74zM352 96q0 -39 -35 -57q-14 -7 -29 -7h-160q-39 0 -57 35q-7 14 -7 29v64q0 40 36 57q11 5 23 6 q40 -31 85 -31q46 1 85 31q38 -2 54 -37q5 -13 5 -26v-64z" />
<glyph unicode="&#xe0c5;" d="M500 42l-27 -5q-33 -4 -91 -5q-4 -14 -10 -22l-29 -5q-49 -5 -150 -5l-181 10q-23 29 -5 72q6 15 15 23q10 9 119 37q-15 8 -26 18h-79q12 0 19 28t9 56l1 28q0 2 -1 5v5q0 105 74 127q24 7 54 7q110 0 125 -94q3 -19 3 -40q0 -9 -2 -26l6 -54q8 -42 24 -42h-79 q-12 -10 -26 -18q104 -24 119 -37q23 -20 21 -62v-6l21 5q6 9 10 22h49q21 8 16 36q-5 18 -16 24q-18 9 -95 27l-2 57q12 10 18 16h46q-12 1 -14 89q0 81 -55 98q-18 5 -41 5q-20 19 -48 26q28 6 48 6q110 0 125 -94q3 -19 3 -40q0 -9 -2 -26l6 -54q9 -41 24 -42h-79 q-12 -10 -26 -18q104 -24 119 -37q24 -22 22 -61q-2 -20 -12 -34zM335 92q-24 10 -111 32v43q20 10 32 25h46q-12 1 -14 89q0 81 -55 98q-18 5 -41 5q-83 0 -94 -71q-2 -15 -2 -32q0 -59 -9 -83q-3 -5 -5 -6h46q13 -15 32 -25v-42q-72 -18 -107 -33q-18 -8 -21 -32 q-2 -22 16 -28h142h145q21 8 16 36q-5 18 -16 24z" />
<glyph unicode="&#xe0c6;" d="M253 172q46 45 51 124v11q0 113 -68 135q-20 6 -44 6q-95 0 -109 -97q-3 -20 -3 -44q0 -78 43 -128l8 -8q-96 -23 -109 -33q-25 -23 -22 -63q2 -20 12 -33l32 -5q50 -5 149 -5l179 10q23 29 5 73q-6 14 -15 23q-9 7 -109 34zM335 64h-145h-142q-24 9 -13 38q7 16 18 22 q24 10 99 31l4 13v22q-39 33 -44 103v13q0 89 49 105q14 5 31 5q68 0 78 -74q2 -16 2 -36q0 -68 -35 -107q-4 -5 -9 -9v-22l4 -14q92 -25 103 -30q17 -8 17 -34q-2 -20 -17 -26zM490 186q-13 10 -108 33q46 44 50 117v10q0 108 -69 128q-20 6 -43 6q-38 0 -67 -17 q34 -4 54 -16h6q5 1 7 1q68 0 78 -70q2 -15 2 -33q0 -61 -35 -100q-5 -5 -9 -8v-21l4 -14q92 -25 103 -30q17 -7 17 -32q-2 -22 -17 -28h-49q3 -14 1 -31l85 9q23 29 5 73q-6 14 -15 23z" />
<glyph unicode="&#xe0c7;" d="M160 171v36q-17 12 -21 17h-59q10 0 14 28t3 56l-1 28v3q2 140 112 141q111 -1 112 -141v-3l5 -78q4 -33 11 -34h-59q-8 -8 -21 -17v-36q17 7 32 21h96q-25 1 -34 122q2 16 2 26q-2 171 -144 172q-143 -1 -144 -172q0 -10 2 -27q-10 -120 -34 -121h96q16 -14 32 -21z M400 384h96q15 2 16 16q-2 15 -16 16h-96q-15 -2 -16 -16q2 -15 16 -16zM264 170h-8v-33q94 -28 109 -35q18 -9 19 -38q-1 -25 -19 -32h-151h-163q-27 10 -17 42q8 21 22 28q18 8 104 33v33q-117 -27 -135 -43q-26 -25 -25 -71q1 -26 13 -43l32 -6q56 -5 172 -5 q189 0 186 11q25 35 6 85q-7 18 -18 29q-6 6 -38 17.5t-61 19.5zM496 224h-64q-15 -2 -16 -16q2 -15 16 -16h64q15 2 16 16q-2 15 -16 16zM496 320h-96q-15 -2 -16 -16q2 -15 16 -16h96q15 2 16 16q-2 15 -16 16zM496 128h-32q-15 -2 -16 -16q2 -15 16 -16h32q15 2 16 16 q-2 15 -16 16z" />
<glyph unicode="&#xe0c8;" d="M368 384h128q15 2 16 16q-2 15 -16 16h-128q-15 -2 -16 -16q2 -15 16 -16zM496 320h-128q-15 -2 -16 -16q2 -15 16 -16h128q15 2 16 16q-2 15 -16 16zM496 224h-96q-15 -2 -16 -16q2 -15 16 -16h96q15 2 16 16q-2 15 -16 16zM287 251q33 45 33 101q0 80 -58 128 q-39 32 -86 32q-71 0 -114 -62q-30 -44 -30 -98q1 -57 33 -101q-45 -16 -60 -62q-5 -15 -5 -29v-64q0 -53 45 -81q24 -15 51 -15h160q53 0 81 45q15 24 15 51v64q0 53 -45 81q-10 6 -20 10zM64 352q0 68 49 106q29 22 63 22q58 0 91 -54q21 -33 21 -74q0 -68 -49 -106 q-29 -22 -63 -22q-58 0 -91 54q-21 33 -21 74zM320 96q0 -39 -35 -57q-14 -7 -29 -7h-160q-39 0 -57 35q-7 14 -7 29v64q0 40 36 57q11 5 23 6q40 -31 85 -31q46 1 85 31q38 -2 54 -37q5 -13 5 -26v-64zM496 128h-96q-15 -2 -16 -16q2 -15 16 -16h96q15 2 16 16 q-2 15 -16 16z" />
<glyph unicode="&#xe0c9;" d="M264 170h-11q61 26 88 103q11 33 11 67q-2 171 -144 172q-143 -1 -144 -172q0 -80 51 -136q23 -24 50 -35q-120 -28 -140 -44q-26 -25 -25 -71q1 -26 13 -43l23 -5q50 -6 172 -6q190 0 195 11q25 35 6 85q-7 18 -18 29q-6 6 -38 17.5t-61 19.5zM365 32h-151h-163 q-27 12 -16 50q8 22 21 30q24 12 126 46l4 20v17q-53 14 -78 80q-12 32 -12 65q2 139 112 140q111 -1 112 -140q0 -71 -44 -117q-15 -14 -30 -22v-23l5 -24q89 -29 114 -42q19 -9 19 -42q0 -29 -19 -38zM400 384h96q15 2 16 16q-2 15 -16 16h-96q-15 -2 -16 -16 q2 -15 16 -16zM496 224h-64q-15 -2 -16 -16q2 -15 16 -16h64q15 2 16 16q-2 15 -16 16zM496 128h-32q-15 -2 -16 -16q2 -15 16 -16h32q15 2 16 16q-2 15 -16 16zM496 320h-96q-15 -2 -16 -16q2 -15 16 -16h96q15 2 16 16q-2 15 -16 16z" />
<glyph unicode="&#xe0ca;" d="M352 164q-8 2 -21 6q-17 4 -21 5q60 32 82 115q8 30 8 59q0 124 -79 153q-28 10 -65 10q-121 0 -140 -108q-4 -25 -4 -55q0 -85 51 -143q18 -20 39 -31q-119 -33 -135 -41q-6 -3 -9 -5q-27 -25 -26 -72q1 -27 14 -45l30 -6q57 -6 181 -6q69 0 95 1v31l-98 1l-174 -1 q-28 11 -17 49q8 23 23 31q25 12 128 44l6 32v13q-51 25 -69 97q-7 26 -7 50q0 101 61 124q22 8 51 8q95 0 109 -88q3 -20 3 -44q0 -73 -43 -122q-16 -16 -33 -25v-13l7 -35q5 -1 16 -4q25 -7 37 -11v26zM470 64l37 38q9 11 0 21q-11 9 -21 0l-38 -37l-38 37q-11 9 -21 0 q-9 -11 0 -21l37 -38l-37 -38q-9 -11 0 -21q11 -10 21 0l38 37l38 -37q11 -10 21 0q9 11 0 21z" />
<glyph unicode="&#xe0cb;" d="M320 181l-10 4q57 44 71 128q3 19 3 36q0 124 -79 153q-28 10 -65 10q-121 0 -140 -108q-4 -25 -4 -55q0 -84 51 -143q12 -12 23 -21q-129 -43 -144 -56q-27 -25 -26 -72q1 -27 14 -45l47 -7q65 -5 180 -5q56 0 79 1v31h-82h-190q-28 11 -17 49q8 23 23 31q13 6 96 39 q37 15 48 20l6 23v7q-50 25 -69 100q-7 26 -7 51q0 94 54 118q24 10 58 10q92 0 108 -79q4 -21 4 -49q0 -72 -42 -123q-16 -19 -34 -28v-7l6 -26q4 -2 14 -5l24 -9v27zM507 155q-11 9 -21 0l-86 -85l-22 21q-11 9 -21 0q-10 -11 0 -21l31 -32q1 -1 1 -2q5 -4 11 -4q7 1 11 4 l1 2l95 96q9 11 0 21z" />
<glyph unicode="&#xe0cc;" d="M320 169q-12 3 -26 6q60 32 82 115q8 30 8 59q0 124 -79 153q-28 10 -65 10q-121 0 -140 -108q-4 -25 -4 -55q0 -85 51 -143q18 -20 39 -31q-145 -32 -160 -46q-27 -25 -26 -72q1 -27 14 -45l47 -7q65 -5 180 -5q56 0 79 1v31h-82h-190q-28 11 -17 49q8 23 23 31 q16 7 144 44l6 32v13q-51 25 -69 97q-7 26 -7 50q0 101 61 124q22 8 51 8q95 0 109 -88q3 -20 3 -44q0 -73 -43 -122q-16 -16 -33 -25v-13l7 -34q13 -4 37 -9v24zM496 96h-128q-15 -2 -16 -16q2 -15 16 -16h128q15 2 16 16q-2 15 -16 16z" />
<glyph unicode="&#xe0cd;" d="M49 32q-28 11 -17 47q8 25 24 33q12 5 147 44l7 32v13q-52 25 -71 97q-7 26 -7 50q0 99 59 123q24 9 56 9q96 0 111 -85q4 -21 4 -47q0 -72 -44 -121q-16 -17 -34 -26v-13l7 -34q25 -6 71 -18v24q-1 0 -59 15q61 32 84 114q8 30 8 60q0 124 -81 153q-29 10 -67 10 q-125 0 -144 -109q-4 -25 -4 -54q0 -84 52 -142q19 -20 40 -32q-149 -33 -164 -46q-28 -24 -27 -71q0 -27 14 -46l48 -7q67 -5 186 -5q55 0 114 2v30h-117h-196zM496 96h-48v48q-2 15 -16 16q-15 -2 -16 -16v-48h-48q-15 -2 -16 -16q2 -15 16 -16h48v-48q2 -15 16 -16 q15 2 16 16v48h48q13 3 16 16q-2 15 -16 16z" />
<glyph unicode="&#xe0ce;" d="M486 129q-17 16 -160 46q60 32 82 115q8 30 8 59q0 124 -79 153q-28 10 -65 10q-121 0 -140 -108q-4 -25 -4 -55q0 -85 51 -143q18 -20 39 -31q-145 -32 -160 -46q-27 -25 -26 -72q1 -27 14 -45l47 -7q65 -5 180 -5q88 0 144 3t69 6l12 3q25 35 7 85q-7 21 -19 32z M464 32h-194h-190q-28 11 -17 49q8 23 23 31q16 7 144 44l6 32v13q-51 25 -69 97q-7 26 -7 50q0 101 61 124q22 8 51 8q95 0 109 -88q3 -20 3 -44q0 -73 -43 -122q-16 -16 -33 -25v-13l7 -34q132 -34 149 -42q19 -9 20 -41q0 -30 -20 -39z" />
<glyph unicode="&#xe0cf;" d="M303 192h97q-30 8 -32 157q0 124 -79 153q-28 10 -65 10q-121 0 -140 -108q-4 -25 -4 -55q0 -131 -24 -154q-4 -3 -8 -3h97q13 -11 25 -18q-126 -29 -144 -45q-27 -26 -26 -73q2 -26 14 -44l30 -6q57 -6 181 -6q69 0 95 1v31h-98h-174q-28 10 -17 47q7 25 23 33 q36 16 138 47v40q-19 8 -35 25h-61q16 0 16 124q0 101 61 124q22 8 51 8q95 0 109 -88q3 -20 3 -44q0 -122 16 -124h-61q-17 -18 -35 -25v-43q15 -4 64 -18v22q-1 0 -41 15q11 6 24 17zM471 64l36 36q8 11 0 23q-12 10 -24 0l-35 -35l-36 35q-11 10 -23 0q-10 -11 0 -23 l35 -36l-35 -35q-10 -12 0 -24q11 -8 23 0l36 36l35 -36q12 -9 24 0q9 12 0 24z" />
<glyph unicode="&#xe0d0;" d="M302 192h98q-30 8 -32 157q0 124 -79 153q-28 10 -65 10q-121 0 -140 -108q-4 -25 -4 -55q0 -131 -24 -154q-4 -3 -8 -3h97q13 -11 25 -18q-113 -25 -141 -43q-2 -1 -3 -2q-27 -26 -26 -73q2 -26 14 -44l30 -6q57 -6 181 -6q69 0 95 1v31h-98h-174q-28 10 -17 47 q7 25 23 33q36 16 138 47v40q-19 8 -35 25h-61q16 0 16 124q0 101 61 124q22 8 51 8q95 0 109 -88q3 -20 3 -44q0 -122 16 -124h-61q-17 -18 -35 -25v-43q15 -4 64 -18v22q-1 0 -41 15q12 7 23 17zM507 155q-11 9 -21 0l-86 -85l-22 21q-11 9 -21 0q-9 -11 0 -21l29 -30 q1 -1 3 -4q5 -4 11 -4q7 1 11 4q2 3 3 4l93 94q9 11 0 21z" />
<glyph unicode="&#xe0d1;" d="M302 192h98q-30 8 -32 157q0 124 -79 153q-28 10 -65 10q-121 0 -140 -108q-4 -25 -4 -55q0 -131 -24 -154q-4 -3 -8 -3h97q13 -11 25 -18q-126 -29 -144 -45q-27 -26 -26 -73q2 -26 14 -44l30 -6q57 -6 181 -6q69 0 95 1v31h-98h-174q-28 10 -17 47q7 25 23 33 q36 16 138 47v40q-19 8 -35 25h-61q16 0 16 124q0 101 61 124q22 8 51 8q95 0 109 -88q3 -20 3 -44q0 -122 16 -124h-61q-17 -18 -35 -25v-43q15 -4 64 -18v22q-1 0 -41 15q12 7 23 17zM496 96h-128q-15 -2 -16 -16q2 -15 16 -16h128q15 2 16 16q-2 15 -16 16z" />
<glyph unicode="&#xe0d2;" d="M302 192h98q-30 8 -32 157q0 124 -79 153q-28 10 -65 10q-121 0 -140 -108q-4 -25 -4 -55q0 -131 -24 -154q-4 -3 -8 -3h97q13 -11 25 -18q-113 -25 -141 -43q-2 -1 -3 -2q-27 -26 -26 -73q2 -26 14 -44l30 -6q57 -6 181 -6q69 0 95 1v31h-98h-174q-28 10 -17 47 q7 25 23 33q36 16 138 47v40q-19 8 -35 25h-61q16 0 16 124q0 101 61 124q22 8 51 8q95 0 109 -88q3 -20 3 -44q0 -122 16 -124h-61q-17 -18 -35 -25v-43q15 -4 64 -18v22q-1 0 -41 15q12 7 23 17zM496 96h-48v48q-2 15 -16 16q-15 -2 -16 -16v-48h-48q-15 -2 -16 -16 q2 -15 16 -16h48v-48q2 -15 16 -16q15 2 16 16v48h48q15 2 16 16q-2 15 -16 16z" />
<glyph unicode="&#xe0d3;" d="M454 129q-12 12 -143 46q11 6 24 17h97q-30 8 -33 144q1 5 1 13q0 124 -79 153q-28 10 -65 10q-121 0 -140 -108q-4 -25 -4 -55q0 -131 -24 -154q-4 -3 -8 -3h97q13 -11 25 -18q-126 -29 -144 -45q-27 -26 -26 -73q2 -26 14 -44l30 -6q57 -6 181 -6q197 0 209 12 q25 35 7 86q-8 20 -19 31zM432 32h-178h-174q-28 10 -17 47q7 25 23 33q25 11 138 47v40q-19 8 -35 25h-61q7 0 11 28t5 56v28v12q0 101 61 124q22 8 51 8q95 0 109 -88q3 -20 3 -44q0 -122 16 -124h-61q-17 -18 -35 -25v-43q115 -30 144 -44q19 -9 20 -41q0 -30 -20 -39z " />
<glyph unicode="&#xe0d4;" d="M416 304q0 102 -62 164q-44 44 -98 44q-73 0 -121 -72q-39 -59 -39 -136q0 -104 65 -167l4 -4q-100 -43 -149 -82q-15 -13 -16 -19q0 -24 22 -31q6 -1 10 -1h288v32h-288q14 9 160 81q31 -17 64 -17q34 1 63 17h1v1q11 6 20 14h18l-6 3q-4 1 -5 2q66 68 69 171zM256 128 q-61 0 -100 65q-28 49 -28 111q0 91 54 143q33 33 74 33q61 0 100 -65q28 -49 28 -111q0 -91 -54 -143q-33 -33 -74 -33zM471 64l36 36q8 11 0 23q-12 10 -24 0l-35 -35l-36 35q-11 10 -23 0q-10 -11 0 -23l35 -36l-35 -35q-10 -12 0 -24q11 -8 23 0l36 36l35 -36 q12 -9 24 0q9 12 0 24z" />
<glyph unicode="&#xe0d5;" d="M507 155q-11 9 -21 0l-86 -85l-22 21q-11 9 -21 0q-9 -11 0 -21l31 -31l1 -2q5 -5 11 -5q7 1 11 5q1 1 1 2l95 95q9 11 0 21zM347 133q66 68 69 171q0 102 -62 164q-44 44 -98 44q-73 0 -121 -72q-39 -59 -39 -136q0 -104 65 -167l4 -4q-100 -43 -149 -82 q-15 -13 -16 -19q0 -24 22 -31q6 -1 10 -1h288v32h-288q14 9 160 81q31 -17 64 -17q34 1 63 17h1v1q11 6 20 14h18l-6 3q-4 1 -5 2zM256 128q-61 0 -100 65q-28 49 -28 111q0 91 54 143q33 33 74 33q61 0 100 -65q28 -49 28 -111q0 -91 -54 -143q-33 -33 -74 -33z" />
<glyph unicode="&#xe0d6;" d="M347 133q66 68 69 171q0 102 -62 164q-44 44 -98 44q-73 0 -121 -72q-39 -59 -39 -136q0 -104 65 -167l4 -4q-100 -43 -149 -82q-15 -13 -16 -19q0 -24 22 -31q6 -1 10 -1h288v32h-288q14 9 160 81q31 -17 64 -17q34 1 63 17h1v1q11 6 20 14h18l-6 3q-4 1 -5 2zM256 128 q-61 0 -100 65q-28 49 -28 111q0 91 54 143q33 33 74 33q61 0 100 -65q28 -49 28 -111q0 -91 -54 -143q-33 -33 -74 -33zM496 96h-128q-15 -2 -16 -16q2 -15 16 -16h128q15 2 16 16q-2 15 -16 16z" />
<glyph unicode="&#xe0d7;" d="M347 133q66 68 69 171q0 102 -62 164q-44 44 -98 44q-73 0 -121 -72q-39 -59 -39 -136q0 -104 65 -167l4 -4q-100 -43 -149 -82q-15 -13 -16 -19q0 -24 22 -31q6 -1 10 -1h288v32h-288q14 9 160 81q31 -17 64 -17q34 1 63 17h1v1q11 6 20 14h18l-6 3q-4 1 -5 2zM256 128 q-61 0 -100 65q-28 49 -28 111q0 91 54 143q33 33 74 33q61 0 100 -65q28 -49 28 -111q0 -91 -54 -143q-33 -33 -74 -33zM496 96h-48v48q-2 15 -16 16q-15 -2 -16 -16v-48h-48q-15 -2 -16 -16q2 -15 16 -16h48v-48q2 -15 16 -16q15 2 16 16v48h48q15 2 16 16q-2 15 -16 16z " />
<glyph unicode="&#xe0d8;" d="M347 133q66 68 69 171q0 102 -62 164q-44 44 -98 44q-73 0 -121 -72q-39 -59 -39 -136q0 -104 65 -167l4 -4q-100 -43 -149 -82q-15 -13 -16 -19q0 -24 22 -31q6 -1 10 -1h448q24 0 31 22q1 6 1 10q0 19 -109 75q-30 15 -56 26zM128 304q0 91 54 143q33 33 74 33 q61 0 100 -65q28 -49 28 -111q0 -91 -54 -143q-33 -33 -74 -33q-61 0 -100 65q-28 49 -28 111zM32 32q14 9 160 81q31 -17 64 -17q34 1 63 17q136 -65 161 -81h-448z" />
<glyph unicode="&#xe0d9;" d="M418 96l39 38q9 11 0 21q-11 9 -23 0l-39 -37l-39 37q-11 9 -22 0q-9 -11 0 -21l39 -38l-39 -38q-9 -10 0 -22q11 -9 22 0l39 38l39 -38q12 -9 23 0q9 11 0 22zM126 223q41 -31 88 -31q48 1 88 31q33 -2 51 -31h37q-19 43 -62 59q34 44 34 101q0 79 -58 127 q-41 33 -90 33q-73 0 -118 -62q-31 -44 -31 -98q1 -58 35 -101q-49 -16 -64 -63q-4 -14 -4 -28v-64q0 -53 46 -81q25 -15 53 -15h157l4 32h-161q-40 0 -58 34q-8 15 -8 30v64q0 39 35 56q13 6 26 7zM98 352q0 68 51 106q30 22 65 22q60 0 94 -54q21 -34 21 -74 q0 -68 -50 -106q-30 -22 -65 -22q-60 0 -95 54q-21 34 -21 74z" />
<glyph unicode="&#xe0da;" d="M126 223q41 -31 88 -31q48 1 88 31q33 -2 52 -31h36q-17 43 -62 59q35 44 35 101q0 79 -59 127q-40 33 -90 33q-73 0 -118 -62q-31 -44 -31 -98q1 -58 35 -101q-49 -16 -64 -63q-4 -14 -4 -28v-64q0 -53 46 -81q25 -15 53 -15h149v32h-149q-40 0 -58 34q-8 15 -8 30v64 q0 39 35 56q13 6 26 7zM98 352q0 68 51 106q30 22 65 22q60 0 95 -54q21 -34 21 -74q0 -68 -51 -106q-30 -22 -65 -22q-60 0 -95 54q-21 34 -21 74zM474 155q-11 9 -22 0l-89 -85l-22 21q-12 9 -23 0q-9 -11 0 -21l32 -32q1 -1 1 -2q5 -4 12 -4q8 1 12 4l1 2l98 96 q9 11 0 21z" />
<glyph unicode="&#xe0db;" d="M464 96h-128q-15 -2 -16 -16q2 -15 16 -16h128q15 2 16 16q-2 15 -16 16zM123 223q40 -31 85 -31q46 1 85 31q32 -3 50 -31h35q-17 43 -60 59q34 44 34 101q0 80 -58 128q-39 32 -86 32q-71 0 -114 -62q-30 -44 -30 -98q1 -57 33 -101q-45 -16 -60 -62q-5 -15 -5 -29v-64 q0 -53 45 -81q24 -15 51 -15h160v32h-160q-39 0 -57 35q-7 14 -7 29v64q0 40 36 57q11 5 23 6zM96 352q0 68 49 106q29 22 63 22q58 0 91 -54q21 -33 21 -74q0 -68 -49 -106q-29 -22 -63 -22q-58 0 -91 54q-21 33 -21 74z" />
<glyph unicode="&#xe0dc;" d="M123 223q40 -31 85 -31q46 1 85 31q32 -3 50 -31h35q-17 43 -60 59q34 44 34 101q0 80 -58 128q-39 32 -86 32q-71 0 -114 -62q-30 -44 -30 -98q1 -57 33 -101q-45 -16 -60 -62q-5 -15 -5 -29v-64q0 -53 45 -81q24 -15 51 -15h160v32h-160q-39 0 -57 35q-7 14 -7 29v64 q0 40 36 57q11 5 23 6zM96 352q0 68 49 106q29 22 63 22q58 0 91 -54q21 -33 21 -74q0 -68 -49 -106q-29 -22 -63 -22q-58 0 -91 54q-21 33 -21 74zM464 96h-48v48q-2 15 -16 16q-15 -2 -16 -16v-48h-48q-15 -2 -16 -16q2 -15 16 -16h48v-48q2 -15 16 -16q15 2 16 16v48h48 q15 2 16 16q-2 15 -16 16z" />
<glyph unicode="&#xe0dd;" d="M382 251q34 44 34 101q0 80 -58 128q-39 32 -86 32q-69 0 -113 -61q-31 -44 -31 -99q1 -57 33 -101q-45 -16 -60 -62q-5 -15 -5 -29v-64q0 -53 45 -81q24 -15 51 -15h160q53 0 81 45q15 24 15 51v64q0 53 -45 81q-11 6 -21 10zM160 352q0 68 49 106q29 22 63 22 q58 0 91 -54q21 -33 21 -74q0 -68 -49 -106q-29 -22 -63 -22q-58 0 -91 54q-21 33 -21 74zM416 96q0 -39 -35 -57q-14 -7 -29 -7h-160q-39 0 -57 35q-7 14 -7 29v64q0 40 36 57q11 5 23 6q40 -31 85 -31q46 1 85 31q38 -2 54 -37q5 -13 5 -26v-64z" />
<glyph unicode="&#xe0de;" d="M471 64l36 36q8 11 0 23q-12 10 -24 0l-35 -35l-36 35q-11 10 -23 0q-10 -11 0 -23l35 -36l-35 -35q-10 -12 0 -24q11 -8 23 0l36 36l35 -36q12 -9 24 0q9 12 0 24zM352 186q-21 15 -45 24q63 34 75 102q2 12 2 24q0 70 -59 114q-41 30 -92 30q-80 0 -117 -63 q-20 -34 -20 -74q0 -89 53 -127l10 -6q-79 -30 -112 -105q-15 -35 -15 -73v-32h34v32q0 77 63 125q47 35 104 35q68 -1 118 -47zM128 336q0 60 49 93q29 19 63 19q60 0 93 -49q19 -29 19 -63q0 -60 -49 -93q-29 -19 -63 -19q-60 0 -93 49q-19 29 -19 63z" />
<glyph unicode="&#xe0df;" d="M507 155q-11 9 -21 0l-86 -85l-22 21q-11 9 -21 0q-10 -11 0 -21l29 -30l3 -3q5 -5 11 -5q7 1 11 5l3 3l93 94q9 11 0 21zM320 186q-21 15 -45 24q63 34 75 102q2 12 2 24q0 70 -59 114q-41 30 -92 30q-80 0 -117 -63q-20 -34 -20 -74q0 -89 53 -127l10 -6 q-79 -30 -112 -105q-15 -35 -15 -73v-32h34v32q0 77 63 125q47 35 104 35q66 -1 118 -47zM96 336q0 60 49 93q29 19 63 19q60 0 93 -49q19 -29 19 -63q0 -60 -49 -93q-29 -19 -63 -19q-60 0 -93 49q-19 29 -19 63z" />
<glyph unicode="&#xe0e0;" d="M352 186q-21 15 -45 24q63 34 75 102q2 12 2 24q0 70 -59 114q-41 30 -92 30q-80 0 -117 -63q-20 -34 -20 -74q0 -89 53 -127l10 -6q-79 -30 -112 -105q-15 -35 -15 -73v-32h34v32q0 77 63 125q47 35 104 35q67 -1 119 -47v41zM128 336q0 60 49 93q29 19 63 19 q60 0 93 -49q19 -29 19 -63q0 -60 -49 -93q-29 -19 -63 -19q-60 0 -93 49q-19 29 -19 63zM496 96h-128q-15 -2 -16 -16q2 -15 16 -16h128q15 2 16 16q-2 15 -16 16z" />
<glyph unicode="&#xe0e1;" d="M496 96h-48v48q-2 15 -16 16q-15 -2 -16 -16v-48h-48q-15 -2 -16 -16q2 -15 16 -16h48v-48q2 -15 16 -16q15 2 16 16v48h48q15 2 16 16q-2 15 -16 16zM352 186q-21 15 -45 24q63 34 75 102q2 12 2 24q0 70 -59 114q-41 30 -92 30q-80 0 -117 -63q-20 -34 -20 -74 q0 -89 53 -127l10 -6q-79 -30 -112 -105q-15 -35 -15 -73v-32h34v32q0 77 63 125q47 35 104 35q69 -1 119 -45v39zM128 336q0 60 49 93q29 19 63 19q60 0 93 -49q19 -29 19 -63q0 -60 -49 -93q-29 -19 -63 -19q-60 0 -93 49q-19 29 -19 63z" />
<glyph unicode="&#xe0e2;" d="M326 210q61 35 72 103q2 12 2 23q0 71 -57 115q-40 29 -87 29q-73 0 -116 -59q-28 -38 -28 -85q0 -72 59 -116q8 -6 15 -10q-76 -30 -108 -105q-14 -35 -14 -73v-32h32v32q0 77 61 125q43 35 99 35q77 0 125 -61q35 -43 35 -99v-32h32v32q0 90 -69 147q-25 20 -53 31z M144 336q0 60 49 93q29 19 63 19q60 0 93 -49q19 -29 19 -63q0 -60 -49 -93q-29 -19 -63 -19q-60 0 -93 49q-19 29 -19 63z" />
<glyph unicode="&#xe0e3;" d="M96 416h192q39 0 57 -35q7 -14 7 -29v-96q0 -39 -35 -57q-14 -7 -29 -7h-96v-32h96q53 0 81 45q15 24 15 51v96q0 53 -45 81q-24 15 -51 15h-192q-53 0 -81 -45q-15 -24 -15 -51v-96q0 -53 45 -81q24 -15 51 -15v32q-39 0 -57 35q-7 14 -7 29v96q0 39 35 57q14 7 29 7z M416 320v-32q39 0 57 -35q7 -14 7 -29v-96q0 -39 -35 -57q-14 -7 -29 -7h-192q-39 0 -57 35q-7 14 -7 29v96q0 39 35 57q14 7 29 7h96v32h-96q-53 0 -81 -45q-15 -24 -15 -51v-96q0 -53 45 -81q24 -15 51 -15h192q53 0 81 45q15 24 15 51v96q0 53 -45 81q-24 15 -51 15z" />
<glyph unicode="&#xe0e4;" d="M400 288q60 0 93 49q19 29 19 63q0 60 -49 93q-29 19 -63 19q-60 0 -93 -49q-19 -29 -19 -63q0 -60 49 -93q29 -19 63 -19zM400 480q45 0 69 -39q11 -20 11 -41q0 -45 -39 -69q-20 -11 -41 -11q-45 0 -69 39q-11 20 -11 41q0 45 39 69q20 11 41 11zM448 96q0 -39 -35 -57 q-14 -7 -29 -7h-288q-39 0 -57 35q-7 14 -7 29v288q0 39 35 57q14 7 29 7h160v32h-160q-53 0 -81 -45q-15 -24 -15 -51v-288q0 -53 45 -81q24 -15 51 -15h288q53 0 81 45q15 24 15 51v160h-32v-160z" />
<glyph unicode="&#xe0e5;" d="M501 501q-10 11 -33 11q-35 -1 -63 -28l-106 -106q-204 14 -215 14q-1 0 -3 1q-13 -1 -24 -10l-36 -33q-9 -10 -9 -20q4 -12 13 -16t153 -57l-63 -65h-10h-61h-4q-15 -2 -31 -15l-1 -1q-8 -8 -8 -16q1 -9 7 -14q7 -6 85 -55q1 -2 4 -6.5t6 -9.5t7 -11l8 -12t7.5 -12 t7 -11.5t6 -9.5t4.5 -7l2 -3q5 -8 14 -9h1q9 0 18 9q3 3 5 6t3.5 5.5t2.5 4.5t1.5 4t1 3.5t0.5 2.5v2v2v1v74l66 63q55 -149 56 -151q6 -12 16 -13h2q9 1 18 8q1 1 33 37q9 11 9 26v1q0 23 -13 214l106 106q37 37 26 79q-3 11 -9 17zM461 428l-115 -116v-15q1 -14 3 -56 q3 -50 5 -74q5 -68 5 -83q-1 -4 -2 -6q-2 -2 -8 -9q-9 -10 -13 -14q-6 17 -26 70q-17 46 -23 63l-17 48l-36 -36l-65 -63l-9 -9l-1 -13v-45v-25q2 -2 2 -3q-1 1 -2 1v2l-2 4q-25 37 -37 59l-4 7l-7 4q-27 16 -66 41q-1 0 -2 1l2 -1h1h23q7 0 21 -1h17q8 0 10 1h13l9 9l63 65 l36 36l-47 17q-45 16 -135 50q15 15 24 21l3 2h1q2 0 22 -1q43 -3 68 -4l81 -6q33 -2 44 -3h15l10 10l105 105q19 19 41 19q7 0 10 -2q9 -18 -10 -42q-4 -5 -7 -8z" />
<glyph unicode="&#xe0e6;" d="M512 384v32h-64v32h-32v64h-32v-64h-64v64h-32v-64h-64v64h-32v-64h-64v64h-32v-64h-32v-32h-64v-32h64v-64h-64v-32h64v-64h-64v-32h64v-64h-64v-32h64v-32h32v-64h32v64h64v-64h32v64h64v-64h32v64h64v-64h32v64h32v32h64v32h-64v64h64v32h-64v64h64v32h-64v64h64z M416 384v-288h-320v320h320v-32z" />
<glyph unicode="&#xe0e7;" d="M384 416h-256q-66 0 -104 -54q-24 -34 -24 -74v-64q0 -66 54 -104q34 -24 74 -24h256q66 0 104 54q24 34 24 74v64q0 66 -54 104q-34 24 -74 24zM480 224q0 -53 -45 -81q-24 -15 -51 -15h-256q-53 0 -81 45q-15 24 -15 51v64q0 53 45 81q24 15 51 15h256q53 0 81 -45 q15 -24 15 -51v-64zM352 352q-53 0 -81 -45q-15 -24 -15 -51q0 -53 45 -81q24 -15 51 -15q53 0 81 45q15 24 15 51q0 53 -45 81q-24 15 -51 15zM352 192q-39 0 -57 35q-7 14 -7 29q0 39 35 57q14 7 29 7q39 0 57 -35q7 -14 7 -29q0 -39 -35 -57q-14 -7 -29 -7z" />
<glyph unicode="&#xe0e8;" d="M160 352q-53 0 -81 -45q-15 -24 -15 -51q0 -53 45 -81q24 -15 51 -15q53 0 81 45q15 24 15 51q0 53 -45 81q-24 15 -51 15zM160 192q-39 0 -57 35q-7 14 -7 29q0 39 35 57q14 7 29 7q39 0 57 -35q7 -14 7 -29q0 -39 -35 -57q-14 -7 -29 -7zM384 416h-256q-66 0 -104 -54 q-24 -34 -24 -74v-64q0 -66 54 -104q34 -24 74 -24h256q66 0 104 54q24 34 24 74v64q0 66 -54 104q-34 24 -74 24zM480 224q0 -53 -45 -81q-24 -15 -51 -15h-256q-53 0 -81 45q-15 24 -15 51v64q0 53 45 81q24 15 51 15h256q53 0 81 -45q15 -24 15 -51v-64z" />
<glyph unicode="&#xe0e9;" d="M416 256h-32v32h-32v-32h-256q-15 -2 -16 -16q2 -15 16 -16h256v-32h32v32h32q15 2 16 16q-2 15 -16 16zM416 128h-256v32h-32v-32h-32q-15 -2 -16 -16q2 -15 16 -16h32v-32h32v32h256q15 2 16 16q-2 15 -16 16zM416 384h-160v32h-32v-32h-128q-15 -2 -16 -16 q2 -15 16 -16h128v-32h32v32h160q15 2 16 16q-2 15 -16 16zM464 512h-416q-32 0 -44 -30q-4 -9 -4 -18v-416q0 -32 29 -44q10 -4 19 -4h416q32 0 44 29q4 9 4 19v416q0 30 -28 44q-10 4 -20 4zM480 48q-2 -15 -16 -16h-416q-15 2 -16 16v416q2 15 16 16h416q15 -2 16 -16 v-416z" />
<glyph unicode="&#xe0ea;" d="M464 512h-416q-32 0 -44 -30q-4 -9 -4 -18v-416q0 -32 29 -44q10 -4 19 -4h416q32 0 44 29q4 9 4 19v416q0 30 -28 44q-10 4 -20 4zM480 48q-2 -15 -16 -16h-416q-15 2 -16 16v416q2 15 16 16h416q15 -2 16 -16v-416zM401 352h-147q-8 44 -50 59q-14 5 -28 5 q-45 0 -69 -39q-11 -20 -11 -41q0 -45 39 -69q20 -11 41 -11q47 0 69 40q7 12 9 24h147q14 2 15 16q-2 15 -15 16zM176 288q-32 0 -44 29q-4 10 -4 19q0 32 29 44q10 4 19 4q30 0 44 -28q4 -10 4 -20q0 -32 -30 -44q-8 -4 -18 -4zM336 224q-47 0 -69 -40q-7 -12 -9 -24h-147 q-12 -3 -15 -16q3 -13 15 -16h147q8 -44 50 -59q14 -5 28 -5q45 0 69 39q11 19 11 41v0q0 45 -39 69q-20 11 -41 11zM336 96q-32 0 -44 29q-4 9 -4 19q0 30 28 44q10 4 20 4q30 0 44 -28q4 -10 4 -20q0 -32 -30 -44q-8 -4 -18 -4z" />
<glyph unicode="&#xe0eb;" d="M256 336q-45 0 -69 -39q-11 -20 -11 -41q0 -45 39 -69q20 -11 41 -11q45 0 69 39q11 20 11 41q0 45 -39 69q-20 11 -41 11zM256 208q-32 0 -44 29q-4 10 -4 19q0 32 29 44q10 4 19 4q32 0 44 -30q4 -8 4 -18q0 -32 -29 -44q-10 -4 -19 -4zM480 304l-41 7q-6 18 -15 36 l24 33q19 19 4 41q-2 3 -4 5l-22 22q-19 19 -41 4q-3 -2 -5 -4l-33 -24q-18 9 -36 15l-7 41q0 24 -22 31q-6 1 -10 1h-32q-24 0 -31 -22q-1 -6 -1 -10l-7 -41q-18 -6 -36 -15l-33 24q-19 19 -41 4q-3 -2 -5 -4l-22 -22q-19 -19 -4 -41q2 -3 4 -5l24 -33q-9 -18 -15 -36 l-41 -7q-24 0 -31 -22q-1 -6 -1 -10v-32q0 -24 22 -31q6 -1 10 -1l41 -7q6 -18 15 -36l-24 -33q-19 -19 -4 -41q2 -3 4 -5l22 -22q19 -19 41 -4q3 2 5 4l33 24q18 -9 36 -15l7 -41q0 -24 22 -31q6 -1 10 -1h32q24 0 31 22q1 6 1 10l7 41q18 6 36 15l33 -24q19 -19 41 -4 q3 2 5 4l22 22q19 19 4 41q-2 3 -4 5l-24 33q9 18 15 36l41 7q24 0 31 22q1 6 1 10v32q0 24 -22 31q-6 1 -10 1zM464 240l-50 -8q-7 -40 -29 -70l29 -42q11 -11 0 -22t-22 0l-42 29q-34 -23 -70 -29l-8 -50q-2 -15 -16 -16q-15 2 -16 16l-8 50q-37 6 -70 29l-42 -29 q-11 -11 -22 0t0 22l29 42q-23 31 -29 70l-50 8q-15 2 -16 16q2 15 16 16l50 8q7 40 29 70l-29 42q-11 11 0 22t22 0l42 -29q34 23 70 29l8 50q2 15 16 16q15 -2 16 -16l8 -50q37 -6 70 -29l42 29q11 11 22 0t0 -22l-29 -42q23 -31 29 -70l50 -8q15 -2 16 -16 q-2 -15 -16 -16z" />
<glyph unicode="&#xe0ec;" d="M512 256q0 40 -36 57q-11 5 -23 6q-4 14 -13 32q27 32 9 68q-5 11 -12 18q-29 29 -68 14q-10 -5 -18 -11q-19 9 -32 13q-2 38 -37 54q-13 5 -26 5q-40 0 -57 -36q-5 -11 -6 -23q-14 -4 -32 -13q-32 27 -68 9q-11 -5 -18 -12q-29 -29 -14 -68q4 -10 11 -18q-9 -19 -13 -32 q-38 -2 -54 -37q-5 -13 -5 -26q0 -40 36 -57q11 -5 23 -6q4 -14 13 -32q-27 -32 -9 -68q4 -10 12 -18q29 -29 68 -14q10 5 18 11q19 -9 32 -13q2 -38 37 -54q13 -5 26 -5q40 0 57 36q5 11 6 23q14 4 32 13q32 -27 68 -9q11 5 18 12q29 29 14 68q-5 10 -11 18q9 19 13 32 q38 2 54 37q5 13 5 26zM429 224q-7 -35 -28 -67l13 -14q18 -18 5 -39q-3 -4 -5 -6q-17 -18 -38 -5q-4 3 -7 5l-14 13q-33 -21 -67 -28v-19q0 -24 -22 -31q-6 -1 -10 -1q-24 0 -31 22q-1 6 -1 10v19q-35 7 -67 28l-14 -13q-18 -18 -39 -5q-4 3 -6 5q-18 17 -5 38q3 4 5 7 l13 14q-21 33 -28 67h-19q-24 0 -31 22q-1 6 -1 10q0 24 22 31q6 1 10 1h19q7 35 28 67l-13 14q-18 18 -5 39q3 4 5 6q17 18 38 5q4 -3 7 -5l14 -13q33 21 67 28v19q0 24 22 31q6 1 10 1q24 0 31 -22q1 -6 1 -10v-19q35 -7 67 -28l14 13q18 18 39 5q4 -3 6 -5q18 -17 5 -38 q-3 -4 -5 -7l-13 -14q23 -36 28 -67h19q24 0 31 -22q1 -6 1 -10q0 -24 -22 -31q-6 -1 -10 -1h-19zM256 352q-53 0 -81 -45q-15 -24 -15 -51q0 -53 45 -81q24 -15 51 -15q53 0 81 45q15 24 15 51q0 53 -45 81q-24 15 -51 15zM256 192q-39 0 -57 35q-7 14 -7 29q0 39 35 57 q14 7 29 7q39 0 57 -35q7 -14 7 -29q0 -39 -35 -57q-14 -7 -29 -7z" />
<glyph unicode="&#xe0ed;" d="M482 200l-67 39q1 6 1 17t-1 17l67 39q21 12 13 41q-3 5 -5 10l-24 42q-17 27 -40 22q-5 -1 -8 -3l-68 -39q-21 13 -29 17v78q0 23 -27 30q-7 2 -14 2h-48q-30 0 -39 -22q-2 -5 -2 -10v-78l-4 -2t-4.5 -2.5t-4 -2t-4.5 -2.5t-4 -2.5t-4 -2.5l-4 -3l-68 39q-21 12 -42 -11 q-4 -4 -6 -8l-24 -42q-16 -27 1 -46q4 -3 7 -5l67 -39q-1 -7 -1 -17q0 -12 1 -17l-67 -39q-21 -12 -13 -41q3 -5 5 -10l24 -42q17 -27 40 -22q5 1 8 3l68 39q15 -11 29 -17v-78q0 -23 27 -30q7 -2 14 -2h48q30 0 39 22q2 5 2 10v78q15 6 29 17l68 -39q21 -12 42 11q4 4 6 8 l24 42q16 27 -1 46q-4 3 -7 5zM454 151l-8 -14q-9 -17 -23 -13q-2 1 -3 1l-73 42q-27 -26 -59 -35v-84q-5 -13 -24 -16h-16q-21 2 -24 16v84q-33 9 -59 35l-73 -42q-12 -7 -24 8q-1 3 -2 4l-8 14q-10 20 2 28l73 43q-5 18 -5 34t5 34l-73 43q-12 8 -2 28l8 14q9 17 23 13 q2 0 3 -1l73 -42q27 26 59 35v84q5 13 24 16h16q21 -2 24 -16v-84q33 -9 59 -35l73 42q12 7 24 -8q1 -3 2 -4l8 -14q11 -17 0 -26q-1 -2 -2 -2l-73 -43q5 -18 5 -34t-5 -34l73 -43q12 -8 2 -28zM256 320q-39 0 -57 -35q-7 -14 -7 -29q0 -39 35 -57q14 -7 29 -7q39 0 57 35 q7 14 7 29q0 39 -35 57q-14 7 -29 7zM288 224h-64v64h32v0h32v-64z" />
<glyph unicode="&#xe0ee;" d="M373 385q1 1 2 1h1l2 2h1l1 1l2 4l1 1q0 1 1 2v3v1v96q-2 15 -16 16q-15 -2 -16 -16v-85l-80 -26l-80 26v85q-2 15 -16 16q-15 -2 -16 -16v-96v-1v-3q1 -1 1 -2l1 -1l2 -4l1 -1h1q0 -1 1 -1l1 -1h1l2 -1l85 -28v-202l-85 -28q-1 -1 -2 -1h-1l-2 -2l-2 -1q-1 -1 -2 -4 q0 -1 -1 -2v-1q-1 -2 -1 -3v-1v-96q2 -15 16 -16q15 2 16 16v85l80 26l80 -26v-85q2 -15 16 -16q15 2 16 16v96v1v3l-1 1l-1 2q-1 1 -2 4l-2 1q0 1 -1 1l-1 1h-1l-2 1l-85 28v202z" />
<glyph unicode="&#xe0ef;" d="M465 397l-62 -62l-57 12l-11 56l62 62q-67 32 -132 -3q-18 -10 -33 -24q-51 -51 -40 -124q2 -13 6 -24l-148 -148q-29 -29 -15 -67q6 -14 15 -24q29 -29 67 -15q14 6 24 15l148 148q73 -24 134 21q8 7 15 13q52 53 39 125q-3 21 -12 39zM415 256q-43 -43 -103 -30 q-16 4 -30 11l-164 -163q-17 -18 -38 -6q-4 3 -7 6q-18 17 -6 38q3 4 6 7l163 163q-29 55 0 108q8 14 19 25q32 31 79 33l-22 -22v-91l23 -22h91l22 21q-2 -47 -33 -78z" />
<glyph unicode="&#xe0f0;" d="M298 288l-116 -117l-64 53l-22 -22l86 -74l138 138zM384 416h-352q-24 0 -31 -22q-1 -6 -1 -10v-352q0 -24 22 -31q6 -1 10 -1h352q24 0 31 22q1 6 1 10v352q0 24 -22 31q-6 1 -10 1zM384 48q-2 -15 -16 -16h-320q-15 2 -16 16v320q2 15 16 16h320q15 -2 16 -16v-320z M480 512h-320q-24 0 -31 -22q-1 -6 -1 -10v-32h32v16q2 15 16 16h288q15 -2 16 -16v-288q-2 -15 -16 -16h-16v-32h32q24 0 31 22q1 6 1 10v320q0 24 -22 31q-6 1 -10 1z" />
<glyph unicode="&#xe0f1;" d="M266 288l-58 -58l-58 58l-22 -22l58 -58l-58 -58l22 -22l58 58l58 -58l22 22l-58 58l58 58zM384 416h-352q-24 0 -31 -22q-1 -6 -1 -10v-352q0 -24 22 -31q6 -1 10 -1h352q24 0 31 22q1 6 1 10v352q0 24 -22 31q-6 1 -10 1zM384 48q-2 -15 -16 -16h-320q-15 2 -16 16v320 q2 15 16 16h320q15 -2 16 -16v-320zM480 512h-320q-24 0 -31 -22q-1 -6 -1 -10v-32h32v16q2 15 16 16h288q15 -2 16 -16v-288q-2 -15 -16 -16h-16v-32h32q24 0 31 22q1 6 1 10v320q0 24 -22 31q-6 1 -10 1z" />
<glyph unicode="&#xe0f2;" d="M128 192h160v32h-160v-32zM384 416h-352q-24 0 -31 -22q-1 -6 -1 -10v-352q0 -24 22 -31q6 -1 10 -1h352q24 0 31 22q1 6 1 10v352q0 24 -22 31q-6 1 -10 1zM384 48q-2 -15 -16 -16h-320q-15 2 -16 16v320q2 15 16 16h320q15 -2 16 -16v-320zM480 512h-320q-24 0 -31 -22 q-1 -6 -1 -10v-32h32v16q2 15 16 16h288q15 -2 16 -16v-288q-2 -15 -16 -16h-16v-32h32q24 0 31 22q1 6 1 10v320q0 24 -22 31q-6 1 -10 1z" />
<glyph unicode="&#xe0f3;" d="M224 288h-32v-64h-64v-32h64v-64h32v64h64v32h-64v64zM480 512h-320q-24 0 -31 -22q-1 -6 -1 -10v-32h32v16q2 15 16 16h288q15 -2 16 -16v-288q-2 -15 -16 -16h-16v-32h32q24 0 31 22q1 6 1 10v320q0 24 -22 31q-6 1 -10 1zM384 416h-352q-24 0 -31 -22q-1 -6 -1 -10 v-352q0 -24 22 -31q6 -1 10 -1h352q24 0 31 22q1 6 1 10v352q0 24 -22 31q-6 1 -10 1zM384 48q-2 -15 -16 -16h-320q-15 2 -16 16v320q2 15 16 16h320q15 -2 16 -16v-320z" />
<glyph unicode="&#xe0f4;" d="M480 512h-320q-24 0 -31 -22q-1 -6 -1 -10v-32h32v16q2 15 16 16h288q15 -2 16 -16v-288q-2 -15 -16 -16h-16v-32h32q24 0 31 22q1 6 1 10v320q0 24 -22 31q-6 1 -10 1zM384 416h-352q-24 0 -31 -22q-1 -6 -1 -10v-352q0 -24 22 -31q6 -1 10 -1h352q24 0 31 22q1 6 1 10 v352q0 24 -22 31q-6 1 -10 1zM384 48q-2 -15 -16 -16h-320q-15 2 -16 16v320q2 15 16 16h320q15 -2 16 -16v-320z" />
<glyph unicode="&#xe0f5;" d="M416 224q-55 0 -84 -49q-1 -1 -1 -2l-141 63q2 12 2 20v7q-1 5 -1 7l144 64q31 -43 81 -46q53 0 81 45q15 24 15 51q0 53 -45 81q-24 15 -51 15q-53 0 -81 -45q-15 -24 -15 -51q0 -9 2 -20l-141 -63q-31 50 -85 51q-53 0 -81 -45q-15 -24 -15 -51q0 -53 45 -81 q24 -15 51 -15q53 1 81 46l144 -64q0 -2 -1 -7v-7q0 -53 45 -81q24 -15 51 -15q53 0 81 45q15 24 15 51q0 53 -45 81q-24 15 -51 15zM416 448q39 0 57 -35q7 -14 7 -29q0 -39 -35 -57q-14 -7 -29 -7q-39 0 -57 35q-7 14 -7 29q0 39 35 57q14 7 29 7zM96 192q-39 0 -57 35 q-7 14 -7 29q0 39 35 57q14 7 29 7q39 0 57 -35q7 -14 7 -29q0 -39 -35 -57q-14 -7 -29 -7zM416 64q-39 0 -57 35q-7 14 -7 29q0 39 35 57q14 7 29 7q39 0 57 -35q7 -14 7 -29q0 -39 -35 -57q-14 -7 -29 -7z" />
<glyph unicode="&#xe0f6;" d="M448 128q-32 -1 -52 -27l-174 77q2 10 2 14q0 5 -1 7l177 78q20 -21 48 -21q39 0 57 35q7 14 7 29q0 39 -35 57q-14 7 -29 7q-39 0 -57 -35q-7 -14 -7 -29q0 -5 2 -14l-174 -77q-21 26 -52 27q-39 0 -57 -35q-7 -14 -7 -29q0 -39 35 -57q14 -7 29 -7q29 1 48 21l177 -78 q-1 -3 -1 -7q0 -39 35 -57q14 -7 29 -7q39 0 57 35q7 14 7 29q0 39 -35 57q-14 7 -29 7zM448 352q24 0 31 -22q1 -6 1 -10q0 -24 -22 -31q-6 -1 -10 -1q-24 0 -31 22q-1 6 -1 10q0 24 22 31q6 1 10 1zM160 160q-24 0 -31 22q-1 6 -1 10q0 24 22 31q6 1 10 1q24 0 31 -22 q1 -6 1 -10q0 -24 -22 -31q-6 -1 -10 -1zM448 32q-24 0 -31 22q-1 6 -1 10q0 24 22 31q6 1 10 1q24 0 31 -22q1 -6 1 -10q0 -24 -22 -31q-6 -1 -10 -1z" />
<glyph unicode="&#xe0f7;" d="M432 192q-43 -1 -67 -37l-174 72q0 3 1 7v6q0 1 -0.5 3.5t-0.5 3.5l174 77q24 -35 67 -36q45 0 69 39q11 19 11 41q0 45 -39 69q-20 11 -41 11q-45 0 -69 -39q-11 -20 -11 -41v-7q1 -5 1 -7l-171 -76q-24 41 -70 42q-45 0 -69 -39q-11 -20 -11 -41q0 -45 39 -69 q20 -11 41 -11q43 1 67 37l174 -73q0 -2 -1 -6v-6q0 -45 39 -69q20 -11 41 -11q45 0 69 39q11 19 11 41q0 45 -39 69q-20 11 -41 11zM432 416q30 0 44 -28q4 -10 4 -20q0 -30 -28 -44q-10 -4 -20 -4q-30 0 -44 28q-4 10 -4 20q0 30 28 44q10 4 20 4zM112 192q-32 0 -44 29 q-4 10 -4 19q0 32 29 44q10 4 19 4q30 0 44 -28q4 -10 4 -20q0 -32 -30 -44q-8 -4 -18 -4zM432 64q-32 0 -44 29q-4 9 -4 19q0 30 28 44q10 4 20 4q30 0 44 -28q4 -10 4 -20q0 -32 -30 -44q-8 -4 -18 -4z" />
<glyph unicode="&#xe0f8;" d="M122 349q-13 8 -25 0l-92 -102q-10 -10 0 -19l92 -96q13 -8 25 0q10 9 0 19l-81 89l81 90q9 10 0 19zM507 253l-93 96q-13 8 -25 0q-9 -10 0 -19l82 -90l-82 -89q-10 -10 0 -19q13 -8 25 0l93 102q9 10 0 19zM376 446q-15 6 -22 -6l-225 -416q-6 -14 6 -22q15 -6 22 6 l225 416q5 13 -6 22z" />
<glyph unicode="&#xe0f9;" d="M226 217l23 -23l69 69l-23 23zM249 148l-69 -69q-24 -24 -54 -10q-9 4 -15 10q-24 24 -10 54q4 9 10 15l115 115q-41 5 -69 -23l-69 -69q-35 -33 -21 -80q7 -20 21 -35q35 -34 83 -19q18 6 32 19l69 69q28 31 22 69zM456 424q-35 35 -81 21q-20 -7 -34 -21l-69 -69 q-27 -29 -23 -69l115 115q24 24 54 10q9 -4 15 -10q24 -24 10 -54q-4 -9 -10 -15l-115 -114q40 -6 69 22l69 69q34 35 19 83q-6 18 -19 32z" />
<glyph unicode="&#xe0fa;" d="M240 192h-208v96h112q15 2 16 16q-2 15 -16 16h-128q-15 -2 -16 -16v-128q2 -15 16 -16h224q15 2 16 16q-2 15 -16 16zM304 256h-96q-15 -2 -16 -16q2 -15 16 -16h96q15 2 16 16q-2 15 -16 16zM496 320h-224q-15 -2 -16 -16q2 -15 16 -16h208v-96h-112q-15 -2 -16 -16 q2 -15 16 -16h128q15 2 16 16v128q-2 15 -16 16z" />
<glyph unicode="&#xe0fb;" d="M210 94l-46 -47q-25 -24 -56 -10q-8 5 -14 10l-47 47q-24 24 -10 56q5 8 10 14l151 151q25 24 56 10q8 -5 14 -10l35 -35q6 -5 12 -5q6 1 11 5q10 11 0 23l-35 35q-35 35 -82 21q-20 -7 -34 -21l-151 -151q-35 -35 -20 -82q6 -20 20 -35l46 -46q36 -35 83 -20q20 6 34 20 l11 12l35 34q10 12 0 24q-11 8 -23 0zM487 444l-43 43q-34 35 -82 22q-21 -6 -36 -20l-46 -47q-11 -11 0 -23q6 -5 11 -5q7 1 12 5l46 46q22 22 54 10q11 -4 18 -11l43 -43q24 -22 12 -54q-4 -11 -11 -18l-145 -145q-23 -23 -56 -15q-13 4 -21 11l-20 20q-1 1 -1 2l-12 11 q-11 10 -23 0q-10 -11 0 -23l35 -35q1 -1 3 -2q35 -29 82 -13q17 6 30 16l1 -1q1 1 3 4l2 1l146 146q33 34 20 82q-7 21 -22 36z" />
<glyph unicode="&#xe0fc;" d="M296 354q13 -5 22 5l32 51q6 13 -6 20q-13 5 -22 -5l-32 -51q-6 -13 6 -20zM162 359q8 -12 22 -5q12 7 6 20l-32 51q-8 12 -22 5q-12 -7 -6 -20zM184 126q-13 5 -22 -5l-32 -51q-6 -13 6 -20q13 -5 22 5l32 51q6 13 -6 20zM240 352q15 2 16 16v64q-2 15 -16 16 q-15 -2 -16 -16v-64q2 -15 16 -16zM240 128q-15 -2 -16 -16v-64q2 -15 16 -16q15 2 16 16v64q-2 15 -16 16zM496 320h-224q-15 -2 -16 -16q2 -15 16 -16h208v-96h-112q-15 -2 -16 -16q2 -15 16 -16h128q15 2 16 16v128q-2 15 -16 16zM318 121q-8 12 -22 5q-12 -7 -6 -20 l32 -51q8 -12 22 -5q12 7 6 20zM240 192h-208v96h112q15 2 16 16q-2 15 -16 16h-128q-15 -2 -16 -16v-128q2 -15 16 -16h224q15 2 16 16q-2 15 -16 16z" />
<glyph unicode="&#xe0fd;" d="M480 384h-160v64h-192v32q0 24 -22 31q-6 1 -10 1h-32q-24 0 -31 -22q-1 -6 -1 -10v-448q0 -24 22 -31q6 -1 10 -1h32q24 0 31 22q1 6 1 10v128h160v-64h192q24 0 31 22q1 6 1 10v224q0 24 -22 31q-6 1 -10 1zM96 48q-2 -15 -16 -16q-15 2 -16 16v416q2 15 16 16 q15 -2 16 -16v-416zM288 192h-160v224h160v-224zM480 144q-2 -15 -16 -16h-144v224h144q15 -2 16 -16v-192z" />
<glyph unicode="&#xe0fe;" d="M480 448h-352v32q0 24 -22 31q-6 1 -10 1h-32q-24 0 -31 -22q-1 -6 -1 -10v-448q0 -24 22 -31q6 -1 10 -1h32q24 0 31 22q1 6 1 10v128h352q24 0 31 22q1 6 1 10v224q0 24 -22 31q-6 1 -10 1zM96 48q-2 -15 -16 -16q-15 2 -16 16v416q2 15 16 16q15 -2 16 -16v-416z M480 208q-2 -15 -16 -16h-336v224h336q15 -2 16 -16v-192z" />
<glyph unicode="&#xe0ff;" d="M64 480h288q24 0 31 -22q1 -6 1 -10h32q0 39 -35 57q-14 7 -29 7h-288q-39 0 -57 -35q-7 -14 -7 -29v-288q0 -39 35 -57q14 -7 29 -7v32q-24 0 -31 22q-1 6 -1 10v224h32v32h-32v32q0 24 22 31q6 1 10 1zM448 416h-288q-39 0 -57 -35q-7 -14 -7 -29v-288q0 -39 35 -57 q14 -7 29 -7h288q39 0 57 35q7 14 7 29v288q0 39 -35 57q-14 7 -29 7zM480 64q0 -24 -22 -31q-6 -1 -10 -1h-288q-24 0 -31 22q-1 6 -1 10v224h352v-224zM480 320h-352v32q0 24 22 31q6 1 10 1h288q24 0 31 -22q1 -6 1 -10v-32z" />
<glyph unicode="&#xe100;" d="M128 480h-128v-480h512v480h-384zM96 32h-64v416h64v-416zM480 32h-352v416h352v-416zM283 144l21 21l-59 59h203v32h-203l59 59l-21 21l-80 -80v-32z" />
<glyph unicode="&#xe101;" d="M416 480h-416v-480h512v480h-96zM384 32h-352v416h352v-416zM480 32h-64v416h64v-416zM208 165l21 -21l80 80v32l-80 80l-21 -21l59 -59h-203v-32h203z" />
<glyph unicode="&#xe102;" d="M256 267v-203h32v203l59 -59l21 21l-80 80h-32l-80 -80l21 -21zM32 512v-512h480v512h-480zM480 32h-416v352h416v-352zM480 416h-416v64h416v-64z" />
<glyph unicode="&#xe103;" d="M0 512v-512h480v512h-480zM448 32h-416v64h416v-64zM448 128h-416v352h416v-352zM224 192h32l96 103l-24 25l-72 -72v200h-32v-200l-72 72l-24 -25z" />
<glyph unicode="&#xe104;" d="M256 112h32v32h-32v-32zM272 480l-240 -448h480zM272 432l192 -368h-384zM272 320q-15 -2 -16 -16v-112q2 -15 16 -16q15 2 16 16v112q-2 15 -16 16z" />
<glyph unicode="&#xe105;" d="M261 133q5 -5 11 -5h1q5 1 10 4v1l96 112q11 11 0 22t-22 0l-69 -80v245q-2 15 -16 16q-15 -2 -16 -16v-245l-69 80q-11 11 -22 0t0 -23zM496 192q-15 -2 -16 -16v-112h-416v112q-2 15 -16 16q-15 -2 -16 -16v-128q2 -15 16 -16h448q15 2 16 16v128q-2 15 -16 16z" />
<glyph unicode="&#xe106;" d="M187 309l69 80v-245q2 -15 16 -16q15 2 16 16v245l69 -80q11 -11 22 0t0 22l-96 112v1q-6 4 -10 4h-1q-7 -1 -11 -5l-96 -112q-11 -11 0 -22t22 0zM496 192q-15 -2 -16 -16v-112h-416v112q-2 15 -16 16q-15 -2 -16 -16v-128q2 -15 16 -16h448q15 2 16 16v128 q-2 15 -16 16z" />
<glyph unicode="&#xe107;" d="M512 320h-32v-2q-33 34 -80 34q-60 0 -93 -51l-4 -6q-27 9 -47 9q-21 0 -47 -9q-29 51 -87 57h-10q-48 -1 -80 -34v2h-32v-64h2q-2 -10 -2 -16q0 -60 49 -93q29 -19 63 -19q60 0 93 49q19 29 19 63q0 14 -3 26q20 6 35 6q16 0 35 -6q-3 -13 -3 -26q0 -60 49 -93 q29 -19 63 -19q60 0 93 49q19 29 19 63q0 7 -2 16h2v64zM112 160q-45 0 -69 39q-11 20 -11 41q0 45 39 69q20 11 41 11q45 0 69 -39q11 -20 11 -41q0 -45 -39 -69q-20 -11 -41 -11zM400 160q-45 0 -69 39q-11 20 -11 41q0 45 39 69q20 11 41 11q45 0 69 -39q11 -20 11 -41 q0 -45 -39 -69q-20 -11 -41 -11z" />
<glyph unicode="&#xe108;" d="M512 192v32h-67q-6 34 -24 64l59 35l-16 29l-62 -37q-47 55 -118 66l68 115l-27 16l-69 -117l-69 117l-27 -16l69 -116q-74 -12 -119 -65l-62 37l-16 -29l59 -35q-18 -31 -24 -64h-67v-32h64q0 -37 14 -71l-46 -28l16 -29l45 27q46 -73 130 -88q17 -3 33 -3q90 0 148 70 q8 11 15 21l45 -27l16 29l-46 28q14 35 14 71h64zM256 352q79 -2 127 -64h-254q49 63 127 64zM256 32q-77 0 -125 61q-35 44 -35 99q0 33 14 64h292q14 -32 14 -64q0 -77 -61 -125q-43 -35 -99 -35z" />
<glyph unicode="&#xe109;" d="M405 224h22q15 0 20 15q1 3 1 6v22q0 15 -15 20q-3 1 -6 1h-22q-15 0 -20 -15q-1 -3 -1 -6v-22q0 -15 15 -20q3 -1 6 -1zM405 64h22q15 0 20 15q1 3 1 6v22q0 15 -15 20q-3 1 -6 1h-22q-15 0 -20 -15q-1 -3 -1 -6v-22q0 -15 15 -20q3 -1 6 -1zM427 448h-22q-15 0 -20 -15 q-1 -3 -1 -6v-22q0 -15 15 -20q3 -1 6 -1h22q15 0 20 15q1 3 1 6v22q0 15 -15 20q-3 1 -6 1zM480 512h-416q-24 0 -31 -22q-1 -6 -1 -10v-448q0 -24 22 -31q6 -1 10 -1h416q24 0 31 22q1 6 1 10v448q0 24 -22 31q-6 1 -10 1zM480 352h-368q-15 -2 -16 -16q2 -15 16 -16h368 v-128h-368q-15 -2 -16 -16q2 -15 16 -16h368v-112q-2 -15 -16 -16h-384q-15 2 -16 16v416q2 15 16 16h384q15 -2 16 -16v-112z" />
<glyph unicode="&#xe10a;" d="M480 288q0 101 -76 168q-64 56 -148 56q-101 0 -168 -76q-56 -64 -56 -148q0 -101 77 -168q30 -26 67 -41l-10 -47h-54q-15 -2 -16 -16q2 -15 16 -16h288q15 2 16 16q-2 15 -16 16h-54l-10 47q86 34 124 117q20 44 20 92zM192 32l13 38q32 -6 51 -6q20 0 51 6l13 -38 h-128zM256 96q-90 0 -147 69q-45 54 -45 123q0 90 69 147q54 45 123 45q90 0 147 -69q45 -54 45 -123q0 -90 -69 -147q-54 -45 -123 -45zM256 384q-53 0 -81 -45q-15 -24 -15 -51q0 -53 45 -81q24 -15 51 -15q53 0 81 45q15 24 15 51q0 53 -45 81q-24 15 -51 15zM256 224 q-39 0 -57 35q-7 14 -7 29q0 39 35 57q14 7 29 7q39 0 57 -35q7 -14 7 -29q0 -39 -35 -57q-14 -7 -29 -7z" />
<glyph unicode="&#xe10b;" d="M32 48v384q2 15 16 16l208 -52v34l-224 50q-24 0 -31 -22q-1 -6 -1 -10v-416q0 -24 22 -31q6 -1 10 -1l224 50v34l-208 -52q-15 2 -16 16zM511 243q-1 5 -4 8q-2 2 -5 4l-155 124q-11 9 -22 0q-11 -11 0 -22l126 -101h-371q-15 -2 -16 -16q2 -15 16 -16h371l-126 -101 q-11 -11 0 -22t22 0l155 124q4 3 5 4q4 3 4 8q1 2 1 3q-1 2 -1 3z" />
<glyph unicode="&#xe10c;" d="M480 512h-448q-24 0 -31 -22q-1 -6 -1 -10v-448q0 -24 22 -31q6 -1 10 -1h448q24 0 31 22q1 6 1 10v448q0 24 -22 31q-6 1 -10 1zM480 48q-2 -15 -16 -16h-416q-15 2 -16 16v120l123 110l123 -84l2 -2v0l24 23l-1 1l177 177v-345zM480 439l-204 -204l-122 83l-2 2v-1v1 l-8 -7l-112 -101v252q2 15 16 16h416q15 -2 16 -16v-25z" />
<glyph unicode="&#xe10d;" d="M80 192v-32q53 0 81 -45q15 -24 15 -51h32q0 66 -54 104q-34 24 -74 24zM104 448h-12q-8 -1 -12 -1v-32q2 0 8 1h8q138 0 236 -96q97 -103 100 -240q0 -2 -0.5 -8t-0.5 -8h32q0 4 1 12v12q0 145 -100 249q-99 103 -241 111h-19zM96 320q-11 0 -16 -1v-31h8q97 0 162 -73 q54 -62 54 -143v-8h31q1 6 1 16q0 107 -79 178q-69 62 -161 62z" />
<glyph unicode="&#xe10e;" d="M416 320h-64v-256h64v256zM288 416h-64v-352h64v352zM0 512v-512h512v512h-512zM480 32h-448v448h448v-448zM160 224h-64v-160h64v160z" />
<glyph unicode="&#xe10f;" d="M272 480q-30 0 -44 -28q-4 -10 -4 -20v-384q0 -32 29 -44q10 -4 19 -4q32 0 44 29q4 10 4 19v384q0 30 -28 44q-10 4 -20 4zM288 48q-2 -15 -16 -16q-15 2 -16 16v384q2 15 16 16q15 -2 16 -16v-384zM432 224q-30 0 -44 -28q-4 -10 -4 -20v-128q0 -32 30 -44q9 -4 18 -4 q32 0 44 29q4 9 4 19v128q0 30 -28 44q-10 4 -20 4zM448 48q-2 -15 -16 -16q-15 2 -16 16v128q2 15 16 16q15 -2 16 -16v-128zM112 336q-32 0 -44 -30q-4 -9 -4 -18v-240q0 -32 29 -44q10 -4 19 -4q32 0 44 29q4 9 4 19v240q0 30 -28 44q-10 4 -20 4zM128 48q-2 -15 -16 -16 q-15 2 -16 16v240q2 15 16 16q15 -2 16 -16v-240z" />
<glyph unicode="&#xe110;" d="M64 256q-39 0 -57 -35q-7 -14 -7 -29v-128q0 -39 35 -57q14 -7 29 -7q39 0 57 35q7 14 7 29v128q0 39 -35 57q-14 7 -29 7zM96 64q0 -24 -22 -31q-6 -1 -10 -1q-24 0 -31 22q-1 6 -1 10v128q0 24 22 31q6 1 10 1q24 0 31 -22q1 -6 1 -10v-128zM256 512q-39 0 -57 -35 q-7 -14 -7 -29v-384q0 -39 35 -57q14 -7 29 -7q39 0 57 35q7 14 7 29v384q0 39 -35 57q-14 7 -29 7zM288 64q0 -24 -22 -31q-6 -1 -10 -1q-24 0 -31 22q-1 6 -1 10v384q0 24 22 31q6 1 10 1q24 0 31 -22q1 -6 1 -10v-384zM448 384q-39 0 -57 -35q-7 -14 -7 -29v-256 q0 -39 35 -57q14 -7 29 -7q39 0 57 35q7 14 7 29v256q0 39 -35 57q-14 7 -29 7zM480 64q0 -24 -22 -31q-6 -1 -10 -1q-24 0 -31 22q-1 6 -1 10v256q0 24 22 31q6 1 10 1q24 0 31 -22q1 -6 1 -10v-256z" />
<glyph unicode="&#xe111;" d="M32 0h96v256h-96v-256zM64 224h32v-192h-32v192zM416 320v-320h96v320h-96zM480 32h-32v256h32v-256zM160 0h96v416h-96v-416zM192 384h32v-352h-32v352zM288 0h96v480h-96v-480zM320 448h32v-416h-32v416z" />
<glyph unicode="&#xe112;" d="M32 0h96v256h-96v-256zM64 224h32v-192h-32v192zM416 480v-480h96v480h-96zM480 32h-32v416h32v-416zM288 0h96v352h-96v-352zM320 320h32v-288h-32v288zM160 0h96v416h-96v-416zM192 384h32v-352h-32v352z" />
<glyph unicode="&#xe113;" d="M350 158q44 43 31 104q-8 33 -31 57q-43 43 -104 31q-33 -8 -56 -31q-44 -45 -30 -105q6 -24 20 -43l-116 -116l23 -23l116 116q49 -37 106 -16q24 9 41 26zM213 296q35 34 81 20q19 -7 33 -20q35 -35 20 -82q-6 -19 -20 -33q-34 -35 -80 -20q-20 6 -34 20q-35 35 -20 82 q6 19 20 33zM496 512h-480q-15 -2 -16 -16v-336h32v224h448v-336q-2 -15 -16 -16h-304v-32h336q15 2 16 16v480q-2 15 -16 16zM96 416h-64v48q2 15 16 16h48v-64zM480 416h-352v64h336q15 -2 16 -16v-48z" />
<glyph unicode="&#xe114;" d="M96 384h32v32h-32v-32zM216 96l56 56l56 -56l24 24l-56 56l56 56l-24 24l-56 -56l-56 56l-24 -24l56 -56l-56 -56zM160 384h32v32h-32v-32zM496 480h-448q-15 -2 -16 -16v-448q2 -15 16 -16h448q15 2 16 16v448q-2 15 -16 16zM480 48q-2 -15 -16 -16h-384q-15 2 -16 16 v272h416v-272zM480 352h-416v80q2 15 16 16h384q15 -2 16 -16v-80zM224 384h32v32h-32v-32z" />
<glyph unicode="&#xe115;" d="M96 384h32v32h-32v-32zM248 96l136 136l-24 24l-114 -114l-62 50l-24 -24zM496 480h-448q-15 -2 -16 -16v-448q2 -15 16 -16h448q15 2 16 16v448q-2 15 -16 16zM480 48q-2 -15 -16 -16h-384q-15 2 -16 16v272h416v-272zM480 352h-416v80q2 15 16 16h384q15 -2 16 -16v-80 zM224 384h32v32h-32v-32zM160 384h32v32h-32v-32z" />
<glyph unicode="&#xe116;" d="M256 96h32v64h64v32h-64v64h-32v-64h-64v-32h64v-64zM224 384h32v32h-32v-32zM496 480h-448q-15 -2 -16 -16v-448q2 -15 16 -16h448q15 2 16 16v448q-2 15 -16 16zM480 48q-2 -15 -16 -16h-384q-15 2 -16 16v272h416v-272zM480 352h-416v80q2 15 16 16h384q15 -2 16 -16 v-80zM160 384h32v32h-32v-32zM96 384h32v32h-32v-32z" />
<glyph unicode="&#xe117;" d="M352 192h-160v-32h160v32zM96 384h32v32h-32v-32zM224 384h32v32h-32v-32zM160 384h32v32h-32v-32zM496 480h-448q-15 -2 -16 -16v-448q2 -15 16 -16h448q15 2 16 16v448q-2 15 -16 16zM480 48q-2 -15 -16 -16h-384q-15 2 -16 16v272h416v-272zM480 352h-416v80 q2 15 16 16h384q15 -2 16 -16v-80z" />
<glyph unicode="&#xe118;" d="M96 384h32v32h-32v-32zM496 480h-448q-15 -2 -16 -16v-448q2 -15 16 -16h448q15 2 16 16v448q-2 15 -16 16zM480 48q-2 -15 -16 -16h-384q-15 2 -16 16v272h416v-272zM480 352h-416v80q2 15 16 16h384q15 -2 16 -16v-80zM224 384h32v32h-32v-32zM160 384h32v32h-32v-32z " />
<glyph unicode="&#xe119;" d="M64 352h224v32h-224v-32zM416 512h-256q-42 -1 -71 -32h327q39 0 57 -35q7 -14 7 -29v-327q31 29 32 71v256q0 53 -45 81q-24 15 -51 15zM320 352h32v32h-32v-32zM352 448h-256q-53 0 -81 -45q-15 -24 -15 -51v-256q0 -53 45 -81q24 -15 51 -15h256q53 0 81 45 q15 24 15 51v256q0 53 -45 81q-24 15 -51 15zM416 96q0 -39 -35 -57q-14 -7 -29 -7h-256q-39 0 -57 35q-7 14 -7 29v192h384v-192zM416 320h-384v32q0 39 35 57q14 7 29 7h256q39 0 57 -35q7 -14 7 -29v-32z" />
<glyph unicode="&#xe11a;" d="M496 480h-480q-15 -2 -16 -16v-448q2 -15 16 -16h480q15 2 16 16v448q-2 15 -16 16zM480 48q-2 -15 -16 -16h-416q-15 2 -16 16v336h448v-336zM480 416h-448v16q2 15 16 16h416q15 -2 16 -16v-16z" />
<glyph unicode="&#xe11b;" d="M256 512q-111 0 -187 -82q-69 -74 -69 -174q0 -111 82 -187q74 -69 174 -69q111 0 187 82q69 74 69 174q0 111 -82 187q-74 69 -174 69zM192 256h128q0 -57 -7 -99q-27 3 -57 3t-57 -3q-7 43 -7 99zM193 288q2 36 6 67q27 -3 57 -3t57 3q5 -32 6 -67h-126zM438 386 q32 -47 39 -98h-126q-1 26 -7 71q54 7 94 27zM480 256q-1 -70 -42 -129q-36 18 -94 27q8 50 8 102h128zM426 400h-27q-28 -8 -61 -11q-13 54 -32 85q72 -17 120 -74zM256 480q32 -2 52 -94q-34 -2 -52 -2q-19 0 -52 2q20 93 52 94zM206 474q-19 -32 -32 -85q-34 3 -61 11 h-27q49 57 120 74zM74 386q39 -19 94 -28q-6 -44 -7 -70h-126q8 52 39 98zM160 256q0 -53 8 -102q-59 -10 -94 -27q-42 60 -42 129h128zM85 112h26q30 8 63 11q13 -54 32 -85q-73 18 -121 74zM256 32q-32 2 -52 94q34 2 52 2q19 0 52 -2q-20 -93 -52 -94zM306 38 q19 32 32 85q34 -3 63 -11h26q-49 -57 -121 -74z" />
<glyph unicode="&#xe11c;" d="M256 512q-111 0 -187 -82q-69 -74 -69 -174q0 -111 82 -187q74 -69 174 -69q111 0 187 82q69 74 69 174q0 111 -82 187q-74 69 -174 69zM319 288h-126q1 26 5 64h116q4 -40 5 -64zM320 256q0 -53 -6 -96h-116q-6 44 -6 96h128zM477 288h-126q-2 35 -6 64h113 q15 -34 19 -64zM439 384h-100q-13 58 -33 90q84 -19 133 -90zM256 480q32 0 51 -89q0 -4 1 -7h-104q20 92 52 96zM206 474q-21 -33 -33 -90h-100q50 71 133 90zM54 352h113q-4 -30 -6 -64h-126q4 31 19 64zM32 256h128q0 -44 7 -96h-113q-22 46 -22 96zM73 128h100 q13 -58 33 -90q-84 19 -133 90zM256 32q-33 2 -53 96h105q-20 -92 -52 -96zM306 38q21 33 33 90h100q-50 -71 -133 -90zM345 160q7 43 7 96h128q0 -47 -22 -96h-113z" />
<glyph unicode="&#xe11d;" d="M64 192q-39 0 -57 -35q-7 -14 -7 -29q0 -39 35 -57q14 -7 29 -7q39 0 57 35q7 14 7 29q0 39 -35 57q-14 7 -29 7zM64 96q-24 0 -31 22q-1 6 -1 10q0 24 22 31q6 1 10 1q24 0 31 -22q1 -6 1 -10q0 -24 -22 -31q-6 -1 -10 -1zM64 352q-39 0 -57 -35q-7 -14 -7 -29 q0 -39 35 -57q14 -7 29 -7q39 0 57 35q7 14 7 29q0 39 -35 57q-14 7 -29 7zM64 256q-24 0 -31 22q-1 6 -1 10q0 24 22 31q6 1 10 1q24 0 31 -22q1 -6 1 -10q0 -24 -22 -31q-6 -1 -10 -1zM448 384q39 0 57 35q7 14 7 29q0 39 -35 57q-14 7 -29 7q-39 0 -57 -35q-7 -14 -7 -29 q0 -39 35 -57q14 -7 29 -7zM448 480q24 0 31 -22q1 -6 1 -10q0 -24 -22 -31q-6 -1 -10 -1q-24 0 -31 22q-1 6 -1 10q0 24 22 31q6 1 10 1zM448 352q-39 0 -57 -35q-7 -14 -7 -29q0 -39 35 -57q14 -7 29 -7q39 0 57 35q7 14 7 29q0 39 -35 57q-14 7 -29 7zM448 256 q-24 0 -31 22q-1 6 -1 10q0 24 22 31q6 1 10 1q24 0 31 -22q1 -6 1 -10q0 -24 -22 -31q-6 -1 -10 -1zM256 352q-39 0 -57 -35q-7 -14 -7 -29q0 -39 35 -57q14 -7 29 -7q39 0 57 35q7 14 7 29q0 39 -35 57q-14 7 -29 7zM256 256q-24 0 -31 22q-1 6 -1 10q0 24 22 31q6 1 10 1 q24 0 31 -22q1 -6 1 -10q0 -24 -22 -31q-6 -1 -10 -1zM256 512q-39 0 -57 -35q-7 -14 -7 -29q0 -39 35 -57q14 -7 29 -7q39 0 57 35q7 14 7 29q0 39 -35 57q-14 7 -29 7zM256 416q-24 0 -31 22q-1 6 -1 10q0 24 22 31q6 1 10 1q24 0 31 -22q1 -6 1 -10q0 -24 -22 -31 q-6 -1 -10 -1zM256 192q-39 0 -57 -35q-7 -14 -7 -29q0 -39 35 -57q14 -7 29 -7q39 0 57 35q7 14 7 29q0 39 -35 57q-14 7 -29 7zM256 96q-24 0 -31 22q-1 6 -1 10q0 24 22 31q6 1 10 1q24 0 31 -22q1 -6 1 -10q0 -24 -22 -31q-6 -1 -10 -1zM448 192q-39 0 -57 -35 q-7 -14 -7 -29q0 -39 35 -57q14 -7 29 -7q39 0 57 35q7 14 7 29q0 39 -35 57q-14 7 -29 7zM448 96q-24 0 -31 22q-1 6 -1 10q0 24 22 31q6 1 10 1q24 0 31 -22q1 -6 1 -10q0 -24 -22 -31q-6 -1 -10 -1zM64 512q-39 0 -57 -35q-7 -14 -7 -29q0 -39 35 -57q14 -7 29 -7 q39 0 57 35q7 14 7 29q0 39 -35 57q-14 7 -29 7zM64 416q-24 0 -31 22q-1 6 -1 10q0 24 22 31q6 1 10 1q24 0 31 -22q1 -6 1 -10q0 -24 -22 -31q-6 -1 -10 -1z" />
<glyph unicode="&#xe11e;" d="M496 32h-48l-38 96l-154 384l-192 -480h-48q-15 -2 -16 -16q2 -15 16 -16h480q15 2 16 16q-2 15 -16 16zM256 448l37 -96h-74zM208 323v-3h96v3l14 -35h-124zM182 256h148l24 -64h-196zM145 160h222l12 -32h-246zM96 32l25 64h270l25 -64h-320z" />
<glyph unicode="&#xe11f;" d="M512 499l-1 1v2q-1 1 -2 3l-2 2l-2 2q-1 1 -3 2l-2 1h-1h-3h-3h-1l-479 -183q-7 -3 -10 -7l-1 -1q-1 -2 -1 -3q-1 -2 -1 -4v-1v-4l1 -2q6 -9 15 -10l238 -43l43 -238q1 -10 10 -15h2q2 -1 4 -1h1h2l2 1l2 1l2 1q5 4 7 10l183 479v1v3v3zM319 76l-35 191q-1 7 -5 12 q-6 5 -12 5l-191 35l392 149z" />
<glyph unicode="&#xe120;" d="M144 160q-15 2 -16 16v48h-128v-96q0 -53 45 -81q24 -15 51 -15h128v128h-80zM192 64h-96q-39 0 -57 35q-7 14 -7 29v64h64v-32q0 -24 22 -31q6 -1 10 -1h64v-64zM416 480h-128v-128h80q15 -2 16 -16v-48h128v96q0 53 -45 81q-24 15 -51 15zM480 320h-64v32q0 24 -22 31 q-6 1 -10 1h-64v64h96q39 0 57 -35q7 -14 7 -29v-64zM384 192v-16q-2 -15 -16 -16h-80v-128h128q53 0 81 45q15 24 15 51v96h-128v-32zM416 160v32h64v-64q0 -39 -35 -57q-14 -7 -29 -7h-96v64h64q24 0 31 22q1 6 1 10zM96 480q-53 0 -81 -45q-15 -24 -15 -51v-96h128v48 q2 15 16 16h80v128h-128zM192 384h-64q-24 0 -31 -22q-1 -6 -1 -10v-32h-64v64q0 39 35 57q14 7 29 7h96v-64z" />
<glyph unicode="&#xe121;" d="M144 128q-15 2 -16 16v80h-128v-128q0 -53 45 -81q24 -15 51 -15h128v128h-80zM192 32h-96q-39 0 -57 35q-7 14 -7 29v96h64v-64q0 -24 22 -31q6 -1 10 -1h64v-64zM416 512h-128v-128h80q15 -2 16 -16v-80h128v128q0 53 -45 81q-24 15 -51 15zM480 320h-64v64 q0 24 -22 31q-6 1 -10 1h-64v64h96q39 0 57 -35q7 -14 7 -29v-96zM384 192v-48q-2 -15 -16 -16h-80v-128h128q53 0 81 45q15 24 15 51v128h-128v-32zM416 128v64h64v-96q0 -39 -35 -57q-14 -7 -29 -7h-96v64h64q24 0 31 22q1 6 1 10zM96 512q-53 0 -81 -45q-15 -24 -15 -51 v-128h128v80q2 15 16 16h80v128h-128zM192 416h-64q-24 0 -31 -22q-1 -6 -1 -10v-64h-64v96q0 39 35 57q14 7 29 7h96v-64z" />
<glyph unicode="&#xe122;" d="M0 0h128v128h-128v-128zM32 96h64v-64h-64v64zM0 192h128v128h-128v-128zM32 288h64v-64h-64v64zM384 512v-128h128v128h-128zM480 416h-64v64h64v-64zM192 192h128v128h-128v-128zM224 288h64v-64h-64v64zM192 384h128v128h-128v-128zM224 480h64v-64h-64v64zM384 0h128 v128h-128v-128zM416 96h64v-64h-64v64zM192 0h128v128h-128v-128zM224 96h64v-64h-64v64zM0 384h128v128h-128v-128zM32 480h64v-64h-64v64zM384 192h128v128h-128v-128zM416 288h64v-64h-64v64z" />
<glyph unicode="&#xe123;" d="M192 128l160 128l-160 128v-256zM448 512h-384q-39 0 -57 -35q-7 -14 -7 -29v-384q0 -39 35 -57q14 -7 29 -7h384q39 0 57 35q7 14 7 29v384q0 39 -35 57q-14 7 -29 7zM480 64q0 -24 -22 -31q-6 -1 -10 -1h-384q-24 0 -31 22q-1 6 -1 10v384q0 24 22 31q6 1 10 1h384 q24 0 31 -22q1 -6 1 -10v-384z" />
<glyph unicode="&#xe124;" d="M320 128v256l-160 -128zM448 512h-384q-39 0 -57 -35q-7 -14 -7 -29v-384q0 -39 35 -57q14 -7 29 -7h384q39 0 57 35q7 14 7 29v384q0 39 -35 57q-14 7 -29 7zM480 64q0 -24 -22 -31q-6 -1 -10 -1h-384q-24 0 -31 22q-1 6 -1 10v384q0 24 22 31q6 1 10 1h384q24 0 31 -22 q1 -6 1 -10v-384z" />
<glyph unicode="&#xe125;" d="M128 192h256l-128 160zM448 512h-384q-39 0 -57 -35q-7 -14 -7 -29v-384q0 -39 35 -57q14 -7 29 -7h384q39 0 57 35q7 14 7 29v384q0 39 -35 57q-14 7 -29 7zM480 64q0 -24 -22 -31q-6 -1 -10 -1h-384q-24 0 -31 22q-1 6 -1 10v384q0 24 22 31q6 1 10 1h384q24 0 31 -22 q1 -6 1 -10v-384z" />
<glyph unicode="&#xe126;" d="M256 160l128 160h-256zM448 512h-384q-39 0 -57 -35q-7 -14 -7 -29v-384q0 -39 35 -57q14 -7 29 -7h384q39 0 57 35q7 14 7 29v384q0 39 -35 57q-14 7 -29 7zM480 64q0 -24 -22 -31q-6 -1 -10 -1h-384q-24 0 -31 22q-1 6 -1 10v384q0 24 22 31q6 1 10 1h384q24 0 31 -22 q1 -6 1 -10v-384z" />
<glyph unicode="&#xe127;" d="M346 256l124 125q18 17 5 38q-3 4 -5 7l-45 45q-17 17 -39 4q-4 -2 -6 -4l-124 -124l-125 124q-17 17 -39 4q-4 -2 -6 -4l-45 -45q-17 -19 -4 -40q2 -3 4 -5l124 -125l-124 -124q-17 -19 -4 -40q2 -3 4 -5l45 -45q18 -18 39 -5q4 3 6 5l125 124l124 -124q18 -18 39 -5 q4 3 6 5l46 45q17 17 4 39q-2 4 -4 6zM437 98l-23 -23q-11 -9 -23 0l-135 136l-136 -136q-11 -9 -22 0l-23 23q-9 11 0 23l136 135l-136 136q-9 11 0 22l23 23q11 9 22 0l136 -136l135 136q12 9 23 0l23 -23q9 -11 0 -22l-136 -136l136 -135q9 -12 0 -23z" />
<glyph unicode="&#xe128;" d="M475 381l-80 79q-11 8 -23 0l-219 -228l-57 55q-11 9 -22 0l-69 -67q-11 -11 0 -22l149 -146q11 -8 23 0l298 307q11 11 0 22zM165 86l-126 123l46 45l57 -56q12 -9 23 0l219 228l57 -56z" />
<glyph unicode="&#xe129;" d="M480 320h-448q-24 0 -31 -22q-1 -6 -1 -10v-64q0 -24 22 -31q6 -1 10 -1h448q24 0 31 22q1 6 1 10v64q0 24 -22 31q-6 1 -10 1zM480 240q-2 -15 -16 -16h-416q-15 2 -16 16v32q2 15 16 16h416q15 -2 16 -16v-32z" />
<glyph unicode="&#xe12a;" d="M480 320h-160v160q0 24 -22 31q-6 1 -10 1h-64q-24 0 -31 -22q-1 -6 -1 -10v-160h-160q-24 0 -31 -22q-1 -6 -1 -10v-64q0 -24 22 -31q6 -1 10 -1h160v-160q0 -24 22 -31q6 -1 10 -1h64q24 0 31 22q1 6 1 10v160h160q24 0 31 22q1 6 1 10v64q0 24 -22 31q-6 1 -10 1z M480 240q-2 -15 -16 -16h-176v-176q-2 -15 -16 -16h-32q-15 2 -16 16v176h-176q-15 2 -16 16v32q2 15 16 16h176v176q2 15 16 16h32q15 -2 16 -16v-176h176q15 -2 16 -16v-32z" />
<glyph unicode="&#xe12b;" d="M480 320h-448q-24 0 -31 -22q-1 -6 -1 -10v-64q0 -24 22 -31q6 -1 10 -1h448q24 0 31 22q1 6 1 10v64q0 24 -22 31q-6 1 -10 1zM480 240q-2 -15 -16 -16h-416q-15 2 -16 16v32q2 15 16 16h416q15 -2 16 -16v-32zM480 160h-448q-24 0 -31 -22q-1 -6 -1 -10v-64 q0 -24 22 -31q6 -1 10 -1h448q24 0 31 22q1 6 1 10v64q0 24 -22 31q-6 1 -10 1zM480 80q-2 -15 -16 -16h-416q-15 2 -16 16v32q2 15 16 16h416q15 -2 16 -16v-32zM480 480h-448q-24 0 -31 -22q-1 -6 -1 -10v-64q0 -24 22 -31q6 -1 10 -1h448q24 0 31 22q1 6 1 10v64 q0 24 -22 31q-6 1 -10 1zM480 400q-2 -15 -16 -16h-416q-15 2 -16 16v32q2 15 16 16h416q15 -2 16 -16v-32z" />
<glyph unicode="&#xe12c;" d="M192 224h-128q-24 0 -31 -22q-1 -6 -1 -10v-128q0 -24 22 -31q6 -1 10 -1h128q24 0 31 22q1 6 1 10v128q0 24 -22 31q-6 1 -10 1zM192 80q-2 -15 -16 -16h-96q-15 2 -16 16v96q2 15 16 16h96q15 -2 16 -16v-96zM192 480h-128q-24 0 -31 -22q-1 -6 -1 -10v-128 q0 -24 22 -31q6 -1 10 -1h128q24 0 31 22q1 6 1 10v128q0 24 -22 31q-6 1 -10 1zM192 336q-2 -15 -16 -16h-96q-15 2 -16 16v96q2 15 16 16h96q15 -2 16 -16v-96zM448 480h-128q-24 0 -31 -22q-1 -6 -1 -10v-128q0 -24 22 -31q6 -1 10 -1h128q24 0 31 22q1 6 1 10v128 q0 24 -22 31q-6 1 -10 1zM448 336q-2 -15 -16 -16h-96q-15 2 -16 16v96q2 15 16 16h96q15 -2 16 -16v-96zM448 224h-128q-24 0 -31 -22q-1 -6 -1 -10v-128q0 -24 22 -31q6 -1 10 -1h128q24 0 31 22q1 6 1 10v128q0 24 -22 31q-6 1 -10 1zM448 80q-2 -15 -16 -16h-96 q-15 2 -16 16v96q2 15 16 16h96q15 -2 16 -16v-96z" />
<glyph unicode="&#xe12d;" d="M389 315l-133 -118l-133 119q-11 9 -22 0q-9 -11 0 -23l143 -128q5 -5 12 -5q7 1 11 5l145 127q9 12 0 23q-12 9 -23 0zM448 512h-384q-39 0 -57 -35q-7 -14 -7 -29v-384q0 -39 35 -57q14 -7 29 -7h384q39 0 57 35q7 14 7 29v384q0 39 -35 57q-14 7 -29 7zM480 64 q0 -24 -22 -31q-6 -1 -10 -1h-384q-24 0 -31 22q-1 6 -1 10v384q0 24 22 31q6 1 10 1h384q24 0 31 -22q1 -6 1 -10v-384z" />
<glyph unicode="&#xe12e;" d="M448 512h-384q-39 0 -57 -35q-7 -14 -7 -29v-384q0 -39 35 -57q14 -7 29 -7h384q39 0 57 35q7 14 7 29v384q0 39 -35 57q-14 7 -29 7zM480 64q0 -24 -22 -31q-6 -1 -10 -1h-384q-24 0 -31 22q-1 6 -1 10v384q0 24 22 31q6 1 10 1h384q24 0 31 -22q1 -6 1 -10v-384z M267 347q-5 5 -12 5q-7 -1 -11 -5l-144 -128q-9 -11 0 -22q12 -11 23 0l132 118l134 -118q11 -10 22 1q9 11 0 22z" />
<glyph unicode="&#xe12f;" d="M347 267l-127 144q-11 9 -22 0q-11 -11 -1 -22l118 -134l-118 -132q-10 -11 0 -23q11 -9 22 0l128 144q5 5 5 11q-1 8 -5 12zM448 512h-384q-39 0 -57 -35q-7 -14 -7 -29v-384q0 -39 35 -57q14 -7 29 -7h384q39 0 57 35q7 14 7 29v384q0 39 -35 57q-14 7 -29 7zM480 64 q0 -24 -22 -31q-6 -1 -10 -1h-384q-24 0 -31 22q-1 6 -1 10v384q0 24 22 31q6 1 10 1h384q24 0 31 -22q1 -6 1 -10v-384z" />
<glyph unicode="&#xe130;" d="M197 256l118 133q9 11 -1 23q-11 9 -22 0l-127 -145q-5 -5 -5 -11q1 -8 5 -12l128 -143q11 -9 22 0q11 11 0 22zM448 512h-384q-39 0 -57 -35q-7 -14 -7 -29v-384q0 -39 35 -57q14 -7 29 -7h384q39 0 57 35q7 14 7 29v384q0 39 -35 57q-14 7 -29 7zM480 64q0 -24 -22 -31 q-6 -1 -10 -1h-384q-24 0 -31 22q-1 6 -1 10v384q0 24 22 31q6 1 10 1h384q24 0 31 -22q1 -6 1 -10v-384z" />
<glyph unicode="&#xe131;" d="M64 64h160v192h-160v-192zM96 224h96v-128h-96v128zM64 288h384v160h-384v-160zM96 416h320v-96h-320v96zM480 512h-448q-24 0 -31 -22q-1 -6 -1 -10v-448q0 -24 22 -31q6 -1 10 -1h448q24 0 31 22q1 6 1 10v448q0 24 -22 31q-6 1 -10 1zM480 48q-2 -15 -16 -16h-416 q-15 2 -16 16v416q2 15 16 16h416q15 -2 16 -16v-416zM288 64h160v192h-160v-192zM320 224h96v-128h-96v128z" />
<glyph unicode="&#xe132;" d="M64 64h160v192h-160v-192zM96 224h96v-128h-96v128zM480 512h-448q-24 0 -31 -22q-1 -6 -1 -10v-448q0 -24 22 -31q6 -1 10 -1h448q24 0 31 22q1 6 1 10v448q0 24 -22 31q-6 1 -10 1zM480 48q-2 -15 -16 -16h-416q-15 2 -16 16v416q2 15 16 16h416q15 -2 16 -16v-416z M64 320h384v128h-384v-128zM96 416h320v-64h-320v64zM288 64h160v192h-160v-192zM320 224h96v-128h-96v128z" />
<glyph unicode="&#xe133;" d="M448 512h-384q-39 0 -57 -35q-7 -14 -7 -29v-384q0 -39 35 -57q14 -7 29 -7h384q39 0 57 35q7 14 7 29v384q0 39 -35 57q-14 7 -29 7zM480 64q0 -24 -22 -31q-6 -1 -10 -1h-384q-24 0 -31 22q-1 6 -1 10v64h448v-64zM480 160h-448v288q0 24 22 31q6 1 10 1h384 q24 0 31 -22q1 -6 1 -10v-288z" />
<glyph unicode="&#xe134;" d="M448 512h-384q-39 0 -57 -35q-7 -14 -7 -29v-384q0 -39 35 -57q14 -7 29 -7h384q39 0 57 35q7 14 7 29v384q0 39 -35 57q-14 7 -29 7zM480 64q0 -24 -22 -31q-6 -1 -10 -1h-384q-24 0 -31 22q-1 6 -1 10v288h448v-288zM480 384h-448v64q0 24 22 31q6 1 10 1h384 q24 0 31 -22q1 -6 1 -10v-64z" />
<glyph unicode="&#xe135;" d="M448 512h-384q-39 0 -57 -35q-7 -14 -7 -29v-384q0 -39 35 -57q14 -7 29 -7h384q39 0 57 35q7 14 7 29v384q0 39 -35 57q-14 7 -29 7zM480 64q0 -24 -22 -31q-6 -1 -10 -1h-384q-24 0 -31 22q-1 6 -1 10v96h448v-96zM480 192h-448v128h448v-128zM480 352h-448v96 q0 24 22 31q6 1 10 1h384q24 0 31 -22q1 -6 1 -10v-96z" />
<glyph unicode="&#xe136;" d="M448 512h-384q-39 0 -57 -35q-7 -14 -7 -29v-384q0 -39 35 -57q14 -7 29 -7h384q39 0 57 35q7 14 7 29v384q0 39 -35 57q-14 7 -29 7zM352 32h-288q-24 0 -31 22q-1 6 -1 10v384q0 24 22 31q6 1 10 1h288v-448zM480 64q0 -24 -22 -31q-6 -1 -10 -1h-64v448h64 q24 0 31 -22q1 -6 1 -10v-384z" />
<glyph unicode="&#xe137;" d="M448 512h-384q-39 0 -57 -35q-7 -14 -7 -29v-384q0 -39 35 -57q14 -7 29 -7h384q39 0 57 35q7 14 7 29v384q0 39 -35 57q-14 7 -29 7zM128 32h-64q-24 0 -31 22q-1 6 -1 10v384q0 24 22 31q6 1 10 1h64v-448zM480 64q0 -24 -22 -31q-6 -1 -10 -1h-288v448h288 q24 0 31 -22q1 -6 1 -10v-384z" />
<glyph unicode="&#xe138;" d="M448 512h-384q-39 0 -57 -35q-7 -14 -7 -29v-384q0 -39 35 -57q14 -7 29 -7h384q39 0 57 35q7 14 7 29v384q0 39 -35 57q-14 7 -29 7zM352 32h-288q-24 0 -31 22q-1 6 -1 10v160h320v-192zM352 256h-320v192q0 24 22 31q6 1 10 1h288v-224zM480 64q0 -24 -22 -31 q-6 -1 -10 -1h-64v448h64q24 0 31 -22q1 -6 1 -10v-384z" />
<glyph unicode="&#xe139;" d="M448 512h-384q-39 0 -57 -35q-7 -14 -7 -29v-384q0 -39 35 -57q14 -7 29 -7h384q39 0 57 35q7 14 7 29v384q0 39 -35 57q-14 7 -29 7zM128 32h-64q-24 0 -31 22q-1 6 -1 10v384q0 24 22 31q6 1 10 1h64v-448zM480 64q0 -24 -22 -31q-6 -1 -10 -1h-288v192h320v-160z M480 256h-320v224h288q24 0 31 -22q1 -6 1 -10v-192z" />
<glyph unicode="&#xe13a;" d="M448 512h-384q-39 0 -57 -35q-7 -14 -7 -29v-384q0 -39 35 -57q14 -7 29 -7h384q39 0 57 35q7 14 7 29v384q0 39 -35 57q-14 7 -29 7zM352 32h-288q-24 0 -31 22q-1 6 -1 10v128h320v-160zM352 224h-320v128h320v-128zM480 64q0 -24 -22 -31q-6 -1 -10 -1h-64v320h96 v-288zM480 384h-448v64q0 24 22 31q6 1 10 1h384q24 0 31 -22q1 -6 1 -10v-64z" />
<glyph unicode="&#xe13b;" d="M448 512h-384q-39 0 -57 -35q-7 -14 -7 -29v-384q0 -39 35 -57q14 -7 29 -7h384q39 0 57 35q7 14 7 29v384q0 39 -35 57q-14 7 -29 7zM128 32h-64q-24 0 -31 22q-1 6 -1 10v288h96v-320zM480 64q0 -24 -22 -31q-6 -1 -10 -1h-288v160h320v-128zM480 224h-320v128h320 v-128zM480 384h-448v64q0 24 22 31q6 1 10 1h384q24 0 31 -22q1 -6 1 -10v-64z" />
<glyph unicode="&#xe13c;" d="M448 512h-384q-39 0 -57 -35q-7 -14 -7 -29v-384q0 -39 35 -57q14 -7 29 -7h384q39 0 57 35q7 14 7 29v384q0 39 -35 57q-14 7 -29 7zM352 32h-288q-24 0 -31 22q-1 6 -1 10v288h320v-320zM480 64q0 -24 -22 -31q-6 -1 -10 -1h-64v320h96v-288zM480 384h-448v64 q0 24 22 31q6 1 10 1h384q24 0 31 -22q1 -6 1 -10v-64z" />
<glyph unicode="&#xe13d;" d="M448 512h-384q-39 0 -57 -35q-7 -14 -7 -29v-384q0 -39 35 -57q14 -7 29 -7h384q39 0 57 35q7 14 7 29v384q0 39 -35 57q-14 7 -29 7zM128 32h-64q-24 0 -31 22q-1 6 -1 10v288h96v-320zM480 64q0 -24 -22 -31q-6 -1 -10 -1h-288v320h320v-288zM480 384h-448v64 q0 24 22 31q6 1 10 1h384q24 0 31 -22q1 -6 1 -10v-64z" />
<glyph unicode="&#xe13e;" d="M448 512h-384q-39 0 -57 -35q-7 -14 -7 -29v-384q0 -39 35 -57q14 -7 29 -7h384q39 0 57 35q7 14 7 29v384q0 39 -35 57q-14 7 -29 7zM160 32h-96q-24 0 -31 22q-1 6 -1 10v384q0 24 22 31q6 1 10 1h96v-448zM320 32h-128v448h128v-448zM480 64q0 -24 -22 -31 q-6 -1 -10 -1h-96v448h96q24 0 31 -22q1 -6 1 -10v-384z" />
<glyph unicode="&#xe13f;" d="M448 512h-384q-39 0 -57 -35q-7 -14 -7 -29v-384q0 -39 35 -57q14 -7 29 -7h384q39 0 57 35q7 14 7 29v384q0 39 -35 57q-14 7 -29 7zM224 32h-160q-24 0 -31 22q-1 6 -1 10v384q0 24 22 31q6 1 10 1h160v-448zM480 64q0 -24 -22 -31q-6 -1 -10 -1h-192v448h192 q24 0 31 -22q1 -6 1 -10v-384z" />
<glyph unicode="&#xe140;" d="M379 347q-11 9 -22 0l-85 -85l-85 85q-11 9 -22 0q-11 -11 0 -22l85 -85l-85 -85q-11 -11 0 -22t22 0l85 85l85 -85q11 -11 22 0t0 22l-85 85l85 85q11 11 0 22zM448 480h-352q-39 0 -57 -35q-7 -14 -7 -29v-352q0 -39 35 -57q14 -7 29 -7h352q39 0 57 35q7 14 7 29v352 q0 39 -35 57q-14 7 -29 7zM480 64q0 -24 -22 -31q-6 -1 -10 -1h-352q-24 0 -31 22q-1 6 -1 10v352q0 24 22 31q6 1 10 1h352q24 0 31 -22q1 -6 1 -10v-352z" />
<glyph unicode="&#xe141;" d="M387 347l-139 -181l-90 85q-13 11 -25 0q-10 -11 0 -23l104 -95q5 -5 11 -5q7 1 11 5l152 191q11 12 0 23q-12 10 -24 0zM448 480h-352q-39 0 -57 -35q-7 -14 -7 -29v-352q0 -39 35 -57q14 -7 29 -7h352q39 0 57 35q7 14 7 29v352q0 39 -35 57q-14 7 -29 7zM480 64 q0 -24 -22 -31q-6 -1 -10 -1h-352q-24 0 -31 22q-1 6 -1 10v352q0 24 22 31q6 1 10 1h352q24 0 31 -22q1 -6 1 -10v-352z" />
<glyph unicode="&#xe142;" d="M369 256h-81v81q-3 12 -16 15q-13 -3 -16 -15v-81h-81q-12 -3 -15 -16q3 -13 15 -16h81v-81q3 -12 16 -15q13 3 16 15v81h81q12 3 15 16q-3 13 -15 16zM448 480h-352q-39 0 -57 -35q-7 -14 -7 -29v-352q0 -39 35 -57q14 -7 29 -7h352q39 0 57 35q7 14 7 29v352 q0 39 -35 57q-14 7 -29 7zM480 64q0 -24 -22 -31q-6 -1 -10 -1h-352q-24 0 -31 22q-1 6 -1 10v352q0 24 22 31q6 1 10 1h352q24 0 31 -22q1 -6 1 -10v-352z" />
<glyph unicode="&#xe143;" d="M367 256h-190q-14 -3 -17 -16q3 -13 17 -16h190q14 3 17 16q-3 13 -17 16zM448 480h-352q-39 0 -57 -35q-7 -14 -7 -29v-352q0 -39 35 -57q14 -7 29 -7h352q39 0 57 35q7 14 7 29v352q0 39 -35 57q-14 7 -29 7zM480 64q0 -24 -22 -31q-6 -1 -10 -1h-352q-24 0 -31 22 q-1 6 -1 10v352q0 24 22 31q6 1 10 1h352q24 0 31 -22q1 -6 1 -10v-352z" />
<glyph unicode="&#xe144;" d="M151 384h41q15 2 16 16q-2 15 -16 16h-80q-15 -2 -16 -16v-80q2 -15 16 -16q15 2 16 16v41l69 -68q6 -5 11 -5q6 1 11 5q11 11 0 22zM197 219l-69 -68v41q-2 15 -16 16q-15 -2 -16 -16v-80q2 -15 16 -16h80q15 2 16 16q-2 15 -16 16h-41l68 69q11 11 0 22t-22 0zM400 208 q-15 -2 -16 -16v-41l-69 68q-11 11 -22 0t0 -22l68 -69h-41q-15 -2 -16 -16q2 -15 16 -16h80q15 2 16 16v80q-2 15 -16 16zM448 512h-384q-39 0 -57 -35q-7 -14 -7 -29v-384q0 -39 35 -57q14 -7 29 -7h384q39 0 57 35q7 14 7 29v384q0 39 -35 57q-14 7 -29 7zM480 64 q0 -24 -22 -31q-6 -1 -10 -1h-384q-24 0 -31 22q-1 6 -1 10v384q0 24 22 31q6 1 10 1h384q24 0 31 -22q1 -6 1 -10v-384zM400 416h-80q-15 -2 -16 -16q2 -15 16 -16h41l-68 -69q-11 -11 0 -22q6 -5 11 -5q6 1 11 5l69 68v-41q2 -15 16 -16q15 2 16 16v80q-2 15 -16 16z" />
<glyph unicode="&#xe145;" d="M213 235l-117 -117v90q-2 15 -16 16q-15 -2 -16 -16v-128v-1q1 -5 4 -10h1v-1q6 -4 10 -4h1h128q15 2 16 16q-2 15 -16 16h-90l117 117q11 11 0 22t-22 0zM444 443h-1v1q-6 4 -10 4h-1h-128q-15 -2 -16 -16q2 -15 16 -16h90l-117 -117q-11 -11 0 -22t22 0l117 117v-90 q2 -15 16 -16q15 2 16 16v128v1q-1 5 -4 10zM448 512h-384q-39 0 -57 -35q-7 -14 -7 -29v-384q0 -39 35 -57q14 -7 29 -7h384q39 0 57 35q7 14 7 29v384q0 39 -35 57q-14 7 -29 7zM480 64q0 -24 -22 -31q-6 -1 -10 -1h-384q-24 0 -31 22q-1 6 -1 10v384q0 24 22 31q6 1 10 1 h384q24 0 31 -22q1 -6 1 -10v-384z" />
<glyph unicode="&#xe146;" d="M443 443q-11 11 -22 0l-101 -101v90q-2 15 -16 16q-15 -2 -16 -16v-128q2 -15 16 -16h128q15 2 16 16q-2 15 -16 16h-90l101 101q11 11 0 22zM208 224h-128q-15 -2 -16 -16q2 -15 16 -16h90l-101 -101q-11 -11 0 -22t22 0l101 101v-90q2 -15 16 -16q15 2 16 16v128 q-2 15 -16 16zM448 512h-384q-39 0 -57 -35q-7 -14 -7 -29v-384q0 -39 35 -57q14 -7 29 -7h384q39 0 57 35q7 14 7 29v384q0 39 -35 57q-14 7 -29 7zM480 64q0 -24 -22 -31q-6 -1 -10 -1h-384q-24 0 -31 22q-1 6 -1 10v384q0 24 22 31q6 1 10 1h384q24 0 31 -22q1 -6 1 -10 v-384z" />
<glyph unicode="&#xe147;" d="M208 96h-112v112q-2 15 -16 16q-15 -2 -16 -16v-128q2 -15 16 -16h128q15 2 16 16q-2 15 -16 16zM448 512h-384q-39 0 -57 -35q-7 -14 -7 -29v-384q0 -39 35 -57q14 -7 29 -7h384q39 0 57 35q7 14 7 29v384q0 39 -35 57q-14 7 -29 7zM480 64q0 -24 -22 -31q-6 -1 -10 -1 h-384q-24 0 -31 22q-1 6 -1 10v384q0 24 22 31q6 1 10 1h384q24 0 31 -22q1 -6 1 -10v-384zM432 448h-128q-15 -2 -16 -16q2 -15 16 -16h112v-112q2 -15 16 -16q15 2 16 16v128q-2 15 -16 16z" />
<glyph unicode="&#xe148;" d="M144 320q-15 -2 -16 -16v-96q2 -15 16 -16q15 2 16 16v96q-2 15 -16 16zM240 352q-15 -2 -16 -16v-160q2 -15 16 -16q15 2 16 16v160q-2 15 -16 16zM336 384q-15 -2 -16 -16v-224q2 -15 16 -16q15 2 16 16v224q-2 15 -16 16zM448 512h-384q-39 0 -57 -35q-7 -14 -7 -29 v-384q0 -39 35 -57q14 -7 29 -7h384q39 0 57 35q7 14 7 29v384q0 39 -35 57q-14 7 -29 7zM480 64q0 -24 -22 -31q-6 -1 -10 -1h-384q-24 0 -31 22q-1 6 -1 10v384q0 24 22 31q6 1 10 1h384q24 0 31 -22q1 -6 1 -10v-384z" />
<glyph unicode="&#xe149;" d="M512 352v160h-160v-64h-192v64h-160v-160h64v-192h-64v-160h160v64h192v-64h160v160h-64v192h64zM32 384v96h96v-96h-96zM128 32h-96v96h96v-96zM352 96h-192v64h-64v192h64v64h192v-64h64v-192h-64v-64zM480 128v-96h-96v96h96zM384 384v96h96v-96h-96z" />
<glyph unicode="&#xe14a;" d="M511 497q-1 5 -4 10h-1v1q-6 4 -10 4h-1h-192q-13 -3 -16 -16q3 -13 16 -16h154l-213 -212l-212 -213v154q-3 13 -16 16q-13 -3 -16 -16v-192v-1q1 -5 4 -10h1v-1q6 -4 10 -4h1h192q13 3 16 16q-3 13 -16 16h-154l213 212l212 213v-154q3 -13 16 -16q13 3 16 16v192v1z " />
<glyph unicode="&#xe14b;" d="M112 352h288q15 2 16 16q-2 15 -16 16h-288q-15 -2 -16 -16q2 -15 16 -16zM400 128h-288q-15 -2 -16 -16q2 -15 16 -16h288q15 2 16 16q-2 15 -16 16zM400 256h-288q-15 -2 -16 -16q2 -15 16 -16h288q15 2 16 16q-2 15 -16 16z" />
<glyph unicode="&#xe14c;" d="M448 48l-34 147l-45 -45l-203 203l45 45l-147 34l34 -147l45 45l203 -203l-45 -45z" />
<glyph unicode="&#xe14d;" d="M317 398l45 -45l-203 -203l-45 45l-34 -147l147 34l-45 45l203 203l45 -45l34 147z" />
<glyph unicode="&#xe14e;" d="M288 384h64l-80 128l-80 -128h64v-256h-64l80 -128l80 128h-64v256z" />
<glyph unicode="&#xe14f;" d="M512 240l-128 80v-64h-256v64l-128 -80l128 -80v64h256v-64z" />
<glyph unicode="&#xe150;" d="M288 288h-64v-64h64v64zM400 160h-64v-64h64v64zM400 288h-64v-64h64v64zM176 160h-64v-64h64v64zM480 512h-448q-15 -2 -16 -16v-480q2 -15 16 -16h448q15 2 16 16v480q-2 15 -16 16zM464 32h-416v352h416v-352zM464 416h-416v64h416v-64zM176 288h-64v-64h64v64z M288 160h-64v-64h64v64z" />
<glyph unicode="&#xe151;" d="M229 181q11 -8 23 0l36 36l36 -36q11 -8 23 0q10 12 0 24l-35 36l35 35q8 11 0 23q-12 10 -24 0l-35 -35l-35 35q-12 10 -24 0q-8 -11 0 -23l35 -36l-35 -35q-10 -12 0 -24zM496 416h-368l-72 -86q-56 -71 -56 -90q0 -14 32 -58t64 -81l32 -37h368q15 2 16 16v320 q-2 15 -16 16zM480 96h-336q-16 0 -112 144l70 98q34 45 42 46h336v-288z" />
<glyph unicode="&#xe152;" d="M496 384h-368l-67 -63q-60 -61 -61 -81q0 -14 32 -50t64 -65l32 -29h368q15 2 16 16v256q-2 15 -16 16zM480 128h-336q-16 0 -112 112l70 77q34 34 42 35h336v-224z" />
<glyph unicode="&#xe153;" d="M432 448h-416q-15 -2 -16 -16v-416q2 -15 16 -16h416q15 2 16 16v416q-2 15 -16 16zM416 48q-2 -15 -16 -16h-352q-15 2 -16 16v352q2 15 16 16h352q15 -2 16 -16v-352zM496 512h-416q-15 -2 -16 -16q2 -15 16 -16h400v-400q2 -15 16 -16q15 2 16 16v416q-2 15 -16 16z " />
<glyph unicode="&#xe154;" d="M379 480h117q15 2 16 16q-2 15 -16 16h-159h-1h-2q-1 0 -3 -1t-3 -1l-1 -1q-4 -4 -5 -6l-2 -33v-134q2 -15 16 -16q15 2 16 16v122q82 -39 114 -124q14 -38 14 -78q0 -101 -76 -168q-64 -56 -148 -56q-101 0 -168 76q-56 64 -56 148q0 101 76 167q51 44 116 54v33 q-107 -14 -172 -100q-52 -69 -52 -154q0 -111 82 -187q74 -69 174 -69q111 0 187 82q69 74 69 174q0 113 -84 189q-23 20 -49 35z" />
<glyph unicode="&#xe155;" d="M272 416q-15 -2 -16 -16v-160q2 -15 16 -16h128q15 2 16 16q-2 15 -16 16h-112v144q-2 15 -16 16zM256 512q-113 0 -189 -84q-20 -23 -35 -49v117q-2 15 -16 16q-15 -2 -16 -16v-159v-1v-2q0 -1 1 -3t1 -3l1 -1q5 -5 6 -5l-1 -2h168q15 2 16 16q-2 15 -16 16h-122 q39 82 124 114q38 14 78 14q101 0 168 -76q56 -64 56 -148q0 -101 -76 -168q-64 -56 -148 -56q-100 0 -167 75q-9 11 -16 21h-38q52 -90 152 -118q33 -10 69 -10q111 0 187 82q69 74 69 174q0 111 -82 187q-74 69 -174 69z" />
<glyph unicode="&#xe156;" d="M9 322l33 -2h134q15 2 16 16q-2 15 -16 16h-122q39 82 124 114q38 14 78 14q101 0 167 -76q44 -51 54 -116h33q-14 107 -100 172q-68 52 -154 52q-113 0 -189 -84q-20 -23 -35 -49v117q-2 15 -16 16q-15 -2 -16 -16v-159v-1v-2q0 -1 1 -3t1 -3l1 -1q4 -4 6 -5zM512 178 q0 1 -1 3t-1 3l-1 1q-4 4 -6 5l-33 2h-134q-15 -2 -16 -16q2 -15 16 -16h122q-39 -82 -124 -114q-38 -14 -78 -14q-101 0 -167 76q-44 51 -54 116h-33q14 -107 99 -172q69 -52 155 -52q113 0 189 84q20 23 35 49v-117q2 -15 16 -16q15 2 16 16v159v1v2z" />
<glyph unicode="&#xe157;" d="M506 251q-13 11 -25 0l-97 -96v325q0 23 -22 30q-6 2 -11 2h-318q-23 0 -31 -21q-2 -6 -2 -11v-448q0 -23 22 -30q6 -2 11 -2h254v32h-240q-12 3 -15 16v416q3 13 15 16h290q12 -3 15 -16v-311l-99 98q-9 11 -21 2q-2 -1 -3 -2q-11 -12 -1 -25l125 -124q6 -5 14 -5 q10 1 15 5l124 124q11 13 0 25z" />
<glyph unicode="&#xe158;" d="M272 288q15 2 16 16v192q-2 15 -16 16q-15 -2 -16 -16v-192q2 -15 16 -16zM352 466v-34q78 -32 111 -111q17 -39 17 -81q0 -95 -72 -158q-59 -50 -136 -50q-95 0 -158 72q-50 59 -50 136q0 94 71 156q26 23 57 36v34q-91 -32 -134 -118q-26 -52 -26 -108q0 -107 79 -178 q69 -62 161 -62q107 0 178 79q62 68 62 161q0 105 -78 177q-37 33 -82 49z" />
<glyph unicode="&#xe159;" d="M379 170q11 12 0 23l-95 99v0l-1 1v1q-6 4 -10 4h-1v0h-1q-6 -2 -8 -4l-2 -1l-1 -1v-1l-95 -98q-11 -11 0 -23q11 -9 22 0l69 72v-225q2 -16 16 -17q15 2 16 17v225l69 -72q11 -9 22 0zM392 377q-19 65 -80 91q-27 12 -56 12q-72 0 -115 -59q-20 -28 -26 -60 q-67 -14 -98 -76q-17 -33 -17 -70q0 -74 57 -119q39 -30 87 -30h16h32v33h-48q-59 0 -92 51q-20 30 -20 65q0 62 50 97q29 19 62 19q0 62 50 97q29 19 62 19q59 0 92 -51q15 -23 18 -49q63 -4 96 -58q18 -31 18 -66q0 -63 -51 -100q-28 -21 -61 -23l-16 -1v-32q2 0 4 -1h4 q74 0 120 61q32 43 32 96q0 78 -60 125q-27 22 -60 29z" />
<glyph unicode="&#xe15a;" d="M357 128l-69 -71v225q-2 15 -16 16q-15 -2 -16 -16v-225l-69 71q-11 11 -22 0t0 -22l95 -99v-1h1v-1q6 -4 10 -4h1v0h1q6 2 8 4l2 1l1 1v1l95 98q11 11 0 22t-22 0zM392 377q-19 65 -80 91q-27 12 -56 12q-72 0 -115 -59q-20 -28 -26 -60q-67 -14 -99 -76 q-16 -33 -16 -69q0 -75 58 -119q32 -23 70 -28v33q-56 8 -83 60q-13 26 -13 54q0 62 49 96q29 19 63 19q0 62 50 97q29 19 62 19q59 0 92 -51q15 -23 18 -49q62 -3 95 -56q19 -31 19 -67q0 -64 -52 -101q-6 -5 -12 -8v-37q63 26 87 92q9 27 9 54q0 77 -59 124q-28 22 -61 29 z" />
<glyph unicode="&#xe15b;" d="M256 432q-109 0 -220 -142q-23 -28 -36 -50l35 -49q112 -142 221 -143q109 0 220 142q23 28 36 50l-35 49q-112 142 -221 143zM256 80q-93 0 -198 127l-26 33l36 46q101 113 188 114q93 0 198 -127l26 -33l-36 -46q-101 -113 -188 -114zM256 368q-66 0 -104 -54 q-24 -34 -24 -74q0 -66 54 -104q34 -24 74 -24q66 0 104 54q24 34 24 74q0 66 -54 104q-34 24 -74 24zM256 144q-53 0 -81 45q-15 24 -15 51q0 53 45 81q24 15 51 15q53 0 81 -45q15 -24 15 -51q0 -53 -45 -81q-24 -15 -51 -15z" />
<glyph unicode="&#xe15c;" d="M256 480q-77 0 -125 -61q-35 -44 -35 -99q0 -39 40 -119t80 -141l40 -60l65 102q95 158 95 218q0 77 -61 125q-43 35 -99 35zM128 315q0 68 54 108q34 25 74 25q65 0 104 -55q24 -35 24 -78q0 -33 -32 -99.5t-64 -117.5l-32 -50l-58 95q-69 123 -70 172zM109 112l-44 83 q-34 70 -34 99q2 53 40 79q7 21 22 43q-56 -9 -81 -63q-12 -25 -12 -53q0 -29 27.5 -88t54.5 -104l27 -44q1 2 35 57l-15 27zM419 416q16 -23 22 -43q39 -27 40 -79q0 -22 -19.5 -67.5t-39.5 -80.5l-19 -34q-1 2 -20 36l-15 -27l35 -57l53 91q56 104 56 145q0 63 -49 98 q-21 14 -44 18z" />
<glyph unicode="&#xe15d;" d="M419 416q16 -23 22 -43q39 -27 40 -79q0 -22 -19.5 -67.5t-39.5 -80.5l-19 -34q-1 2 -20 36l-15 -27l35 -57l53 91q56 104 56 145q0 63 -49 98q-21 14 -44 18zM256 480q-77 0 -125 -61q-35 -44 -35 -99q0 -39 40 -119t80 -141l40 -60l65 102q95 158 95 218q0 77 -61 125 q-43 35 -99 35zM128 315q0 68 54 108q34 25 74 25q65 0 104 -55q24 -35 24 -78q0 -33 -32 -99.5t-64 -117.5l-32 -50l-58 95q-69 123 -70 172zM109 112l-44 83q-34 70 -34 99q2 53 40 79q7 21 22 43q-56 -9 -81 -63q-12 -25 -12 -53q0 -29 27.5 -88t54.5 -104l27 -44 q1 2 35 57l-15 27zM256 384q-39 0 -57 -35q-7 -14 -7 -29q0 -39 35 -57q14 -7 29 -7q39 0 57 35q7 14 7 29q0 39 -35 57q-14 7 -29 7zM256 288q-24 0 -31 22q-1 6 -1 10q0 24 22 31q6 1 10 1q24 0 31 -22q1 -6 1 -10q0 -24 -22 -31q-6 -1 -10 -1z" />
<glyph unicode="&#xe15e;" d="M507 252l-240 255q-5 5 -11 5q-8 -1 -12 -5l-239 -255q-10 -11 0 -23q11 -9 22 0l69 73v-286q2 -15 16 -16h288q15 2 16 16v286l68 -73q11 -8 23 0q8 11 0 23zM384 32h-256v304l128 137l128 -137v-16v-288z" />
<glyph unicode="&#xe15f;" d="M256 512l-256 -288h96v-224h128v112q2 15 16 16h32q15 -2 16 -16v-112h128v224h96zM384 256v-224h-64v96q0 24 -22 31q-6 1 -10 1h-64q-24 0 -31 -22q-1 -6 -1 -10v-96h-64v224h-64l192 208l192 -208h-64z" />
<glyph unicode="&#xe160;" d="M263 132q4 -3 8 -4h1v0h1q5 1 10 4v1l80 80q11 11 0 22q-11 9 -22 0l-53 -53v314q-2 15 -16 16q-15 -2 -16 -16v-314l-53 53q-11 9 -22 0q-11 -11 0 -22zM448 384h-48v-32h32q15 -2 16 -16v-288q-2 -15 -16 -16h-320q-15 2 -16 16v288q2 15 16 16h32v32h-48 q-24 0 -31 -22q-1 -6 -1 -10v-320q0 -24 22 -31q6 -1 10 -1h352q24 0 31 22q1 6 1 10v320q0 24 -22 31q-6 1 -10 1z" />
<glyph unicode="&#xe161;" d="M203 405l53 53v-314q2 -15 16 -16q15 2 16 16v314l53 -53q11 -11 22 0t0 22l-80 81q-6 4 -10 4h-1v0h-1q-6 -2 -8 -4l-82 -81q-11 -11 0 -22t22 0zM448 384h-48v-32h32q15 -2 16 -16v-288q-2 -15 -16 -16h-320q-15 2 -16 16v288q2 15 16 16h32v32h-48q-24 0 -31 -22 q-1 -6 -1 -10v-320q0 -24 22 -31q6 -1 10 -1h352q24 0 31 22q1 6 1 10v320q0 24 -22 31q-6 1 -10 1z" />
<glyph unicode="&#xe162;" d="M293 123q-11 -11 0 -22t22 0l129 128q4 7 4 10v1v0v1q-2 6 -4 8l-129 130q-11 9 -22 0q-11 -11 0 -22l101 -101h-378q-15 -2 -16 -16q2 -15 16 -16h378zM480 480h-384q-24 0 -31 -22q-1 -6 -1 -10v-96h32v80q2 15 16 16h352q15 -2 16 -16v-384q-2 -15 -16 -16h-352 q-15 2 -16 16v80h-32v-96q0 -24 22 -31q6 -1 10 -1h384q24 0 31 22q1 6 1 10v416q0 24 -22 31q-6 1 -10 1z" />
<glyph unicode="&#xe163;" d="M255 48q-3 -13 -15 -16h-192q-15 2 -16 16v384q2 15 16 16h207q5 0 2 -7q-2 -6 -2 -9v-48h32v64q0 24 -22 31q-6 1 -10 1h-223q-24 0 -31 -22q-1 -6 -1 -10v-416q0 -24 22 -31q6 -1 10 -1h223q24 0 31 22q1 6 1 10v64h-32v-48zM511 240v1q-2 6 -4 8l-129 130q-11 9 -22 0 q-9 -11 0 -22l101 -101h-377q-15 -2 -16 -16q2 -15 16 -16h377l-101 -101q-9 -11 0 -22q11 -11 22 0l129 128q4 7 4 10v1v0z" />
<glyph unicode="&#xe164;" d="M352 48q-2 -15 -16 -16h-288q-15 2 -16 16v288q2 15 16 16h48v32h-64q-24 0 -31 -22q-1 -6 -1 -10v-320q0 -24 22 -31q6 -1 10 -1h320q24 0 31 22q1 6 1 10v64h-32v-48zM480 512h-320q-24 0 -31 -22q-1 -6 -1 -10v-320q0 -24 22 -31q6 -1 10 -1h320q24 0 31 22q1 6 1 10 v320q0 24 -22 31q-6 1 -10 1zM480 176q-2 -15 -16 -16h-288q-15 2 -16 16v288q2 15 16 16h288q15 -2 16 -16v-288z" />
<glyph unicode="&#xe165;" d="M0 416v-64h32v64q0 24 22 31q6 1 10 1h96v32h-96q-39 0 -57 -35q-7 -14 -7 -29zM32 96v64h-32v-64q0 -39 35 -57q14 -7 29 -7h96v32h-96q-24 0 -31 22q-1 6 -1 10zM448 480h-96v-32h96q24 0 31 -22q1 -6 1 -10v-64h32v64q0 39 -35 57q-14 7 -29 7zM480 96q0 -24 -22 -31 q-6 -1 -10 -1h-96v-32h96q39 0 57 35q7 14 7 29v64h-32v-64z" />
<glyph unicode="&#xe166;" d="M0 448v-128h32v128q0 24 22 31q6 1 10 1h128v32h-128q-39 0 -57 -35q-7 -14 -7 -29zM32 64v128h-32v-128q0 -39 35 -57q14 -7 29 -7h128v32h-128q-24 0 -31 22q-1 6 -1 10zM480 64q0 -24 -22 -31q-6 -1 -10 -1h-128v-32h128q39 0 57 35q7 14 7 29v128h-32v-128zM448 512 h-128v-32h128q24 0 31 -22q1 -6 1 -10v-128h32v128q0 39 -35 57q-14 7 -29 7z" />
<glyph unicode="&#xe167;" d="M32 480h128v32h-160v-160h32v128zM64 64h384v384h-384v-384zM96 416h320v-320h-320v320zM32 160h-32v-160h160v32h-128v128zM352 512v-32h128v-128h32v160h-160zM480 32h-128v-32h160v160h-32v-128z" />
</font>
</defs>
</svg>
